<svg width="244" height="75" viewBox="0 0 244 75" fill="none" xmlns="http://www.w3.org/2000/svg">
<path d="M88.1347 20.3053C88.1624 20.925 88.0644 21.5439 87.8466 22.1248C87.6288 22.7056 87.2957 23.2364 86.8673 23.685C86.3872 24.1807 85.8079 24.5693 85.1672 24.8256C84.5266 25.0819 83.839 25.2 83.1495 25.1721C82.4561 25.1876 81.7669 25.0606 81.1245 24.799C80.4821 24.5374 79.9003 24.1467 79.4149 23.6512C78.4302 22.644 77.8789 21.2914 77.8789 19.8828C77.8789 18.4742 78.4302 17.1216 79.4149 16.1144C80.1678 15.3788 81.1212 14.882 82.1555 14.6866C83.1898 14.4912 84.2587 14.6058 85.2281 15.016C85.8375 15.2665 86.381 15.6539 86.8166 16.1482L85.9209 17.0438C85.5854 16.6396 85.1601 16.3191 84.6791 16.1079C84.198 15.8967 83.6743 15.8006 83.1495 15.8271C82.4872 15.8317 81.836 15.9985 81.2529 16.3128C80.6698 16.6272 80.1726 17.0796 79.8048 17.6304C79.4369 18.1813 79.2096 18.8139 79.1427 19.4729C79.0757 20.1319 79.1712 20.7973 79.4208 21.4109C79.6704 22.0245 80.0665 22.5676 80.5745 22.9928C81.0824 23.4179 81.6868 23.7122 82.3347 23.8499C82.9827 23.9875 83.6545 23.9644 84.2914 23.7825C84.9283 23.6006 85.511 23.2654 85.9885 22.8063C86.5047 22.2404 86.804 21.5101 86.8335 20.7447L83.1495 20.7447L83.1495 19.528L88.0671 19.5279C88.1056 19.7854 88.1281 20.045 88.1347 20.3053Z" fill="#36156F" stroke="#36156F" stroke-width="0.319725" stroke-miterlimit="10"/>
<path d="M95.8749 16.0825L91.3122 16.0825L91.3122 19.2933L95.4693 19.2933L95.4693 20.51L91.3122 20.51L91.3122 23.7208L95.8749 23.7208L95.8749 24.9713L89.9941 24.9713L89.9941 14.832L95.8749 14.832L95.8749 16.0825Z" fill="#36156F" stroke="#36156F" stroke-width="0.319725" stroke-miterlimit="10"/>
<path d="M101.418 24.9713L100.116 24.9713L100.116 16.0825L97.2773 16.0825L97.2773 14.832L104.324 14.832L104.324 16.0825L101.418 16.0825L101.418 24.9713Z" fill="#36156F" stroke="#36156F" stroke-width="0.319725" stroke-miterlimit="10"/>
<path d="M109.289 24.9713L109.289 14.832L110.59 14.832L110.59 24.9713L109.289 24.9713Z" fill="#36156F" stroke="#36156F" stroke-width="0.319725" stroke-miterlimit="10"/>
<path d="M116.375 24.9713L115.073 24.9713L115.073 16.0825L112.234 16.0825L112.234 14.832L119.197 14.832L119.197 16.0825L116.375 16.0825L116.375 24.9713Z" fill="#36156F" stroke="#36156F" stroke-width="0.319725" stroke-miterlimit="10"/>
<path d="M132.391 23.65C131.903 24.1384 131.324 24.5259 130.686 24.7903C130.048 25.0547 129.364 25.1908 128.674 25.1908C127.983 25.1908 127.299 25.0547 126.662 24.7903C126.024 24.5259 125.444 24.1384 124.956 23.65C124.001 22.6344 123.469 21.2927 123.469 19.8984C123.469 18.5042 124.001 17.1624 124.956 16.1469C125.434 15.6447 126.011 15.2483 126.652 14.9834C127.292 14.7185 127.981 14.591 128.674 14.6091C129.366 14.5982 130.052 14.729 130.692 14.9934C131.331 15.2579 131.909 15.6504 132.391 16.1469C132.877 16.6412 133.259 17.2278 133.515 17.8721C133.77 18.5165 133.894 19.2055 133.879 19.8984C133.901 20.5922 133.78 21.2832 133.524 21.9285C133.269 22.5739 132.883 23.1598 132.391 23.65ZM125.919 22.805C126.279 23.1698 126.708 23.4595 127.181 23.6572C127.654 23.8549 128.161 23.9567 128.674 23.9567C129.186 23.9567 129.694 23.8549 130.166 23.6572C130.639 23.4595 131.068 23.1698 131.428 22.805C132.157 22.0127 132.562 20.9752 132.562 19.8984C132.562 18.8216 132.157 17.7842 131.428 16.9918C131.068 16.627 130.639 16.3374 130.166 16.1397C129.694 15.942 129.186 15.8402 128.674 15.8402C128.161 15.8402 127.654 15.942 127.181 16.1397C126.708 16.3374 126.279 16.627 125.919 16.9918C125.19 17.7842 124.785 18.8216 124.785 19.8984C124.785 20.9752 125.19 22.0127 125.919 22.805Z" fill="#36156F" stroke="#36156F" stroke-width="0.319725" stroke-miterlimit="10"/>
<path d="M135.721 24.9713L135.721 14.832L137.292 14.832L142.227 22.7238L142.227 20.7635L142.227 14.832L143.528 14.832L143.528 24.9713L142.176 24.9713L137.022 16.7078L137.022 18.6512L137.022 24.9713L135.721 24.9713Z" fill="#36156F" stroke="#36156F" stroke-width="0.319725" stroke-miterlimit="10"/>
<path d="M123.148 39.7556C121.724 39.7589 120.334 40.1844 119.152 40.9782C117.97 41.772 117.05 42.8984 116.508 44.2151C115.966 45.5318 115.827 46.9796 116.108 48.3754C116.389 49.7712 117.078 51.0523 118.087 52.0567C119.096 53.0611 120.38 53.7437 121.777 54.0182C123.174 54.2927 124.622 54.1468 125.936 53.5988C127.25 53.0509 128.372 52.1255 129.16 50.9398C129.948 49.7541 130.367 48.3613 130.364 46.9375C130.378 45.9877 130.2 45.0448 129.842 44.165C129.484 43.2852 128.952 42.4865 128.279 41.8164C127.606 41.1462 126.805 40.6185 125.923 40.2644C125.042 39.9104 124.098 39.7373 123.148 39.7556V39.7556ZM123.148 51.2974C122.276 51.3584 121.405 51.1555 120.649 50.7151C119.893 50.2746 119.287 49.6169 118.91 48.8276C118.533 48.0382 118.402 47.1536 118.534 46.2889C118.667 45.4241 119.056 44.6191 119.652 43.9786C120.248 43.3381 121.022 42.8916 121.875 42.6972C122.728 42.5029 123.62 42.5696 124.435 42.8887C125.249 43.2079 125.949 43.7646 126.443 44.4867C126.937 45.2088 127.202 46.0627 127.204 46.9375C127.231 47.4918 127.147 48.046 126.957 48.5673C126.766 49.0886 126.474 49.5665 126.096 49.9728C125.718 50.3792 125.262 50.7057 124.756 50.9332C124.25 51.1607 123.703 51.2845 123.148 51.2974ZM107.399 39.7556C105.975 39.7589 104.584 40.1844 103.402 40.9782C102.22 41.772 101.3 42.8984 100.758 44.2151C100.216 45.5318 100.077 46.9796 100.358 48.3754C100.639 49.7712 101.328 51.0523 102.337 52.0567C103.346 53.0611 104.631 53.7437 106.028 54.0182C107.425 54.2927 108.872 54.1468 110.186 53.5988C111.5 53.0509 112.622 52.1255 113.411 50.9398C114.199 49.7541 114.618 48.3613 114.614 46.9375C114.628 45.9877 114.451 45.0448 114.093 44.165C113.734 43.2852 113.203 42.4865 112.53 41.8164C111.856 41.1463 111.055 40.6185 110.174 40.2644C109.292 39.9104 108.348 39.7373 107.399 39.7556V39.7556ZM107.399 51.2974C106.526 51.3584 105.655 51.1555 104.899 50.7151C104.143 50.2746 103.538 49.6169 103.16 48.8276C102.783 48.0382 102.652 47.1536 102.785 46.2889C102.917 45.4241 103.306 44.6192 103.902 43.9786C104.498 43.3381 105.273 42.8916 106.126 42.6973C106.979 42.5029 107.87 42.5696 108.685 42.8887C109.499 43.2079 110.199 43.7646 110.693 44.4867C111.187 45.2088 111.452 46.0627 111.454 46.9375C111.482 47.4918 111.397 48.046 111.207 48.5673C111.017 49.0886 110.724 49.5665 110.346 49.9728C109.968 50.3792 109.512 50.7057 109.006 50.9332C108.5 51.1607 107.953 51.2845 107.399 51.2974ZM88.6748 41.9693L88.6748 45.0111L95.9751 45.0111C95.8606 46.4438 95.265 47.7956 94.2852 48.8471C93.5529 49.5932 92.6721 50.1773 91.6999 50.5615C90.7276 50.9458 89.6855 51.1216 88.641 51.0777C86.4897 51.0777 84.4265 50.2231 82.9054 48.702C81.3842 47.1808 80.5296 45.1176 80.5296 42.9663C80.5296 40.815 81.3842 38.7519 82.9054 37.2307C84.4265 35.7095 86.4897 34.8549 88.641 34.8549C90.7034 34.8242 92.6948 35.6075 94.1838 37.0349L96.3299 34.8887C95.3227 33.8925 94.1269 33.1074 92.8124 32.5793C91.4979 32.0512 90.0912 31.7907 88.6748 31.8131C87.1725 31.7547 85.6738 32.0001 84.2686 32.5347C82.8634 33.0692 81.5806 33.882 80.4971 34.9242C79.4135 35.9664 78.5515 37.2167 77.9626 38.6C77.3738 39.9834 77.0703 41.4713 77.0703 42.9748C77.0703 44.4782 77.3738 45.9662 77.9626 47.3495C78.5515 48.7329 79.4135 49.9831 80.4971 51.0253C81.5806 52.0676 82.8634 52.8803 84.2686 53.4149C85.6738 53.9495 87.1725 54.1949 88.6748 54.1364C90.1203 54.1941 91.5618 53.9455 92.9044 53.4067C94.247 52.8679 95.4605 52.0511 96.4651 51.0101C98.2397 49.0607 99.1852 46.4968 99.1013 43.862C99.1074 43.2278 99.0565 42.5944 98.9492 41.9693L88.6748 41.9693ZM165.243 44.3351C164.802 43.0385 163.978 41.9064 162.88 41.0886C161.781 40.2708 160.46 39.8059 159.092 39.7555C158.168 39.7537 157.253 39.9415 156.404 40.3073C155.555 40.6732 154.79 41.2092 154.156 41.8823C153.523 42.5554 153.034 43.3513 152.72 44.2208C152.407 45.0903 152.275 46.015 152.332 46.9375C152.318 48.4801 152.803 49.986 153.715 51.2303C154.627 52.4745 155.917 53.3903 157.392 53.8409C158.868 54.2915 160.449 54.2527 161.901 53.7303C163.352 53.2079 164.596 52.23 165.446 50.9425L162.996 49.2527C162.63 49.8615 162.112 50.3642 161.493 50.7111C160.873 51.0579 160.174 51.2367 159.464 51.2298C158.731 51.2601 158.007 51.068 157.386 50.679C156.764 50.2899 156.275 49.722 155.983 49.0499L165.598 45.0787L165.243 44.3351ZM155.442 46.7347C155.408 46.2098 155.478 45.6834 155.65 45.1862C155.822 44.689 156.091 44.231 156.442 43.8392C156.793 43.4473 157.219 43.1294 157.694 42.9041C158.169 42.6788 158.685 42.5506 159.21 42.5269C159.755 42.4937 160.297 42.6219 160.769 42.8954C161.241 43.169 161.622 43.5757 161.863 44.0647L155.442 46.7347ZM147.635 53.697L150.795 53.697L150.795 32.5736L147.635 32.5736L147.635 53.697ZM142.464 41.3609L142.345 41.3609C141.873 40.8233 141.291 40.394 140.637 40.1023C139.984 39.8107 139.275 39.6636 138.56 39.6711C136.713 39.7606 134.972 40.5573 133.696 41.8959C132.421 43.2346 131.71 45.0126 131.71 46.8615C131.71 48.7104 132.421 50.4884 133.696 51.827C134.972 53.1657 136.713 53.9624 138.56 54.0519C139.276 54.0663 139.987 53.9223 140.642 53.6301C141.296 53.338 141.878 52.905 142.345 52.362L142.464 52.362L142.464 53.3929C142.464 56.1474 140.993 57.6175 138.628 57.6175C137.837 57.6002 137.07 57.3484 136.423 56.894C135.776 56.4397 135.279 55.8034 134.994 55.0658L132.257 56.1981C132.763 57.4693 133.643 58.5569 134.78 59.3173C135.918 60.0777 137.259 60.4749 138.628 60.4565C142.328 60.4565 145.387 58.2766 145.387 52.9704L145.387 40.178L142.464 40.178L142.464 41.3609ZM138.83 51.2974C137.723 51.2284 136.684 50.7399 135.924 49.9314C135.165 49.123 134.742 48.0553 134.742 46.946C134.742 45.8366 135.165 44.769 135.924 43.9605C136.684 43.1521 137.723 42.6636 138.83 42.5945C139.371 42.6179 139.902 42.7499 140.392 42.9826C140.881 43.2153 141.318 43.5441 141.677 43.9493C142.037 44.3545 142.311 44.8278 142.484 45.3412C142.657 45.8546 142.725 46.3974 142.683 46.9375C142.729 47.4795 142.665 48.0251 142.494 48.5415C142.323 49.0579 142.05 49.5342 141.69 49.9418C141.329 50.3493 140.89 50.6796 140.399 50.9126C139.907 51.1456 139.374 51.2765 138.83 51.2974V51.2974ZM180.046 32.5736L172.476 32.5736L172.476 53.697L175.636 53.697L175.636 45.687L180.046 45.687C180.947 45.7517 181.851 45.6302 182.703 45.33C183.555 45.0298 184.335 44.5574 184.996 43.9422C185.657 43.327 186.184 42.5823 186.545 41.7544C186.905 40.9265 187.091 40.0332 187.091 39.1303C187.091 38.2273 186.905 37.3341 186.545 36.5062C186.184 35.6783 185.657 34.9336 184.996 34.3184C184.335 33.7032 183.554 33.2308 182.703 32.9306C181.851 32.6304 180.947 32.5089 180.046 32.5736V32.5736ZM180.046 42.7128L175.636 42.7128L175.636 35.514L180.114 35.514C180.589 35.514 181.059 35.6075 181.498 35.7892C181.937 35.971 182.335 36.2373 182.671 36.5731C183.007 36.909 183.273 37.3076 183.455 37.7464C183.637 38.1851 183.73 38.6554 183.73 39.1303C183.73 39.6052 183.637 40.0754 183.455 40.5142C183.273 40.953 183.007 41.3516 182.671 41.6874C182.335 42.0232 181.937 42.2896 181.498 42.4713C181.059 42.6531 180.589 42.7466 180.114 42.7466L180.046 42.7128ZM199.548 39.6879C198.397 39.617 197.25 39.8849 196.25 40.4586C195.25 41.0322 194.44 41.8864 193.92 42.9156L196.709 44.0816C196.99 43.5737 197.413 43.1581 197.926 42.8852C198.439 42.6123 199.02 42.4938 199.598 42.5438C199.999 42.497 200.406 42.5305 200.794 42.6424C201.182 42.7543 201.544 42.9424 201.859 43.1956C202.173 43.4489 202.434 43.7623 202.626 44.1175C202.819 44.4727 202.938 44.8626 202.978 45.2645L202.978 45.4673C201.962 44.9332 200.831 44.6548 199.683 44.6562C196.675 44.6562 193.599 46.3461 193.599 49.4216C193.629 50.0754 193.79 50.7164 194.072 51.3068C194.354 51.8971 194.753 52.4247 195.243 52.8582C195.733 53.2917 196.305 53.6222 196.926 53.8302C197.546 54.0381 198.202 54.1193 198.855 54.0688C199.648 54.1127 200.438 53.9448 201.145 53.5826C201.852 53.2203 202.449 52.6766 202.877 52.0071L202.978 52.0071L202.978 53.697L206.02 53.697L206.02 45.5687C206.02 41.8679 203.215 39.7217 199.615 39.7217L199.548 39.6879ZM199.159 51.2636C198.128 51.2636 196.692 50.7397 196.692 49.4723C196.692 47.7825 198.483 47.2079 200.071 47.2079C201.075 47.1831 202.067 47.4282 202.944 47.9176C202.838 48.8354 202.403 49.6835 201.719 50.305C201.036 50.9264 200.15 51.279 199.227 51.2974L199.159 51.2636ZM217.105 40.178L213.489 49.3371L213.388 49.3371L209.636 40.178L206.256 40.178L211.884 52.9873L208.673 60.1017L211.968 60.1017L220.62 40.178L217.105 40.178ZM188.715 53.697L191.859 53.697L191.859 32.5736L188.715 32.5736L188.715 53.697Z" fill="#36156F"/>
<path d="M25.6414 15.7413C25.0845 16.3997 24.8004 17.2461 24.8471 18.1072L24.8471 55.4872C24.7896 56.3497 25.0751 57.2 25.6414 57.8531L25.7597 57.9883L46.6972 37.0507L46.6972 36.5437L25.7596 15.623L25.6414 15.7413Z" fill="#36156F"/>
<path d="M53.6277 44.0317L46.6992 37.0526L46.6992 36.5456L53.6277 29.5664L53.7798 29.6678L62.0771 34.3657C64.4429 35.7007 64.4429 37.8975 62.0771 39.2494L53.8136 43.9473L53.6277 44.0317Z" fill="#6539B0"/>
<path d="M53.8317 43.936L46.7004 36.8047L25.6445 57.8606C26.1221 58.2856 26.7333 58.5301 27.3722 58.5517C28.0111 58.5733 28.6374 58.3707 29.1426 57.9788L53.8317 43.936" fill="#B780FF"/>
<path d="M53.8317 29.6642L29.1426 15.6383C28.6407 15.241 28.0149 15.0334 27.3751 15.0519C26.7353 15.0705 26.1225 15.314 25.6445 15.7397L46.7004 36.7955L53.8317 29.6642Z" fill="#8857DC"/>
<path opacity="0.2" d="M53.6289 43.7832L29.1426 57.7247C28.6558 58.0921 28.0626 58.2908 27.4527 58.2908C26.8428 58.2908 26.2496 58.0921 25.7628 57.7247V57.7247L25.6445 57.843L25.7628 57.9782C26.2496 58.3455 26.8428 58.5443 27.4527 58.5443C28.0626 58.5443 28.6558 58.3455 29.1426 57.9782L53.8317 43.9353L53.6289 43.7832Z" fill="#36156F"/>
<path opacity="0.12" d="M25.6438 57.6168C25.101 56.9466 24.8351 56.0943 24.9003 55.2344L24.9003 55.4878C24.8428 56.3502 25.1282 57.2003 25.6944 57.8533L25.8127 57.735L25.6438 57.6168Z" fill="#36156F"/>
<path opacity="0.12" d="M62.0763 39.0015L53.627 43.7839L53.779 43.936L62.0763 39.2381C62.5661 39.031 62.991 38.6957 63.3062 38.2674C63.6215 37.8392 63.8154 37.3339 63.8676 36.8047C63.762 37.2856 63.5448 37.7349 63.2337 38.1165C62.9225 38.4981 62.5261 38.8012 62.0763 39.0015Z" fill="#36156F"/>
<path opacity="0.25" d="M29.1399 15.8781L62.0757 34.6019C62.5254 34.8022 62.9219 35.1054 63.233 35.487C63.5441 35.8685 63.7613 36.3179 63.8669 36.7988C63.8147 36.2696 63.6208 35.7643 63.3055 35.336C62.9903 34.9078 62.5654 34.5724 62.0757 34.3654L29.1399 15.6415C26.791 14.2896 24.8477 15.4049 24.8477 18.1087L24.8477 18.3622C24.8984 15.6584 26.791 14.5431 29.1399 15.8781Z" fill="white"/>
<rect x="1" y="1" width="242" height="73" rx="7.28" stroke="#36156F" stroke-opacity="0.3" stroke-width="2"/>
</svg>
