<svg width="864" height="1001" viewBox="0 0 864 1001" fill="none" xmlns="http://www.w3.org/2000/svg">
<path d="M741.988 252.741L720.536 266.191L719.457 291.487C719.369 293.534 716.974 294.584 715.408 293.274L695.985 277.028L671.597 283.816C669.632 284.367 667.884 282.412 668.649 280.518L678.094 257.027L664.101 235.924C662.967 234.221 664.286 231.958 666.323 232.098L691.58 233.824L707.326 213.997C708.601 212.39 711.156 212.946 711.656 214.933L717.82 239.488L741.541 248.332C743.456 249.051 743.719 251.649 741.986 252.733L741.988 252.741Z" fill="#FED333"/>
<path d="M144.732 168.919L144.708 184.998L159.556 191.936L158.249 209.959L176.351 212.476L175.774 232.914L192.154 237.288L194.813 257.046L187.332 258.055L185.348 243.28L168.063 238.668L168.616 219.02L150.217 216.46L151.653 196.575L137.149 189.798L137.178 174.892L126.72 172.431L128.448 165.09L144.732 168.919Z" fill="#3D86F1"/>
<path d="M539.109 156.654C546.166 163.992 562.544 166.821 569.851 167.318C568.421 172.505 557.576 182.641 557.576 182.641C557.576 182.641 533.621 180.975 521.835 173.215C510.049 165.455 512.285 159.561 510.153 156.961L526.706 142.455C527.9 144.13 532.051 149.316 539.109 156.654Z" fill="#FF65A6"/>
<path d="M79.712 402.158C89.8196 400.935 101.932 389.555 106.725 384.017C110.008 388.28 111.58 403.04 111.58 403.04C111.58 403.04 95.8385 421.173 82.5489 425.919C69.2594 430.665 65.8963 425.333 62.5378 425.472L60.9087 403.522C62.965 403.577 69.6044 403.381 79.712 402.158Z" fill="#FFCA41"/>
<path d="M460.54 211.59L456.511 199.542L445.058 202.549L440.567 190.854L429.268 192.379L424.477 184.18L420.328 186.602L426.735 197.575L437.443 196.131L442.115 208.292L453.38 205.336L457.028 216.253L460.54 211.59Z" fill="#F2604E"/>
<path d="M146.749 795.032L126.363 802.778L110.279 771.344L79.071 778.988L63.1875 757.437L52.2789 765.476L73.5229 794.304L103.091 787.058L119.824 819.755L150.513 808.105L146.749 795.032Z" fill="#3BDCB6"/>
<path d="M769.712 744.158C779.82 742.935 791.932 731.555 796.725 726.017C800.008 730.28 801.58 745.04 801.58 745.04C801.58 745.04 785.838 763.173 772.549 767.919C759.259 772.665 755.896 767.333 752.538 767.472L750.909 745.522C752.965 745.577 759.604 745.381 769.712 744.158Z" fill="#FFCA41"/>
<path d="M811.046 450.821L820.1 454.071C821.079 454.423 822.115 453.404 821.844 452.349L819.375 442.58L825.815 434.251C826.509 433.351 825.987 432.078 824.921 432.102L815.109 432.306L810.034 423.908C809.485 423 808.126 423.232 807.741 424.302L804.149 434.197L794.574 437.336C793.539 437.676 793.229 439.093 794.047 439.734L801.64 445.642L800.797 455.98C800.705 457.102 801.869 457.743 802.77 457.067L811.057 450.826L811.046 450.821Z" fill="#D558F4"/>
<g clip-path="url(#clip0_61_1656)">
<path d="M526.523 576.726C512.259 582.709 507.913 600.895 518.037 612.613C547.634 646.936 596.995 660.001 641.046 641.464C685.127 622.972 710.349 578.584 706.647 533.479C705.375 518.088 689.34 508.432 675.09 514.386L526.523 576.726V576.726Z" fill="#8333EF"/>
<path d="M317.737 549.317C330.904 541.199 348.222 548.249 351.86 563.301C362.548 607.344 344.446 655.09 303.737 680.126C263.049 705.233 212.274 699.913 177.757 670.642C165.982 660.65 167.46 641.991 180.595 633.868L317.749 549.326L317.737 549.317Z" fill="#8333EF"/>
<path fill-rule="evenodd" clip-rule="evenodd" d="M615.534 504.453C615.534 514.094 613.398 524.525 608.292 535.512C591.774 568.547 513.914 582.885 466.893 582.885H406.983C383.487 582.885 251.7 582.885 248.262 506.296C247.341 485.17 253.88 447.556 263.477 410.468C263.477 410.468 264.648 406.196 264.662 406.167C276.483 358.926 272.987 340.697 270.88 329.812C269.637 323.346 268.891 319.483 272.226 313.661C278.181 303.156 293.323 319.396 293.323 319.396C286.929 286.565 300.945 279.587 311.332 291.115C320.564 301.327 331.536 309.959 342.874 317.698C346.298 320.025 349.633 322.556 353.349 324.414C354.491 324.984 355.661 325.321 356.831 325.584C380.986 319.586 406.529 315.709 432.337 315.328C433.712 315.314 435.102 315.284 436.492 315.284V317.157H436.55V315.372C461.48 315.767 483.337 318.723 507.023 324.604C507.784 324.428 508.559 324.223 509.305 323.946C512.67 324.721 516.035 325.54 519.371 326.389C519.575 326.33 519.81 326.316 520.014 326.242C524.608 324.706 526.144 320.493 529.173 317.23C532.011 314.202 534.659 310.983 537.38 307.867C542.267 302.307 547.197 296.777 551.893 291.072C561.768 279.089 576.281 286.551 569.903 319.366C569.903 319.366 585.059 303.141 591.014 313.631C594.247 319.322 593.164 323.126 591.453 329.359C588.731 339.117 584.357 354.801 592.301 392.883C592.828 394.126 593.325 395.399 593.793 396.672L596.354 404.792C596.412 404.997 596.485 405.201 596.544 405.421C609.374 446.81 616.031 480.371 615.46 501.468V501.585C615.49 502.551 615.534 503.472 615.534 504.438V504.453Z" fill="#8333EF"/>
<path d="M435.059 315.328C408.344 315.46 381.835 319.381 356.832 325.599C355.662 325.335 354.491 324.999 353.35 324.428C349.62 322.57 346.299 320.039 342.875 317.713C331.537 309.974 320.564 301.342 311.333 291.13C300.946 279.601 286.93 286.595 293.323 319.41C293.323 319.41 278.196 303.185 272.227 313.675C268.891 319.498 269.637 323.36 270.881 329.827C272.988 340.712 276.484 358.941 264.663 406.182C264.649 406.196 263.478 410.483 263.478 410.483C263.039 412.18 262.615 413.906 262.176 415.604C262.132 415.779 262.088 415.94 262.044 416.116L261.664 417.593C261.781 417.154 262.761 413.585 262.776 413.57C267.238 395.75 270.398 390.805 274.158 381.018C280.112 365.481 278.869 347.705 277.655 341.443C276.47 335.255 275.767 331.568 278.927 326.008C284.619 316.001 299.073 331.48 299.073 331.48C292.958 300.171 306.344 293.515 316.249 304.502C325.07 314.246 335.531 322.468 346.372 329.871C349.62 332.08 352.809 334.508 356.364 336.264C357.461 336.82 358.573 337.157 359.7 337.405C383.795 331.422 409.339 327.662 435.073 327.603V315.343L435.059 315.328Z" fill="#9B52FD"/>
<path d="M599.5 416.715C599.178 415.53 598.637 413.511 598.608 413.497C594.146 395.677 590.986 390.761 587.211 380.944C581.257 365.407 584.987 346.754 586.187 340.492C587.387 334.303 588.074 330.617 584.914 325.057C579.223 315.05 564.769 330.529 564.769 330.529C570.884 299.22 557.497 292.564 547.593 303.551C538.771 313.295 528.311 321.517 517.47 328.92C514.222 331.129 511.033 333.557 507.478 335.313C506.38 335.854 505.268 336.205 504.142 336.454C480.046 330.47 458.043 327.676 432.309 327.617V315.357C433.713 315.357 435.088 315.372 436.464 315.416C436.478 315.401 436.507 315.401 436.522 315.416C461.452 315.811 483.309 318.766 506.995 324.648C507.755 324.472 508.531 324.267 509.277 323.989C509.672 323.843 510.067 323.667 510.477 323.477C514.207 321.619 517.528 319.088 520.952 316.762C532.275 309.023 543.262 300.391 552.494 290.179C562.881 278.65 576.897 285.644 570.504 318.459C570.504 318.459 585.631 302.234 591.6 312.724C594.936 318.547 594.189 322.409 592.946 328.876C590.868 339.702 584.929 358.692 596.516 405.435C596.574 405.669 596.633 405.889 596.691 406.123C596.706 406.123 597.891 410.424 597.891 410.424C598.33 412.121 598.754 413.848 599.193 415.545C599.222 415.72 599.281 415.881 599.325 416.057L599.471 416.715H599.5Z" fill="#9B52FD"/>
<path fill-rule="evenodd" clip-rule="evenodd" d="M472.863 582.826C470.069 582.943 467.362 582.973 464.744 582.973H407.555C402.581 582.973 392.53 582.973 379.875 582.183C392.252 582.899 402.025 582.899 406.984 582.899H466.894C468.825 582.899 470.815 582.885 472.849 582.826H472.863Z" fill="#A369FF"/>
<path d="M574.187 706.861V707.914C574.187 712.61 573.5 717.19 572.081 721.579C571.949 722.017 571.817 722.442 571.686 722.866C571.612 723.115 571.51 723.305 571.437 723.51C568.54 731.527 563.449 738.959 556.456 745.689C556.412 745.689 556.368 745.762 556.28 745.821C542.294 759.193 520.905 769.712 495.156 776.091C493.883 776.412 492.625 776.734 491.338 777.012C478.493 779.982 464.623 781.913 450.096 782.747C446.131 782.996 442.108 783.098 438.085 783.186H434.017C432.452 783.186 430.857 783.186 429.321 783.142C425.722 783.098 422.167 782.937 418.67 782.703C416.417 782.572 414.164 782.425 411.955 782.206C398.861 781.036 386.382 778.797 374.795 775.739C348.154 768.688 326.048 756.984 311.725 742.485C310.057 740.817 308.521 739.193 307.073 737.584C302.947 733.049 299.568 728.63 297.125 723.919C294.403 718.74 292.867 713.195 292.867 706.802C292.867 677.864 297.168 650.754 304.864 626.439C307.687 617.558 310.921 609.087 314.593 601.026C318.528 592.365 322.917 584.201 327.76 576.579C329.442 573.916 331.227 571.312 333.012 568.781C339.01 560.237 345.594 552.527 352.645 545.739C356.581 541.92 360.633 538.38 364.847 535.132C385.373 519.317 409.015 510.421 434.091 510.421H434.266C436.153 510.421 438.085 510.495 439.957 510.626H440.557C467.783 512.309 492.947 524.715 513.926 544.788C523.246 553.712 531.746 564.143 539.236 575.789C539.88 576.798 540.465 577.793 541.094 578.759C543.947 583.411 546.639 588.269 549.214 593.272C549.477 593.784 549.682 594.238 549.945 594.75C551.833 598.568 553.632 602.621 555.373 606.746C567.297 635.817 574.202 671.836 574.334 706.831L574.26 706.861H574.187V706.861Z" fill="#8333EF"/>
<path opacity="0.3" d="M602.745 700.833C602.745 700.453 602.716 700.073 602.672 699.692V699.619C602.745 700.029 602.745 700.38 602.745 700.79V700.833Z" fill="#000072"/>
<path d="M555.33 635.685C555.257 635.509 555.155 635.334 555.081 635.085C548.586 617.865 537.73 604.508 524.402 597.412L516.385 593.155C511.85 590.756 506.525 589.044 500.965 588.195C490.841 586.542 479.927 587.493 471.456 591.048L456.036 597.544H455.963C455.963 597.544 455.7 597.676 455.612 597.749L451.574 599.431C446.395 601.626 440.982 602.796 435.584 603.045C435.086 603.045 434.545 603.118 434.048 603.118C428.181 603.045 422.256 601.831 416.565 599.431L412.176 597.559H412.103L396.683 591.063C388.241 587.522 377.298 586.601 367.174 588.21C361.6 589.073 356.26 590.741 351.725 593.184L343.707 597.442C330.394 604.581 319.495 617.938 312.999 635.144C312.926 635.319 312.823 635.495 312.75 635.714C293.468 687.271 323.971 744.943 374.767 752.565C382.828 753.794 391.226 754.496 399.872 754.628H403.032C413.726 754.628 424.07 753.867 433.93 752.434H434.048C443.937 753.867 454.325 754.628 465.048 754.628H468.209C476.84 754.453 485.267 753.794 493.314 752.565C544.109 744.899 574.642 687.256 555.345 635.714L555.301 635.67H555.345L555.33 635.685Z" fill="#9B52FD"/>
<path d="M479.445 556.082C465.064 558.994 449.19 560.779 431.766 561.437C414.342 560.779 398.527 558.979 384.16 556.082C368.477 552.922 352.749 548.753 338.149 542.14C328.127 537.619 318.383 531.752 310.776 523.677C304.821 517.327 300.462 509.661 298.179 501.292C292.284 479.537 297.17 454.417 301.062 432.618C304.924 410.819 311.961 389.137 326.445 372.181C335.822 361.208 353.642 356.249 370.481 358.312C376.552 360.111 383.633 362.203 388.944 365.685C402.228 374.42 414.839 386.27 431.795 385.626C436.447 385.451 440.836 385.246 445.357 383.871C451.151 382.115 456.505 377.594 461.611 374.434C469.058 370.703 475.349 365.203 483.059 361.984C490.374 358.999 498.157 357.449 506.101 358.122C517.512 359.131 529.597 363.286 537.263 372.24C554.277 392.049 561.797 417.491 565.031 442.991C568 466.487 571.102 492.865 558.754 514.372C553.795 523.018 546.685 530.26 538.214 535.498C520.57 546.47 499.693 552.015 479.504 556.082H479.43H479.445Z" fill="#9B52FD"/>
<path d="M572.375 756.179L572.242 756.253V756.135H572.375V756.179Z" fill="#EF8B01"/>
<path d="M575.504 745.192L575.387 745.266V745.163H575.504V745.207V745.192Z" fill="#EF8B01"/>
<path d="M566.378 835.871C563.616 835.811 560.308 836.008 556.636 836.355C530.654 838.926 486.473 850.775 486.473 850.775C486.473 850.775 484.129 812.958 490.952 795.737C491.982 793.083 493.243 790.929 494.783 789.445C504.657 780.066 530.855 787.66 537.802 789.923C538.92 790.265 539.512 790.485 539.512 790.485C539.512 790.485 539.586 790.569 539.798 790.735C543.618 794.306 587.863 836.382 566.444 835.87L566.404 835.851L566.378 835.871Z" fill="#F6AD1E"/>
<path d="M539.732 790.769L537.514 790.791C537.195 790.882 536.875 790.939 536.536 791.003C535.793 791.199 535.037 791.388 534.288 791.563C537.842 796.499 558.486 825.704 555.919 832.878C555.511 833.964 555.832 835.189 556.623 836.381C560.282 836.027 563.609 835.823 566.365 835.897C587.784 836.409 543.533 794.346 539.713 790.776L539.732 790.769Z" fill="#FFCA95"/>
<path d="M375.296 849.224C375.296 849.224 370.309 848.583 362.691 847.789C344.096 845.795 309.8 842.715 294.096 845.231C272.03 848.755 314.668 796.666 314.668 796.666C314.668 796.666 315.671 796.124 317.408 795.339C324.496 791.998 343.756 783.881 355.242 787.763C356.579 788.217 357.764 788.787 358.875 789.597C360.585 790.834 362.103 792.785 363.481 795.303C372.545 811.382 375.322 849.259 375.322 849.259L375.305 849.236L375.296 849.224Z" fill="#F6AD1E"/>
<path d="M363.972 796.289C363.972 796.289 364.077 796.282 364.121 796.268C364.103 796.244 364.086 796.221 364.068 796.198C361.866 796.418 359.667 796.618 357.496 796.759C357.327 796.778 357.148 796.784 356.97 796.791L356.985 796.908C359.386 812.994 363.013 838.802 363.012 847.802C370.621 848.584 375.614 849.184 375.614 849.184C375.614 849.184 372.975 812.047 363.969 796.309L363.972 796.289Z" fill="#FFCA95"/>
<path d="M500.628 490.934C516.297 490.934 529.01 474.417 529.01 454.037C529.01 433.657 516.312 417.14 500.628 417.14C484.945 417.14 472.246 433.657 472.246 454.037C472.246 474.417 484.945 490.934 500.628 490.934Z" fill="white"/>
<path d="M362.699 490.934C378.367 490.934 391.081 474.417 391.081 454.037C391.081 433.657 378.382 417.14 362.699 417.14C347.015 417.14 334.316 433.657 334.316 454.037C334.316 474.417 347.015 490.934 362.699 490.934Z" fill="white"/>
<path d="M409.667 493.169C408.223 493.169 407.173 494.903 407.581 496.694C409.755 506.994 416.377 515.085 424.327 517.872C432.058 520.569 441.233 519.527 447.388 512.478C450.991 508.342 453.412 502.654 454.711 496.739C455.09 494.96 454.054 493.169 452.625 493.169H409.667Z" fill="#D8872E"/>
<path d="M457.515 503.004C459.27 503.004 460.528 501.424 460.06 499.83C458.232 493.392 451.692 479.494 429.528 479.494C411.035 479.494 404.759 493.392 402.857 499.815C402.374 501.439 403.647 503.019 405.403 503.019L431.971 507.788L457.573 503.019H457.515V503.004Z" fill="#F6AD1E"/>
<path d="M453.548 500.605C454.601 501.029 455.626 500.663 455.626 499.888C455.582 496.772 453.914 489.384 440.469 484.029C429.248 479.581 423.118 483.868 420.894 486.106C420.338 486.662 420.835 487.643 421.903 488.067C434.617 482.698 445.18 486.765 453.533 500.62L453.548 500.605Z" fill="#FFCA95"/>
<path fill-rule="evenodd" clip-rule="evenodd" d="M350.643 446.195C350.044 448.536 349.707 451.082 349.707 453.715C349.707 465.595 356.408 475.222 364.674 475.222C372.939 475.222 379.64 465.58 379.64 453.715C379.64 441.836 372.939 432.209 364.674 432.209H364.103C364.469 433.365 364.674 434.623 364.674 435.925C364.674 442.114 360.197 447.146 354.696 447.146C353.247 447.146 351.872 446.795 350.643 446.166V446.195Z" fill="#36156F"/>
<path fill-rule="evenodd" clip-rule="evenodd" d="M482.78 454.403C482.78 466.297 489.481 475.938 497.747 475.938C506.013 475.938 512.713 465.77 512.713 454.403C512.713 443.035 506.613 433.745 498.859 432.911C499.21 434.067 499.4 435.31 499.4 436.598C499.4 442.801 494.923 447.834 489.422 447.834C487.403 447.834 485.531 447.161 483.951 446.005C483.19 448.565 482.766 451.418 482.766 454.403H482.78Z" fill="#36156F"/>
<path d="M516.097 460.342C507.451 462.536 497.839 464.935 489.134 467.101C475.162 470.568 467.921 486.032 474.197 498.995L485.389 522.096L545.737 502.989L544.274 480.824C543.338 466.691 529.82 456.874 516.097 460.356V460.342Z" fill="#9B52FD"/>
<path d="M346.59 459.545C356.787 462.135 368.696 465.105 378.966 467.65C391.533 470.767 398.029 484.651 392.382 496.311L379.946 521.958L319.598 502.851L321.251 477.935C322.099 465.236 334.242 456.4 346.59 459.545V459.545Z" fill="#9B52FD"/>
<path d="M688.482 408.011L690.333 418.078L674.464 422.84L675.349 437.898L664.06 443.405L666.842 449.118L681.946 441.756L681.109 427.49L697.621 422.535L694.833 407.382L688.482 408.011Z" fill="#3BDCB6"/>
<path d="M242.9 357.353L253.581 353.79C254.737 353.405 254.952 351.717 253.939 350.943L244.596 343.742L244.492 331.418C244.479 330.088 243.077 329.294 242.114 330.089L233.235 337.378L222.487 333.326C221.324 332.888 220.242 334.086 220.663 335.348L224.521 347.052L217.984 356.87C217.279 357.933 218.018 359.461 219.235 359.458L230.497 359.397L237.205 369.519C237.932 370.617 239.467 370.364 239.807 369.09L242.913 357.35L242.9 357.353Z" fill="#F47458"/>
<path d="M185.119 492.703L183.439 506.669L160.673 506.448L155.7 526.562L138.635 529.182L139.966 537.822L162.788 534.317L167.5 515.252L191.183 515.483L193.711 494.473L185.119 492.703Z" fill="#417BE2"/>
</g>
<defs>
<clipPath id="clip0_61_1656">
<rect width="550" height="574" fill="white" transform="translate(157 285)"/>
</clipPath>
</defs>
</svg>
