<svg width="864" height="1001" viewBox="0 0 864 1001" fill="none" xmlns="http://www.w3.org/2000/svg">
<path d="M543.225 492.788C528.127 499.122 523.527 518.371 534.243 530.775C565.571 567.104 617.82 580.933 664.448 561.313C711.107 541.739 737.804 494.755 733.887 447.012C732.539 430.721 715.567 420.5 700.484 426.803L543.225 492.788Z" fill="#8333EF"/>
<path d="M322.232 463.777C336.169 455.184 354.499 462.645 358.35 478.579C369.663 525.197 350.503 575.735 307.412 602.236C264.345 628.811 210.6 623.179 174.063 592.197C161.599 581.621 163.164 561.87 177.067 553.272L322.244 463.786L322.232 463.777Z" fill="#8333EF"/>
<path fill-rule="evenodd" clip-rule="evenodd" d="M637.445 416.288C637.445 426.493 635.184 437.534 629.779 449.164C612.296 484.131 529.88 499.307 480.109 499.307H416.695C391.824 499.307 252.328 499.307 248.689 418.239C247.714 395.877 254.636 356.063 264.794 316.807C264.794 316.807 266.033 312.285 266.049 312.254C278.561 262.25 274.86 242.955 272.63 231.434C271.314 224.589 270.524 220.501 274.055 214.337C280.358 203.218 296.385 220.408 296.385 220.408C289.618 185.658 304.454 178.271 315.448 190.474C325.22 201.283 336.834 210.419 348.836 218.611C352.46 221.074 355.99 223.753 359.924 225.719C361.132 226.323 362.37 226.679 363.609 226.958C389.176 220.609 416.215 216.505 443.532 216.103C444.987 216.087 446.458 216.056 447.93 216.056V218.038H447.992V216.149C474.379 216.567 497.515 219.695 522.587 225.921C523.392 225.735 524.213 225.518 525.002 225.224C528.564 226.045 532.126 226.912 535.657 227.81C535.873 227.748 536.121 227.733 536.338 227.655C541.201 226.029 542.827 221.569 546.032 218.116C549.036 214.91 551.839 211.503 554.72 208.205C559.892 202.32 565.111 196.467 570.082 190.427C580.535 177.744 595.896 185.642 589.145 220.377C589.145 220.377 605.188 203.203 611.491 214.306C614.913 220.33 613.767 224.357 611.955 230.954C609.075 241.283 604.445 257.883 612.853 298.193C613.411 299.509 613.937 300.857 614.433 302.204L617.143 310.798C617.205 311.015 617.282 311.232 617.344 311.464C630.925 355.274 637.971 390.798 637.367 413.129V413.253C637.398 414.275 637.445 415.25 637.445 416.272V416.288Z" fill="#8333EF"/>
<path d="M446.413 216.103C418.136 216.243 390.075 220.393 363.61 226.974C362.371 226.695 361.132 226.339 359.925 225.735C355.976 223.769 352.46 221.09 348.837 218.627C336.835 210.435 325.221 201.299 315.449 190.49C304.454 178.287 289.619 185.689 296.386 220.424C296.386 220.424 280.374 203.25 274.056 214.353C270.525 220.517 271.315 224.605 272.631 231.45C274.861 242.971 278.562 262.266 266.05 312.27C266.034 312.286 264.795 316.823 264.795 316.823C264.331 318.619 263.882 320.447 263.417 322.243C263.371 322.429 263.324 322.599 263.278 322.785L262.875 324.349C262.999 323.884 264.036 320.106 264.052 320.09C268.775 301.229 272.12 295.994 276.1 285.634C282.403 269.188 281.086 250.373 279.801 243.745C278.547 237.195 277.803 233.292 281.148 227.408C287.172 216.815 302.472 233.199 302.472 233.199C295.999 200.06 310.169 193.014 320.653 204.644C329.99 214.957 341.063 223.66 352.538 231.496C355.976 233.834 359.352 236.405 363.115 238.263C364.276 238.852 365.453 239.208 366.645 239.471C392.151 233.138 419.189 229.158 446.428 229.096V216.119L446.413 216.103Z" fill="#9B52FD"/>
<path d="M620.476 323.42C620.135 322.165 619.562 320.028 619.531 320.013C614.808 301.151 611.463 295.948 607.468 285.557C601.165 269.111 605.114 249.366 606.384 242.738C607.653 236.188 608.381 232.286 605.036 226.401C599.012 215.809 583.712 232.193 583.712 232.193C590.185 199.053 576.016 192.007 565.532 203.637C556.194 213.95 545.122 222.653 533.647 230.489C530.209 232.828 526.833 235.398 523.07 237.256C521.909 237.829 520.732 238.201 519.539 238.464C494.034 232.131 470.743 229.173 443.504 229.111V216.134C444.991 216.134 446.446 216.149 447.902 216.196C447.917 216.18 447.948 216.18 447.964 216.196C474.352 216.614 497.487 219.742 522.559 225.967C523.364 225.782 524.185 225.565 524.975 225.27C525.393 225.116 525.811 224.93 526.245 224.728C530.193 222.762 533.709 220.083 537.332 217.62C549.318 209.428 560.948 200.292 570.72 189.483C581.715 177.28 596.55 184.682 589.783 219.417C589.783 219.417 605.795 202.243 612.113 213.346C615.644 219.51 614.854 223.598 613.538 230.443C611.339 241.902 605.052 262.003 617.317 311.48C617.379 311.728 617.441 311.96 617.502 312.208C617.518 312.208 618.772 316.761 618.772 316.761C619.237 318.557 619.686 320.384 620.151 322.181C620.182 322.367 620.243 322.537 620.29 322.723L620.445 323.42H620.476Z" fill="#9B52FD"/>
<path fill-rule="evenodd" clip-rule="evenodd" d="M486.428 499.245C483.47 499.369 480.605 499.4 477.833 499.4H417.299C412.034 499.4 401.395 499.4 388 498.564C401.101 499.323 411.446 499.323 416.695 499.323H480.11C482.154 499.323 484.26 499.307 486.412 499.245H486.428Z" fill="#A369FF"/>
<path d="M593.679 630.534V631.649C593.679 636.62 592.951 641.467 591.449 646.113C591.31 646.577 591.17 647.026 591.031 647.475C590.953 647.739 590.845 647.94 590.768 648.157C587.701 656.643 582.312 664.51 574.91 671.633C574.864 671.633 574.817 671.711 574.724 671.773C559.92 685.927 537.28 697.061 510.025 703.813C508.677 704.153 507.346 704.494 505.983 704.788C492.386 707.932 477.706 709.976 462.328 710.859C458.132 711.122 453.873 711.23 449.614 711.323H445.309C443.652 711.323 441.964 711.323 440.338 711.277C436.529 711.23 432.766 711.06 429.065 710.812C426.68 710.673 424.295 710.518 421.957 710.286C408.097 709.047 394.888 706.678 382.623 703.441C354.423 695.977 331.024 683.588 315.864 668.242C314.098 666.476 312.472 664.758 310.939 663.054C306.572 658.254 302.995 653.577 300.409 648.59C297.528 643.108 295.902 637.239 295.902 630.472C295.902 599.841 300.455 571.146 308.601 545.408C311.589 536.009 315.012 527.042 318.899 518.51C323.064 509.342 327.71 500.701 332.836 492.633C334.617 489.814 336.506 487.058 338.395 484.379C344.745 475.335 351.713 467.174 359.177 459.989C363.343 455.947 367.633 452.199 372.093 448.761C393.819 432.021 418.844 422.606 445.387 422.606H445.573C447.57 422.606 449.614 422.683 451.597 422.823H452.232C481.051 424.604 507.686 437.736 529.893 458.982C539.757 468.428 548.755 479.47 556.683 491.797C557.365 492.865 557.984 493.918 558.65 494.94C561.67 499.865 564.519 505.006 567.245 510.302C567.523 510.844 567.74 511.324 568.019 511.866C570.017 515.908 571.921 520.198 573.764 524.565C586.385 555.335 593.694 593.461 593.834 630.503L593.756 630.534H593.679Z" fill="#8333EF"/>
<path opacity="0.3" d="M623.909 624.154C623.909 623.751 623.878 623.349 623.832 622.946V622.869C623.909 623.302 623.909 623.674 623.909 624.108V624.154Z" fill="#000072"/>
<path d="M573.721 555.196C573.644 555.01 573.535 554.824 573.458 554.561C566.582 536.334 555.092 522.195 540.984 514.685L532.498 510.178C527.697 507.639 522.061 505.827 516.176 504.929C505.46 503.179 493.907 504.185 484.941 507.948L468.619 514.824H468.542C468.542 514.824 468.263 514.963 468.17 515.041L463.896 516.822C458.414 519.145 452.684 520.383 446.97 520.647C446.443 520.647 445.87 520.724 445.344 520.724C439.134 520.647 432.862 519.361 426.838 516.822L422.193 514.84H422.115L405.793 507.964C396.858 504.216 385.274 503.241 374.558 504.944C368.658 505.858 363.006 507.623 358.205 510.209L349.719 514.716C335.627 522.273 324.09 536.411 317.214 554.623C317.137 554.808 317.028 554.994 316.951 555.227C296.541 609.799 328.829 670.844 382.595 678.912C391.128 680.212 400.017 680.956 409.169 681.095H412.514C423.834 681.095 434.783 680.29 445.22 678.772H445.344C455.812 680.29 466.807 681.095 478.158 681.095H481.503C490.64 680.909 499.56 680.212 508.077 678.912C561.844 670.797 594.162 609.783 573.737 555.227L573.69 555.18H573.737L573.721 555.196Z" fill="#9B52FD"/>
<path d="M493.4 470.937C478.178 474.019 461.375 475.908 442.932 476.605C424.488 475.908 407.748 474.003 392.541 470.937C375.94 467.592 359.293 463.179 343.838 456.179C333.23 451.394 322.917 445.184 314.864 436.636C308.562 429.915 303.947 421.801 301.531 412.943C295.29 389.915 300.462 363.326 304.582 340.252C308.67 317.179 316.119 294.229 331.45 276.281C341.376 264.666 360.238 259.416 378.062 261.6C384.488 263.505 391.984 265.719 397.605 269.405C411.666 278.65 425.015 291.193 442.963 290.512C447.887 290.326 452.533 290.109 457.318 288.654C463.451 286.795 469.118 282.01 474.523 278.665C482.405 274.716 489.064 268.894 497.225 265.487C504.968 262.328 513.206 260.686 521.615 261.399C533.694 262.467 546.486 266.865 554.6 276.342C572.61 297.31 580.57 324.24 583.992 351.232C587.136 376.102 590.419 404.023 577.349 426.787C572.099 435.939 564.573 443.605 555.607 449.149C536.931 460.763 514.833 466.632 493.462 470.937H493.385H493.4Z" fill="#9B52FD"/>
<path d="M591.766 682.738L591.625 682.816V682.691H591.766V682.738Z" fill="#EF8B01"/>
<path d="M595.078 671.108L594.953 671.186V671.077H595.078V671.124V671.108Z" fill="#EF8B01"/>
<path d="M585.094 765.462C582.217 764.933 578.727 764.582 574.831 764.327C547.246 762.638 499.081 767.58 499.081 767.58C499.081 767.58 503.001 727.666 513.03 710.819C514.554 708.219 516.235 706.181 518.094 704.89C529.991 696.751 556.09 709.099 562.968 712.634C564.079 713.18 564.661 713.509 564.661 713.509C564.661 713.509 564.724 713.609 564.917 713.819C568.308 718.193 607.459 769.614 585.162 765.471L585.124 765.445L585.094 765.462Z" fill="#F6AD1E"/>
<path d="M564.839 713.843L562.517 713.493C562.168 713.534 561.825 713.54 561.459 713.55C560.65 713.629 559.828 713.699 559.015 713.756C561.898 719.512 578.554 753.509 574.663 760.573C574.053 761.64 574.182 762.974 574.809 764.352C578.692 764.599 582.203 764.946 585.071 765.487C607.368 769.629 568.208 718.221 564.817 713.847L564.839 713.843Z" fill="#FFCA95"/>
<path d="M369.365 765.72C369.365 765.72 364.137 764.725 356.138 763.404C336.617 760.116 300.576 754.685 283.823 756.346C260.285 758.669 308.642 706.339 308.642 706.339C308.642 706.339 309.737 705.831 311.621 705.111C319.323 702.031 340.187 694.678 352.078 699.508C353.461 700.073 354.678 700.75 355.8 701.677C357.528 703.092 359.008 705.25 360.304 707.998C368.86 725.562 369.391 765.758 369.391 765.758L369.374 765.733L369.365 765.72Z" fill="#F6AD1E"/>
<path d="M360.767 709.071C360.767 709.071 360.879 709.071 360.926 709.058C360.909 709.032 360.892 709.006 360.875 708.981C358.534 709.074 356.198 709.145 353.895 709.157C353.715 709.166 353.526 709.162 353.337 709.157L353.346 709.282C354.862 726.43 357.056 753.928 356.484 763.438C364.474 764.747 369.711 765.698 369.711 765.698C369.711 765.698 369.28 726.292 360.763 709.092L360.767 709.071Z" fill="#FFCA95"/>
<path d="M515.812 401.98C532.397 401.98 545.854 384.496 545.854 362.924C545.854 341.353 532.413 323.869 515.812 323.869C499.211 323.869 485.77 341.353 485.77 362.924C485.77 384.496 499.211 401.98 515.812 401.98Z" fill="white"/>
<path d="M369.816 401.98C386.401 401.98 399.858 384.496 399.858 362.924C399.858 341.353 386.417 323.869 369.816 323.869C353.215 323.869 339.773 341.353 339.773 362.924C339.773 384.496 353.215 401.98 369.816 401.98Z" fill="white"/>
<path d="M419.529 404.345C418 404.345 416.888 406.18 417.321 408.075C419.621 418.978 426.631 427.542 435.046 430.492C443.229 433.347 452.941 432.243 459.456 424.783C463.27 420.405 465.833 414.384 467.207 408.123C467.609 406.24 466.512 404.345 464.999 404.345H419.529Z" fill="#D8872E"/>
<path d="M470.183 414.755C472.041 414.755 473.373 413.083 472.877 411.395C470.942 404.581 464.02 389.869 440.559 389.869C420.985 389.869 414.341 404.581 412.328 411.379C411.817 413.098 413.164 414.771 415.022 414.771L443.145 419.819L470.245 414.771H470.183V414.755Z" fill="#F6AD1E"/>
<path d="M465.983 412.215C467.098 412.664 468.182 412.277 468.182 411.457C468.136 408.158 466.371 400.338 452.139 394.67C440.261 389.962 433.773 394.5 431.419 396.869C430.831 397.457 431.357 398.495 432.488 398.944C445.945 393.261 457.126 397.566 465.968 412.231L465.983 412.215Z" fill="#FFCA95"/>
<path fill-rule="evenodd" clip-rule="evenodd" d="M357.054 354.623C356.419 357.101 356.062 359.796 356.062 362.583C356.062 375.157 363.155 385.347 371.904 385.347C380.654 385.347 387.746 375.142 387.746 362.583C387.746 350.009 380.654 339.819 371.904 339.819H371.301C371.688 341.042 371.904 342.374 371.904 343.752C371.904 350.303 367.166 355.63 361.343 355.63C359.81 355.63 358.354 355.258 357.054 354.592V354.623Z" fill="#36156F"/>
<path fill-rule="evenodd" clip-rule="evenodd" d="M496.922 363.311C496.922 375.901 504.014 386.106 512.764 386.106C521.513 386.106 528.606 375.344 528.606 363.311C528.606 351.279 522.148 341.445 513.941 340.563C514.312 341.786 514.514 343.102 514.514 344.465C514.514 351.031 509.775 356.358 503.952 356.358C501.815 356.358 499.833 355.646 498.161 354.423C497.355 357.133 496.906 360.152 496.906 363.311H496.922Z" fill="#36156F"/>
<path d="M532.189 369.597C523.037 371.92 512.863 374.46 503.649 376.752C488.86 380.422 481.195 396.79 487.838 410.511L499.685 434.963L563.564 414.738L562.015 391.277C561.024 376.318 546.715 365.927 532.189 369.613V369.597Z" fill="#9B52FD"/>
<path d="M352.771 368.754C363.564 371.495 376.17 374.639 387.041 377.333C400.343 380.632 407.219 395.328 401.241 407.67L388.078 434.816L324.199 414.592L325.949 388.22C326.847 374.778 339.701 365.425 352.771 368.754Z" fill="#9B52FD"/>
<g clip-path="url(#clip0_61_1987)">
<path d="M134.955 519.108C134.955 519.108 133.959 488.205 165.434 479.123C196.909 470.042 255.263 492.418 255.263 492.418L421.689 588.217L418.14 602.097L256.745 593.427L242.587 600.244L124.313 536.375L12.1186 469.205L23.0286 459.049C23.0286 459.049 54.3796 476.879 74.7192 483.995C95.0825 491.109 124.783 504.001 134.933 519.134L134.955 519.108Z" fill="#F5F5F5"/>
<path d="M425.71 605.953L285.714 534.895L143.159 524.281C143.159 524.281 136.949 535.032 124.796 533.554L2.40644 463.655L0.647125 468.669L238.17 606.553C246.509 608.376 252.591 605.949 257.404 601.126L425.71 605.953Z" fill="#210A49"/>
<path d="M143.134 507.036C154.728 492.334 174.388 485.785 193.168 485.664C211.947 485.543 230.246 490.966 248.211 496.369L420.327 593.529L419.219 597.827L246.285 501.374C246.285 501.374 208.754 492.686 192.405 492.082C165.012 491.065 143.134 507.036 143.134 507.036Z" fill="#E0E0E0"/>
<path d="M118.839 523.776L36.147 477.829C36.147 477.829 103.07 505.599 118.839 523.776Z" fill="#E0E0E0"/>
</g>
<rect x="729.809" y="420.109" width="6.48209" height="158.219" transform="rotate(-149.85 729.809 420.109)" fill="#36156F"/>
<path d="M693.355 509.009C689.105 516.325 679.729 518.811 672.413 514.561C665.097 510.312 662.611 500.936 666.861 493.619L717.227 406.907C717.822 405.882 719.136 405.534 720.16 406.129L742.944 419.363C743.968 419.958 744.317 421.271 743.721 422.296L693.355 509.009Z" fill="#36156F"/>
<defs>
<clipPath id="clip0_61_1987">
<rect width="412.007" height="180.253" fill="white" transform="matrix(-0.996455 0.0841295 0.0841295 0.996455 410.547 426.333)"/>
</clipPath>
</defs>
</svg>
