<svg width="245" height="76" viewBox="0 0 245 76" fill="none" xmlns="http://www.w3.org/2000/svg">
<g clip-path="url(#clip0_101_2)">
<path d="M235.928 1.51562H8.27818C4.25855 1.51562 1 4.77418 1 8.79381V67.7207C1 71.7404 4.25855 74.9989 8.27818 74.9989H235.928C239.947 74.9989 243.206 71.7404 243.206 67.7207V8.79381C243.206 4.77418 239.947 1.51562 235.928 1.51562Z" stroke="#36156F" stroke-opacity="0.3" stroke-width="2"/>
<path d="M95.2673 34.696L88.2913 58.376H84.5473L79.2353 39.816L73.8913 58.376H70.0833L63.2033 34.696H66.9473L72.0673 53.32L77.4113 34.696H81.1873L86.4673 53.224L91.6833 34.696H95.2673ZM111.938 50.984H101.154C101.218 52.52 101.634 53.7147 102.402 54.568C103.191 55.4853 104.279 55.944 105.666 55.944C107.586 55.944 109.282 55.528 110.754 54.696V57.928C109.047 58.568 107.319 58.888 105.57 58.888C102.818 58.888 100.77 58.0133 99.4255 56.264C98.2522 54.7067 97.6655 52.5307 97.6655 49.736C97.6655 47.048 98.3162 44.8613 99.6175 43.176C100.919 41.4907 102.668 40.648 104.866 40.648C107.319 40.648 109.154 41.5227 110.37 43.272C111.415 44.7653 111.938 46.7387 111.938 49.192V50.984ZM108.45 47.944C108.45 46.7493 108.14 45.7467 107.522 44.936C106.882 44.0827 106.039 43.656 104.994 43.656C103.927 43.656 103.02 44.0933 102.274 44.968C101.527 45.8427 101.154 46.8347 101.154 47.944H108.45ZM123.487 43.336C122.143 43.336 121.098 43.9973 120.351 45.32C119.732 46.4507 119.423 47.8587 119.423 49.544C119.423 51.1867 119.743 52.584 120.383 53.736C121.108 55.0373 122.143 55.688 123.487 55.688C126.239 55.688 127.615 53.6613 127.615 49.608C127.615 45.4267 126.239 43.336 123.487 43.336ZM119.423 32.904V42.312C120.724 40.9467 122.196 40.264 123.839 40.264C126.292 40.264 128.138 41.1707 129.375 42.984C130.484 44.5627 131.039 46.7707 131.039 49.608C131.039 52.36 130.442 54.5573 129.247 56.2C127.924 57.928 126.122 58.792 123.839 58.792C121.898 58.792 120.426 58.1627 119.423 56.904V58.376H116.191V32.904H119.423ZM157.654 49.096L153.782 39.24L149.878 49.096H157.654ZM165.078 58.504H161.366L158.934 52.392H148.566L146.102 58.504H142.422L152.15 34.632H155.638L165.078 58.504ZM171.672 63.08H168.312V41H171.672L171.576 42.952C171.662 42.8453 171.768 42.7173 171.896 42.568C172.024 42.3973 172.174 42.2267 172.344 42.056C173.283 41.1173 174.552 40.648 176.152 40.648C178.499 40.648 180.302 41.4373 181.56 43.016C182.67 44.4667 183.224 46.5147 183.224 49.16C183.224 51.848 182.638 53.9813 181.464 55.56C180.227 57.2453 178.424 58.088 176.056 58.088C174.158 58.088 172.696 57.3947 171.672 56.008V63.08ZM175.768 43.752C174.446 43.752 173.422 44.3067 172.696 45.416C172.014 46.4187 171.672 47.7307 171.672 49.352C171.672 50.9307 172.003 52.2427 172.664 53.288C173.411 54.4187 174.424 54.984 175.704 54.984C178.478 54.984 179.864 53.0747 179.864 49.256C179.864 45.5867 178.499 43.752 175.768 43.752ZM191.079 63.08H187.719V41H191.079L190.983 42.952C191.068 42.8453 191.175 42.7173 191.303 42.568C191.431 42.3973 191.58 42.2267 191.751 42.056C192.689 41.1173 193.959 40.648 195.559 40.648C197.905 40.648 199.708 41.4373 200.967 43.016C202.076 44.4667 202.631 46.5147 202.631 49.16C202.631 51.848 202.044 53.9813 200.871 55.56C199.633 57.2453 197.831 58.088 195.463 58.088C193.564 58.088 192.103 57.3947 191.079 56.008V63.08ZM195.175 43.752C193.852 43.752 192.828 44.3067 192.103 45.416C191.42 46.4187 191.079 47.7307 191.079 49.352C191.079 50.9307 191.409 52.2427 192.071 53.288C192.817 54.4187 193.831 54.984 195.111 54.984C197.884 54.984 199.271 53.0747 199.271 49.256C199.271 45.5867 197.905 43.752 195.175 43.752Z" fill="#36156F"/>
<path d="M64.4359 22.04H65.0119C68.2545 22.04 69.8759 20.5893 69.8759 17.688C69.8759 14.8827 68.4892 13.48 65.7159 13.48H64.4359V22.04ZM62.6919 11.848H65.7159C67.7212 11.848 69.2305 12.4027 70.2439 13.512C71.1505 14.5147 71.6039 15.9227 71.6039 17.736C71.6039 19.784 70.9532 21.3147 69.6519 22.328C68.5105 23.2347 66.9265 23.688 64.8999 23.688H62.6919V11.848ZM77.7089 16.328C76.9835 16.328 76.4075 16.616 75.9809 17.192C75.5755 17.7573 75.3729 18.488 75.3729 19.384C75.3729 20.28 75.5755 21.0107 75.9809 21.576C76.4075 22.152 76.9835 22.44 77.7089 22.44C78.4342 22.44 79.0049 22.152 79.4209 21.576C79.8369 21.0213 80.0449 20.2907 80.0449 19.384C80.0449 18.488 79.8369 17.7573 79.4209 17.192C79.0049 16.616 78.4342 16.328 77.7089 16.328ZM77.7089 14.824C79.0315 14.824 80.0609 15.2987 80.7969 16.248C81.4582 17.0907 81.7889 18.136 81.7889 19.384C81.7889 20.632 81.4582 21.6773 80.7969 22.52C80.0609 23.4693 79.0315 23.944 77.7089 23.944C76.3755 23.944 75.3409 23.4693 74.6049 22.52C73.9542 21.6987 73.6289 20.6533 73.6289 19.384C73.6289 18.1147 73.9542 17.0693 74.6049 16.248C75.3409 15.2987 76.3755 14.824 77.7089 14.824ZM90.82 23.752H89.156V18.392C89.156 17.016 88.6547 16.328 87.652 16.328C86.9693 16.328 86.452 16.6 86.1 17.144C85.812 17.6133 85.668 18.216 85.668 18.952V23.752H84.004V17.24C84.004 16.824 83.9933 16.4347 83.972 16.072C83.9613 15.6987 83.9453 15.3467 83.924 15.016H85.524V15.896C86.0467 15.1813 86.82 14.824 87.844 14.824C89.828 14.824 90.82 15.928 90.82 18.136V23.752ZM97.7551 23.688C97.3498 23.8587 96.8911 23.944 96.3791 23.944C95.3658 23.944 94.7098 23.672 94.4111 23.128C94.1871 22.7653 94.0751 22.0667 94.0751 21.032V16.504H92.6991V14.92H94.0751V13.016L95.8031 12.456V14.92H97.4991V16.504H95.8031V21.48C95.8031 22.0987 96.0858 22.408 96.6511 22.408C97.0245 22.408 97.3498 22.3387 97.6271 22.2L97.7551 23.688ZM101.248 13.272C101.248 13.8053 101.157 14.1893 100.976 14.424C100.709 14.744 100.304 14.9307 99.7596 14.984V14.024C99.9516 14.024 100.106 13.944 100.224 13.784C100.288 13.7093 100.32 13.544 100.32 13.288V13H99.6476V11.256H101.248V13.272ZM111.924 16.2C111.199 16.2 110.66 16.5253 110.308 17.176C110.009 17.7093 109.86 18.4347 109.86 19.352C109.86 21.3893 110.548 22.408 111.924 22.408C112.585 22.408 113.108 22.0773 113.492 21.416C113.801 20.8507 113.956 20.1467 113.956 19.304C113.956 18.4613 113.801 17.7573 113.492 17.192C113.119 16.5307 112.596 16.2 111.924 16.2ZM115.572 23.768H113.956V22.968C113.423 23.6293 112.692 23.96 111.764 23.96C110.601 23.96 109.7 23.528 109.06 22.664C108.463 21.8213 108.164 20.7173 108.164 19.352C108.164 17.944 108.441 16.8347 108.996 16.024C109.604 15.1173 110.527 14.664 111.764 14.664C112.617 14.664 113.348 15.016 113.956 15.72V10.92H115.572V23.768ZM121.787 16.328C121.062 16.328 120.486 16.616 120.059 17.192C119.654 17.7573 119.451 18.488 119.451 19.384C119.451 20.28 119.654 21.0107 120.059 21.576C120.486 22.152 121.062 22.44 121.787 22.44C122.512 22.44 123.083 22.152 123.499 21.576C123.915 21.0213 124.123 20.2907 124.123 19.384C124.123 18.488 123.915 17.7573 123.499 17.192C123.083 16.616 122.512 16.328 121.787 16.328ZM121.787 14.824C123.11 14.824 124.139 15.2987 124.875 16.248C125.536 17.0907 125.867 18.136 125.867 19.384C125.867 20.632 125.536 21.6773 124.875 22.52C124.139 23.4693 123.11 23.944 121.787 23.944C120.454 23.944 119.419 23.4693 118.683 22.52C118.032 21.6987 117.707 20.6533 117.707 19.384C117.707 18.1147 118.032 17.0693 118.683 16.248C119.419 15.2987 120.454 14.824 121.787 14.824ZM140.082 15.032L137.186 23.752H135.458L133.474 17.432L131.426 23.752H129.682L126.85 15.032H128.674L130.61 21.304L132.642 15.032H134.386L136.322 21.304L138.338 15.032H140.082ZM148.633 23.752H146.969V18.392C146.969 17.016 146.467 16.328 145.465 16.328C144.782 16.328 144.265 16.6 143.913 17.144C143.625 17.6133 143.481 18.216 143.481 18.952V23.752H141.817V17.24C141.817 16.824 141.806 16.4347 141.785 16.072C141.774 15.6987 141.758 15.3467 141.737 15.016H143.337V15.896C143.859 15.1813 144.633 14.824 145.657 14.824C147.641 14.824 148.633 15.928 148.633 18.136V23.752ZM152.992 23.688H151.248V10.952H152.992V23.688ZM158.928 16.328C158.202 16.328 157.626 16.616 157.2 17.192C156.794 17.7573 156.592 18.488 156.592 19.384C156.592 20.28 156.794 21.0107 157.2 21.576C157.626 22.152 158.202 22.44 158.928 22.44C159.653 22.44 160.224 22.152 160.64 21.576C161.056 21.0213 161.264 20.2907 161.264 19.384C161.264 18.488 161.056 17.7573 160.64 17.192C160.224 16.616 159.653 16.328 158.928 16.328ZM158.928 14.824C160.25 14.824 161.28 15.2987 162.016 16.248C162.677 17.0907 163.008 18.136 163.008 19.384C163.008 20.632 162.677 21.6773 162.016 22.52C161.28 23.4693 160.25 23.944 158.928 23.944C157.594 23.944 156.56 23.4693 155.824 22.52C155.173 21.6987 154.848 20.6533 154.848 19.384C154.848 18.1147 155.173 17.0693 155.824 16.248C156.56 15.2987 157.594 14.824 158.928 14.824ZM169.703 23.768V22.92C169.18 23.6027 168.428 23.944 167.447 23.944C166.38 23.944 165.591 23.6453 165.079 23.048C164.716 22.6107 164.535 22.0773 164.535 21.448C164.535 19.272 166.135 18.184 169.335 18.184H169.575V17.896C169.575 16.8507 169.089 16.328 168.119 16.328C167.244 16.328 166.38 16.5573 165.527 17.016V15.448C166.337 15.032 167.233 14.824 168.215 14.824C169.239 14.824 169.985 15.064 170.455 15.544C170.956 16.0667 171.207 16.8773 171.207 17.976V21.704C171.207 22.6853 171.239 23.3733 171.303 23.768H169.703ZM169.575 19.672H169.239C168.407 19.672 167.767 19.7467 167.319 19.896C166.604 20.1307 166.247 20.5947 166.247 21.288C166.247 22.056 166.689 22.44 167.575 22.44C168.908 22.44 169.575 21.6293 169.575 20.008V19.672ZM177.19 16.2C176.464 16.2 175.926 16.5253 175.574 17.176C175.275 17.7093 175.126 18.4347 175.126 19.352C175.126 21.3893 175.814 22.408 177.19 22.408C177.851 22.408 178.374 22.0773 178.758 21.416C179.067 20.8507 179.222 20.1467 179.222 19.304C179.222 18.4613 179.067 17.7573 178.758 17.192C178.384 16.5307 177.862 16.2 177.19 16.2ZM180.838 23.768H179.222V22.968C178.688 23.6293 177.958 23.96 177.03 23.96C175.867 23.96 174.966 23.528 174.326 22.664C173.728 21.8213 173.43 20.7173 173.43 19.352C173.43 17.944 173.707 16.8347 174.262 16.024C174.87 15.1173 175.792 14.664 177.03 14.664C177.883 14.664 178.614 15.016 179.222 15.72V10.92H180.838V23.768ZM193.409 23.768V22.888C192.833 23.592 192.076 23.944 191.137 23.944C190.092 23.944 189.297 23.6293 188.753 23C188.273 22.4133 188.033 21.624 188.033 20.632V15.032H189.745V20.312C189.745 21.7307 190.262 22.44 191.297 22.44C191.99 22.44 192.518 22.1787 192.881 21.656C193.169 21.2293 193.313 20.648 193.313 19.912V15.032H195.009V21.56C195.009 22.3493 195.041 23.0853 195.105 23.768H193.409ZM202.056 16.76C201.352 16.4613 200.685 16.312 200.056 16.312C199.171 16.312 198.728 16.6587 198.728 17.352C198.728 17.6613 199.064 17.9813 199.736 18.312C200.707 18.792 201.331 19.144 201.608 19.368C202.269 19.912 202.6 20.584 202.6 21.384C202.6 22.28 202.243 22.9573 201.528 23.416C200.963 23.768 200.285 23.944 199.496 23.944C198.536 23.944 197.704 23.8 197 23.512L197.16 21.864C197.939 22.248 198.701 22.44 199.448 22.44C199.875 22.44 200.227 22.328 200.504 22.104C200.76 21.9013 200.888 21.6347 200.888 21.304C200.888 20.8773 200.563 20.4827 199.912 20.12C199.304 19.7893 198.851 19.5387 198.552 19.368C198.253 19.1973 198.099 19.1067 198.088 19.096C197.437 18.6053 197.112 18.0027 197.112 17.288C197.112 16.4133 197.437 15.7627 198.088 15.336C198.611 14.9947 199.245 14.824 199.992 14.824C200.824 14.824 201.571 14.968 202.232 15.256L202.056 16.76ZM211.109 19.992H205.717C205.749 20.76 205.957 21.3573 206.341 21.784C206.736 22.2427 207.28 22.472 207.973 22.472C208.933 22.472 209.781 22.264 210.517 21.848V23.464C209.664 23.784 208.8 23.944 207.925 23.944C206.549 23.944 205.525 23.5067 204.853 22.632C204.267 21.8533 203.973 20.7653 203.973 19.368C203.973 18.024 204.299 16.9307 204.949 16.088C205.6 15.2453 206.475 14.824 207.573 14.824C208.8 14.824 209.717 15.2613 210.325 16.136C210.848 16.8827 211.109 17.8693 211.109 19.096V19.992ZM209.365 18.472C209.365 17.8747 209.211 17.3733 208.901 16.968C208.581 16.5413 208.16 16.328 207.637 16.328C207.104 16.328 206.651 16.5467 206.277 16.984C205.904 17.4213 205.717 17.9173 205.717 18.472H209.365Z" fill="#36156F"/>
<path d="M21.3222 35.4454L15.3251 26.23C19.0615 21.583 24.6662 19.024 30.3964 19.0005C33.7168 18.9769 37.1078 19.8247 40.1927 21.6065C43.5994 23.5846 46.1898 26.4262 47.8382 29.6916L31.723 28.8439C27.1623 28.577 22.8215 31.1438 21.3222 35.4454ZM23.9047 38.4675C23.9047 42.094 26.8405 45.0298 30.467 45.0298C34.0935 45.0298 37.0293 42.094 37.0293 38.4675C37.0293 34.841 34.0935 31.9052 30.467 31.9052C26.8405 31.9052 23.9047 34.8331 23.9047 38.4675ZM48.6232 31.4656L37.6573 32.0308C40.6323 35.5082 40.6794 40.5241 38.1753 44.3704L29.3759 57.9031C33.026 58.0994 36.786 57.2987 40.1927 55.3206C48.6232 50.4538 52.0377 40.2494 48.6232 31.4656ZM21.4949 42.2039L14.1712 27.7999C12.1696 30.8612 11 34.5348 11 38.4675C11 48.201 18.1274 56.2625 27.4449 57.6912L32.4451 47.8949C27.9237 48.7426 23.5594 46.2622 21.4949 42.2039Z" fill="#36156F"/>
</g>
<defs>
<clipPath id="clip0_101_2">
<rect width="245" height="76" fill="white"/>
</clipPath>
</defs>
</svg>
