<svg width="240" height="71" viewBox="0 0 240 71" fill="none" xmlns="http://www.w3.org/2000/svg">
<g clip-path="url(#clip0_34_3864)">
<path d="M230.451 0H8.86351C3.96833 0 0 3.96833 0 8.86351V62.0446C0 66.9397 3.96833 70.9081 8.86351 70.9081H230.451C235.346 70.9081 239.315 66.9397 239.315 62.0446V8.86351C239.315 3.96833 235.346 0 230.451 0Z" fill="#FDFBFF"/>
<path d="M84.0612 18.1516C84.0903 18.8017 83.9875 19.451 83.759 20.0603C83.5305 20.6696 83.181 21.2264 82.7316 21.697C82.228 22.217 81.6203 22.6247 80.9483 22.8935C80.2762 23.1623 79.5549 23.2862 78.8317 23.257C78.1043 23.2732 77.3813 23.14 76.7074 22.8656C76.0336 22.5912 75.4232 22.1814 74.914 21.6616C73.8811 20.605 73.3027 19.1861 73.3027 17.7085C73.3027 16.2308 73.8811 14.8119 74.914 13.7553C75.7038 12.9836 76.704 12.4626 77.7889 12.2576C78.8739 12.0525 79.9953 12.1728 81.0121 12.6031C81.6514 12.8658 82.2215 13.2722 82.6785 13.7908L81.7389 14.7303C81.3869 14.3062 80.9408 13.9701 80.4362 13.7485C79.9315 13.527 79.3821 13.4261 78.8317 13.454C78.1368 13.4588 77.4537 13.6337 76.8421 13.9635C76.2304 14.2932 75.7089 14.7678 75.323 15.3457C74.9371 15.9235 74.6986 16.5871 74.6284 17.2785C74.5582 17.9698 74.6584 18.6678 74.9202 19.3114C75.182 19.9551 75.5975 20.5248 76.1304 20.9708C76.6632 21.4168 77.2972 21.7255 77.9769 21.87C78.6566 22.0144 79.3614 21.9901 80.0295 21.7993C80.6977 21.6084 81.3089 21.2568 81.8098 20.7752C82.3513 20.1816 82.6653 19.4155 82.6962 18.6125H78.8317V17.3362H83.9903C84.0306 17.6063 84.0543 17.8786 84.0612 18.1516Z" fill="#002C65" stroke="#002C65" stroke-width="0.335395" stroke-miterlimit="10"/>
<path d="M92.1807 13.72H87.3944V17.0881H91.7553V18.3645H87.3944V21.7326H92.1807V23.0444H86.0117V12.4082H92.1807V13.72Z" fill="#002C65" stroke="#002C65" stroke-width="0.335395" stroke-miterlimit="10"/>
<path d="M97.9955 23.0444H96.6305V13.72H93.6523V12.4082H101.045V13.72H97.9955V23.0444Z" fill="#002C65" stroke="#002C65" stroke-width="0.335395" stroke-miterlimit="10"/>
<path d="M106.256 23.0444V12.4082H107.621V23.0444H106.256Z" fill="#002C65" stroke="#002C65" stroke-width="0.335395" stroke-miterlimit="10"/>
<path d="M113.683 23.0444H112.318V13.72H109.34V12.4082H116.643V13.72H113.683V23.0444Z" fill="#002C65" stroke="#002C65" stroke-width="0.335395" stroke-miterlimit="10"/>
<path d="M130.489 21.6615C129.977 22.1739 129.369 22.5804 128.7 22.8578C128.031 23.1351 127.313 23.2779 126.589 23.2779C125.865 23.2779 125.147 23.1351 124.478 22.8578C123.809 22.5804 123.201 22.1739 122.689 21.6615C121.687 20.5962 121.129 19.1887 121.129 17.7261C121.129 16.2635 121.687 14.856 122.689 13.7907C123.19 13.2639 123.796 12.8481 124.468 12.5702C125.14 12.2923 125.862 12.1585 126.589 12.1776C127.315 12.1661 128.035 12.3033 128.706 12.5807C129.377 12.8581 129.983 13.2699 130.489 13.7907C130.999 14.3092 131.399 14.9246 131.667 15.6005C131.935 16.2764 132.065 16.9992 132.049 17.7261C132.072 18.4539 131.946 19.1788 131.677 19.8557C131.409 20.5327 131.005 21.1473 130.489 21.6615ZM123.699 20.7752C124.077 21.1578 124.527 21.4617 125.023 21.6691C125.519 21.8765 126.051 21.9833 126.589 21.9833C127.127 21.9833 127.659 21.8765 128.155 21.6691C128.651 21.4617 129.101 21.1578 129.478 20.7752C130.243 19.944 130.668 18.8557 130.668 17.7261C130.668 16.5965 130.243 15.5082 129.478 14.6771C129.101 14.2944 128.651 13.9905 128.155 13.7831C127.659 13.5757 127.127 13.4689 126.589 13.4689C126.051 13.4689 125.519 13.5757 125.023 13.7831C124.527 13.9905 124.077 14.2944 123.699 14.6771C122.935 15.5082 122.51 16.5965 122.51 17.7261C122.51 18.8557 122.935 19.944 123.699 20.7752Z" fill="#002C65" stroke="#002C65" stroke-width="0.335395" stroke-miterlimit="10"/>
<path d="M133.98 23.0444V12.4082H135.629L140.805 20.6867V18.6304V12.4082H142.17V23.0444H140.752L135.345 14.3759V16.4145V23.0444H133.98Z" fill="#002C65" stroke="#002C65" stroke-width="0.335395" stroke-miterlimit="10"/>
<path d="M120.791 38.5574C119.298 38.5609 117.839 39.0072 116.599 39.8399C115.359 40.6726 114.394 41.8543 113.826 43.2355C113.257 44.6168 113.111 46.1355 113.406 47.5997C113.701 49.0639 114.423 50.4078 115.482 51.4614C116.54 52.5151 117.888 53.2311 119.353 53.5191C120.819 53.807 122.337 53.6539 123.715 53.0791C125.094 52.5043 126.271 51.5336 127.098 50.2898C127.925 49.046 128.364 47.5849 128.361 46.0913C128.375 45.095 128.189 44.1059 127.813 43.183C127.438 42.26 126.88 41.4221 126.174 40.7192C125.468 40.0162 124.627 39.4626 123.702 39.0912C122.778 38.7198 121.788 38.5382 120.791 38.5574ZM120.791 50.6649C119.876 50.7289 118.962 50.5161 118.17 50.054C117.377 49.592 116.741 48.9021 116.346 48.074C115.95 47.2459 115.813 46.318 115.951 45.4109C116.09 44.5037 116.499 43.6593 117.124 42.9874C117.749 42.3155 118.561 41.8471 119.456 41.6432C120.351 41.4393 121.286 41.5093 122.141 41.8441C122.995 42.1789 123.729 42.7629 124.247 43.5204C124.765 44.2779 125.044 45.1737 125.046 46.0913C125.074 46.6728 124.986 47.2541 124.787 47.801C124.587 48.3478 124.28 48.8492 123.883 49.2754C123.487 49.7017 123.009 50.0442 122.478 50.2829C121.947 50.5215 121.373 50.6514 120.791 50.6649ZM104.27 38.5574C102.776 38.5609 101.317 39.0072 100.077 39.8399C98.8374 40.6726 97.8723 41.8543 97.304 43.2355C96.7356 44.6168 96.5896 46.1355 96.8845 47.5997C97.1793 49.0639 97.9017 50.4078 98.9603 51.4614C100.019 52.5151 101.366 53.2311 102.832 53.5191C104.297 53.807 105.815 53.6539 107.194 53.0791C108.572 52.5043 109.75 51.5336 110.576 50.2898C111.403 49.046 111.843 47.5849 111.839 46.0913C111.854 45.095 111.668 44.1059 111.292 43.183C110.916 42.26 110.358 41.4221 109.652 40.7192C108.946 40.0162 108.105 39.4626 107.181 39.0912C106.256 38.7198 105.266 38.5382 104.27 38.5574ZM104.27 50.6649C103.354 50.7289 102.441 50.5161 101.648 50.054C100.855 49.592 100.22 48.9021 99.8239 48.074C99.4284 47.2459 99.291 46.318 99.4298 45.4109C99.5686 44.5037 99.977 43.6593 100.602 42.9874C101.227 42.3155 102.04 41.8471 102.935 41.6432C103.829 41.4393 104.765 41.5093 105.619 41.8441C106.474 42.1789 107.208 42.7629 107.726 43.5204C108.244 44.2779 108.522 45.1737 108.524 46.0913C108.553 46.6728 108.465 47.2541 108.265 47.801C108.065 48.3478 107.758 48.8492 107.362 49.2754C106.965 49.7017 106.487 50.0442 105.956 50.2829C105.425 50.5215 104.852 50.6514 104.27 50.6649ZM84.6283 40.8796V44.0705H92.2864C92.1663 45.5734 91.5416 46.9915 90.5137 48.0945C89.7455 48.8772 88.8216 49.4899 87.8016 49.8929C86.7817 50.296 85.6886 50.4805 84.5929 50.4345C82.3361 50.4345 80.1718 49.538 78.5761 47.9422C76.9804 46.3465 76.0839 44.1822 76.0839 41.9255C76.0839 39.6688 76.9804 37.5045 78.5761 35.9087C80.1718 34.313 82.3361 33.4165 84.5929 33.4165C86.7563 33.3844 88.8454 34.206 90.4073 35.7033L92.6587 33.452C91.6021 32.407 90.3476 31.5834 88.9687 31.0294C87.5898 30.4754 86.1142 30.2021 84.6283 30.2257C83.0524 30.1643 81.4803 30.4218 80.0062 30.9826C78.5321 31.5433 77.1865 32.3959 76.0498 33.4892C74.9131 34.5825 74.0088 35.894 73.3911 37.3452C72.7735 38.7963 72.4551 40.3572 72.4551 41.9344C72.4551 43.5115 72.7735 45.0724 73.3911 46.5235C74.0088 47.9747 74.9131 49.2862 76.0498 50.3795C77.1865 51.4728 78.5321 52.3254 80.0062 52.8862C81.4803 53.4469 83.0524 53.7044 84.6283 53.643C86.1447 53.7036 87.6568 53.4427 89.0652 52.8775C90.4736 52.3123 91.7466 51.4556 92.8005 50.3636C94.662 48.3186 95.6539 45.629 95.5659 42.865C95.5722 42.1998 95.5188 41.5353 95.4063 40.8796H84.6283ZM164.949 43.3614C164.487 42.0013 163.623 40.8136 162.47 39.9558C161.318 39.0979 159.932 38.6102 158.497 38.5574C157.527 38.5555 156.567 38.7525 155.677 39.1362C154.786 39.5199 153.984 40.0822 153.319 40.7884C152.655 41.4945 152.142 42.3294 151.813 43.2415C151.484 44.1536 151.345 45.1236 151.406 46.0913C151.391 47.7096 151.9 49.2893 152.856 50.5945C153.813 51.8997 155.166 52.8604 156.714 53.3331C158.262 53.8058 159.921 53.7651 161.443 53.2171C162.966 52.6691 164.271 51.6432 165.162 50.2926L162.592 48.5199C162.209 49.1586 161.665 49.686 161.015 50.0498C160.365 50.4136 159.632 50.6012 158.887 50.594C158.118 50.6257 157.358 50.4243 156.707 50.0162C156.055 49.608 155.542 49.0123 155.235 48.3072L165.322 44.1414L164.949 43.3614ZM154.668 45.8786C154.632 45.328 154.706 44.7757 154.886 44.2541C155.066 43.7326 155.349 43.2522 155.717 42.8411C156.085 42.4301 156.532 42.0966 157.03 41.8602C157.529 41.6239 158.07 41.4894 158.621 41.4646C159.192 41.4297 159.761 41.5642 160.256 41.8512C160.751 42.1381 161.15 42.5648 161.404 43.0777L154.668 45.8786ZM146.478 53.1821H149.793V31.0234H146.478V53.1821ZM141.053 40.2414H140.929C140.434 39.6775 139.823 39.2271 139.138 38.9211C138.452 38.6152 137.709 38.4609 136.958 38.4687C135.021 38.5627 133.194 39.3984 131.857 40.8026C130.519 42.2069 129.773 44.0721 129.773 46.0116C129.773 47.9511 130.519 49.8162 131.857 51.2205C133.194 52.6248 135.021 53.4605 136.958 53.5544C137.71 53.5695 138.456 53.4184 139.142 53.112C139.828 52.8055 140.439 52.3513 140.929 51.7817H141.053V52.8631C141.053 55.7526 139.511 57.2948 137.029 57.2948C136.2 57.2766 135.395 57.0124 134.717 56.5358C134.038 56.0592 133.517 55.3917 133.218 54.618L130.346 55.8057C130.877 57.1393 131.8 58.2802 132.994 59.0779C134.187 59.8755 135.594 60.2922 137.029 60.273C140.912 60.273 144.12 57.9862 144.12 52.4199V39.0005H141.053V40.2414ZM137.242 50.6649C136.081 50.5925 134.99 50.0801 134.194 49.232C133.397 48.3839 132.953 47.2639 132.953 46.1002C132.953 44.9365 133.397 43.8165 134.194 42.9684C134.99 42.1204 136.081 41.6079 137.242 41.5355C137.81 41.56 138.367 41.6984 138.88 41.9426C139.393 42.1867 139.852 42.5316 140.229 42.9566C140.606 43.3817 140.894 43.8783 141.075 44.4168C141.256 44.9553 141.327 45.5248 141.284 46.0913C141.332 46.6598 141.265 47.2322 141.086 47.7739C140.906 48.3156 140.619 48.8153 140.241 49.2428C139.864 49.6704 139.403 50.0168 138.887 50.2612C138.372 50.5057 137.812 50.643 137.242 50.6649ZM180.478 31.0234H172.537V53.1821H175.852V44.7795H180.478C181.423 44.8474 182.372 44.7199 183.265 44.405C184.158 44.0901 184.977 43.5945 185.671 42.9492C186.364 42.3039 186.917 41.5226 187.295 40.6542C187.673 39.7857 187.868 38.8487 187.868 37.9015C187.868 36.9543 187.673 36.0172 187.295 35.1488C186.917 34.2803 186.364 33.499 185.671 32.8537C184.977 32.2084 184.158 31.7128 183.265 31.3979C182.372 31.083 181.423 30.9555 180.478 31.0234ZM180.478 41.6596H175.852V34.1079H180.549C181.047 34.1079 181.541 34.206 182.001 34.3966C182.461 34.5873 182.879 34.8667 183.232 35.219C183.584 35.5713 183.863 35.9895 184.054 36.4497C184.245 36.91 184.343 37.4033 184.343 37.9015C184.343 38.3996 184.245 38.8929 184.054 39.3532C183.863 39.8135 183.584 40.2317 183.232 40.5839C182.879 40.9362 182.461 41.2156 182.001 41.4063C181.541 41.5969 181.047 41.695 180.549 41.695L180.478 41.6596ZM200.935 38.4865C199.728 38.412 198.526 38.6931 197.476 39.2948C196.427 39.8966 195.577 40.7927 195.032 41.8723L197.957 43.0955C198.253 42.5626 198.696 42.1267 199.234 41.8405C199.772 41.5542 200.381 41.4298 200.988 41.4823C201.409 41.4332 201.836 41.4683 202.243 41.5857C202.65 41.7031 203.029 41.9004 203.359 42.1661C203.69 42.4317 203.963 42.7605 204.165 43.1331C204.367 43.5057 204.492 43.9148 204.534 44.3364V44.5491C203.468 43.9888 202.281 43.6967 201.077 43.6982C197.922 43.6982 194.695 45.4709 194.695 48.6972C194.727 49.383 194.895 50.0555 195.191 50.6747C195.488 51.294 195.905 51.8475 196.42 52.3022C196.934 52.7569 197.534 53.1037 198.185 53.3218C198.836 53.54 199.524 53.6251 200.208 53.5721C201.04 53.6182 201.869 53.4421 202.611 53.0621C203.352 52.682 203.979 52.1117 204.427 51.4094H204.534V53.1821H207.725V44.6555C207.725 40.7732 204.782 38.5219 201.006 38.5219L200.935 38.4865ZM200.528 50.6295C199.446 50.6295 197.939 50.0799 197.939 48.7504C197.939 46.9777 199.818 46.375 201.485 46.375C202.538 46.349 203.579 46.6061 204.498 47.1195C204.387 48.0822 203.931 48.9719 203.214 49.6238C202.496 50.2757 201.567 50.6456 200.598 50.6649L200.528 50.6295ZM219.354 39.0005L215.56 48.6086H215.454L211.518 39.0005H207.973L213.876 52.4376L210.508 59.9007H213.965L223.041 39.0005H219.354ZM189.572 53.1821H192.869V31.0234H189.572V53.1821Z" fill="#002C65"/>
<path d="M18.5068 13.3663C17.9227 14.057 17.6246 14.9448 17.6736 15.8481V55.0602C17.6133 55.965 17.9128 56.8569 18.5068 57.542L18.6309 57.6838L40.5947 35.72V35.1882L18.6309 13.2422L18.5068 13.3663Z" fill="url(#paint0_linear_34_3864)"/>
<path d="M47.8638 43.0415L40.5957 35.7203V35.1884L47.8638 27.8672L48.0233 27.9736L56.7273 32.9017C59.2091 34.3021 59.2091 36.6066 56.7273 38.0248L48.0588 42.9529L47.8638 43.0415Z" fill="url(#paint1_linear_34_3864)"/>
<path d="M48.0765 42.9339L40.5957 35.4531L18.5078 57.541C19.0087 57.9869 19.6499 58.2434 20.3201 58.2661C20.9904 58.2887 21.6474 58.0761 22.1773 57.6651L48.0765 42.9339Z" fill="url(#paint2_linear_34_3864)"/>
<path d="M48.0765 27.9742L22.1773 13.2608C21.6509 12.8441 20.9943 12.6263 20.3232 12.6457C19.652 12.6652 19.0092 12.9206 18.5078 13.3672L40.5957 35.455L48.0765 27.9742Z" fill="url(#paint3_linear_34_3864)"/>
<path opacity="0.2" d="M47.8638 42.7754L22.1773 57.4002C21.6667 57.7856 21.0443 57.994 20.4046 57.994C19.7649 57.994 19.1425 57.7856 18.6319 57.4002L18.5078 57.5243L18.6319 57.6661C19.1425 58.0515 19.7649 58.26 20.4046 58.26C21.0443 58.26 21.6667 58.0515 22.1773 57.6661L48.0765 42.9349L47.8638 42.7754Z" fill="#FDFBFF"/>
<path opacity="0.12" d="M18.507 57.2944C17.9376 56.5913 17.6585 55.6971 17.727 54.7949V55.0608C17.6666 55.9656 17.9661 56.8575 18.5601 57.5426L18.6842 57.4185L18.507 57.2944Z" fill="#FDFBFF"/>
<path opacity="0.12" d="M56.7268 37.7576L47.8633 42.7744L48.0228 42.9339L56.7268 38.0058C57.2406 37.7886 57.6863 37.4368 58.017 36.9876C58.3476 36.5383 58.5511 36.0083 58.6059 35.4531C58.495 35.9576 58.2672 36.4289 57.9408 36.8292C57.6145 37.2295 57.1986 37.5475 56.7268 37.7576Z" fill="#FDFBFF"/>
<path opacity="0.25" d="M22.1765 13.5077L56.7265 33.1493C57.1983 33.3594 57.6141 33.6774 57.9405 34.0777C58.2669 34.478 58.4947 34.9493 58.6055 35.4538C58.5507 34.8987 58.3473 34.3686 58.0166 33.9193C57.6859 33.4701 57.2402 33.1183 56.7265 32.9011L22.1765 13.2596C19.7124 11.8414 17.6738 13.0114 17.6738 15.8477V16.1136C17.727 13.2773 19.7124 12.1073 22.1765 13.5077Z" fill="#002C65"/>
</g>
<defs>
<linearGradient id="paint0_linear_34_3864" x1="38.6447" y1="15.4403" x2="8.89877" y2="45.1863" gradientUnits="userSpaceOnUse">
<stop stop-color="#00A0FF"/>
<stop offset="0.01" stop-color="#00A1FF"/>
<stop offset="0.26" stop-color="#00BEFF"/>
<stop offset="0.51" stop-color="#00D2FF"/>
<stop offset="0.76" stop-color="#00DFFF"/>
<stop offset="1" stop-color="#00E3FF"/>
</linearGradient>
<linearGradient id="paint1_linear_34_3864" x1="59.9713" y1="35.4544" x2="17.0897" y2="35.4544" gradientUnits="userSpaceOnUse">
<stop stop-color="#FFE000"/>
<stop offset="0.41" stop-color="#FFBD00"/>
<stop offset="0.78" stop-color="#FFA500"/>
<stop offset="1" stop-color="#FF9C00"/>
</linearGradient>
<linearGradient id="paint2_linear_34_3864" x1="44.017" y1="39.5303" x2="3.67029" y2="79.8593" gradientUnits="userSpaceOnUse">
<stop stop-color="#FF3A44"/>
<stop offset="1" stop-color="#C31162"/>
</linearGradient>
<linearGradient id="paint3_linear_34_3864" x1="12.9415" y1="0.320082" x2="30.9522" y2="18.3307" gradientUnits="userSpaceOnUse">
<stop stop-color="#32A071"/>
<stop offset="0.07" stop-color="#2DA771"/>
<stop offset="0.48" stop-color="#15CF74"/>
<stop offset="0.8" stop-color="#06E775"/>
<stop offset="1" stop-color="#00F076"/>
</linearGradient>
<clipPath id="clip0_34_3864">
<rect width="239.315" height="70.9081" fill="white"/>
</clipPath>
</defs>
</svg>
