<svg width="34" height="31" viewBox="0 0 34 31" fill="none" xmlns="http://www.w3.org/2000/svg">
<path d="M32 29C32 29.5304 31.7893 30.0391 31.4142 30.4142C31.0391 30.7893 30.5304 31 30 31H2C1.46957 31 0.960859 30.7893 0.585786 30.4142C0.210714 30.0391 0 29.5304 0 29V7C0 6.46957 0.210714 5.96086 0.585786 5.58579C0.960859 5.21071 1.46957 5 2 5H19.958L18.786 7H2V29H30V15.357H32V29Z" fill="#9241FE"/>
<path d="M15 27C12.8783 27 10.8434 26.1571 9.34315 24.6569C7.84285 23.1566 7 21.1217 7 19C7 16.8783 7.84285 14.8434 9.34315 13.3431C10.8434 11.8429 12.8783 11 15 11V19H23C23 21.1217 22.1571 23.1566 20.6569 24.6569C19.1566 26.1571 17.1217 27 15 27ZM21.247 20.4H13.4V12.802C11.8906 13.1905 10.5749 14.1164 9.69967 15.406C8.82444 16.6956 8.44987 18.2602 8.64623 19.8064C8.8426 21.3525 9.59641 22.7738 10.7662 23.8037C11.936 24.8336 13.4414 25.4012 15 25.4C16.4543 25.3999 17.8653 24.9047 19.0007 23.996C20.1361 23.0872 20.9283 21.819 21.247 20.4Z" fill="#9241FE"/>
<path d="M25 17H17V15.345C17.021 15.348 17.043 15.349 17.064 15.351C17.134 15.357 17.201 15.359 17.27 15.357H24.831C24.942 15.887 25 16.437 25 17Z" fill="#9241FE"/>
<path d="M24.854 1.14399L19.134 11.004C19.001 11.1993 18.9246 11.4277 18.9133 11.6638C18.9021 11.8999 18.9564 12.1344 19.0703 12.3415C19.1842 12.5486 19.3532 12.7202 19.5586 12.8371C19.764 12.954 19.9978 13.0118 20.234 13.004H31.684C31.9203 13.0118 32.154 12.954 32.3594 12.8371C32.5648 12.7202 32.7339 12.5486 32.8478 12.3415C32.9617 12.1344 33.016 11.8999 33.0048 11.6638C32.9935 11.4277 32.9171 11.1993 32.784 11.004L27.064 1.14399C26.9512 0.95105 26.7899 0.791006 26.596 0.679784C26.4021 0.568562 26.1825 0.51004 25.959 0.51004C25.7355 0.51004 25.5159 0.568562 25.3221 0.679784C25.1282 0.791006 24.9668 0.95105 24.854 1.14399V1.14399Z" fill="#9241FE"/>
</svg>
