<svg width="57" height="57" viewBox="0 0 57 57" fill="none" xmlns="http://www.w3.org/2000/svg">
<path d="M39.679 49.9638H16.361C8.96917 49.9638 2.95312 43.9478 2.95312 36.5559V14.2173C2.95312 11.186 4.3522 10.1367 5.19165 9.7869C6.0311 9.43713 7.75663 9.18063 9.90189 11.3259L15.9412 17.3652C16.1744 17.5984 16.5475 17.5984 16.7574 17.3652L25.1285 8.99408C26.6675 7.4551 29.3724 7.4551 30.8881 8.99408L39.2592 17.3652C39.4924 17.5984 39.8655 17.5984 40.0754 17.3652L46.1147 11.3259C48.26 9.18063 49.9855 9.46044 50.825 9.7869C51.6644 10.1367 53.0635 11.1627 53.0635 14.2173V36.5793C53.0868 44.5773 47.7004 49.9638 39.679 49.9638ZM6.59073 13.1214C6.52078 13.3079 6.45082 13.6577 6.45082 14.2173V36.5793C6.45082 42.0357 10.9046 46.4894 16.361 46.4894H39.679C45.695 46.4894 49.5891 42.5953 49.5891 36.5793V14.2173C49.5891 13.6577 49.5192 13.3312 49.4492 13.1447C49.2627 13.238 48.9828 13.4245 48.5864 13.8209L42.5471 19.8603C41.0081 21.3993 38.3032 21.3993 36.7875 19.8603L28.4164 11.4891C28.1832 11.2559 27.8101 11.2559 27.6002 11.4891L19.2524 19.8369C17.7134 21.3759 15.0085 21.3759 13.4929 19.8369L7.4535 13.7976C7.05709 13.4012 6.75396 13.2146 6.59073 13.1214Z" fill="#65537D"/>
</svg>
