<svg width="25" height="24" viewBox="0 0 25 24" fill="none" xmlns="http://www.w3.org/2000/svg">
<path d="M12.4898 2.29936C15.6072 2.29936 16.0323 2.29936 17.3077 2.29936C18.4413 2.29936 19.0081 2.58276 19.4332 2.72446C20 3.00787 20.4251 3.14957 20.8502 3.57468C21.2753 3.99978 21.5587 4.42489 21.7004 4.9917C21.8421 5.4168 21.9838 5.98361 22.1255 7.11723C22.1255 8.39255 22.1255 8.67595 22.1255 11.9351C22.1255 15.1942 22.1255 15.4776 22.1255 16.753C22.1255 17.8866 21.8421 18.4534 21.7004 18.8785C21.417 19.4453 21.2753 19.8704 20.8502 20.2955C20.4251 20.7206 20 21.004 19.4332 21.1457C19.0081 21.2874 18.4413 21.4291 17.3077 21.5708C16.0323 21.5708 15.7489 21.5708 12.4898 21.5708C9.23064 21.5708 8.94723 21.5708 7.67192 21.5708C6.5383 21.5708 5.97149 21.2874 5.54639 21.1457C4.97958 20.8623 4.55447 20.7206 4.12937 20.2955C3.70426 19.8704 3.42085 19.4453 3.27915 18.8785C3.13745 18.4534 2.99575 17.8866 2.85405 16.753C2.85405 15.4776 2.85405 15.1942 2.85405 11.9351C2.85405 8.67595 2.85405 8.39255 2.85405 7.11723C2.85405 5.98361 3.13745 5.4168 3.27915 4.9917C3.56256 4.42489 3.70426 3.99978 4.12937 3.57468C4.55447 3.14957 4.97958 2.86617 5.54639 2.72446C5.97149 2.58276 6.5383 2.44106 7.67192 2.29936C8.94723 2.29936 9.37234 2.29936 12.4898 2.29936ZM12.4898 0.173828C9.23064 0.173828 8.94723 0.173828 7.67192 0.173828C6.3966 0.173828 5.54639 0.457233 4.83788 0.740637C4.12937 1.02404 3.42086 1.44915 2.71234 2.15766C2.00383 2.86617 1.72043 3.43298 1.29532 4.28319C1.01192 4.9917 0.870218 5.84191 0.728516 7.11723C0.728516 8.39255 0.728516 8.81765 0.728516 11.9351C0.728516 15.1942 0.728516 15.4776 0.728516 16.753C0.728516 18.0283 1.01192 18.8785 1.29532 19.587C1.57873 20.2955 2.00383 21.004 2.71234 21.7125C3.42086 22.421 3.98766 22.7045 4.83788 23.1296C5.54639 23.413 6.3966 23.5547 7.67192 23.6964C8.94723 23.6964 9.37234 23.6964 12.4898 23.6964C15.6072 23.6964 16.0323 23.6964 17.3077 23.6964C18.583 23.6964 19.4332 23.413 20.1417 23.1296C20.8502 22.8462 21.5587 22.421 22.2672 21.7125C22.9757 21.004 23.2591 20.4372 23.6842 19.587C23.9677 18.8785 24.1093 18.0283 24.2511 16.753C24.2511 15.4776 24.2511 15.0525 24.2511 11.9351C24.2511 8.81765 24.2511 8.39255 24.2511 7.11723C24.2511 5.84191 23.9677 4.9917 23.6842 4.28319C23.4008 3.57468 22.9757 2.86617 22.2672 2.15766C21.5587 1.44915 20.9919 1.16574 20.1417 0.740637C19.4332 0.457233 18.583 0.31553 17.3077 0.173828C16.0323 0.173828 15.7489 0.173828 12.4898 0.173828Z" fill="white"/>
<path d="M12.4898 5.84191C9.08894 5.84191 6.3966 8.53425 6.3966 11.9351C6.3966 15.3359 9.08894 18.0283 12.4898 18.0283C15.8906 18.0283 18.583 15.3359 18.583 11.9351C18.583 8.53425 15.8906 5.84191 12.4898 5.84191ZM12.4898 15.9028C10.3643 15.9028 8.52213 14.2023 8.52213 11.9351C8.52213 9.80957 10.2226 7.96744 12.4898 7.96744C14.6153 7.96744 16.4574 9.66786 16.4574 11.9351C16.4574 14.0606 14.6153 15.9028 12.4898 15.9028Z" fill="white"/>
<path d="M18.7247 7.11723C19.5073 7.11723 20.1417 6.48281 20.1417 5.70021C20.1417 4.91761 19.5073 4.28319 18.7247 4.28319C17.9421 4.28319 17.3077 4.91761 17.3077 5.70021C17.3077 6.48281 17.9421 7.11723 18.7247 7.11723Z" fill="white"/>
</svg>
