<svg width="214" height="71" viewBox="0 0 214 71" fill="none" xmlns="http://www.w3.org/2000/svg">
<g clip-path="url(#clip0_34_3865)">
<path d="M196.407 0.000230451H17.5726C16.9208 0.000230451 16.2767 0.000230451 15.6266 0.00377586C15.0823 0.00732126 14.5424 0.0176207 13.993 0.0262892C12.7993 0.0402967 11.6084 0.145018 10.4307 0.339543C9.25461 0.538303 8.11538 0.913023 7.05152 1.45103C5.98897 1.99358 5.01808 2.69858 4.17408 3.54044C3.32566 4.37993 2.61843 5.35027 2.07959 6.41415C1.53926 7.47591 1.1646 8.61368 0.968539 9.78817C0.770614 10.9612 0.664108 12.1477 0.649979 13.3371C0.633482 13.8806 0.63174 14.4259 0.623047 14.9695V55.9442C0.63174 56.4946 0.633482 57.0279 0.649979 57.5785C0.664113 58.7678 0.770618 59.9543 0.968539 61.1272C1.16406 62.3024 1.53874 63.4408 2.07959 64.503C2.61818 65.5634 3.32551 66.5298 4.17408 67.3647C5.01488 68.2103 5.98639 68.9157 7.05152 69.4542C8.11537 69.9936 9.25447 70.3706 10.4307 70.5724C11.6086 70.7653 12.7994 70.8701 13.993 70.8858C14.5424 70.8979 15.0823 70.9048 15.6266 70.9048C16.2767 70.9083 16.9208 70.9083 17.5726 70.9083H196.407C197.046 70.9083 197.695 70.9083 198.334 70.9048C198.876 70.9048 199.431 70.8979 199.973 70.8858C201.164 70.8709 202.353 70.7662 203.528 70.5724C204.708 70.3691 205.852 69.9923 206.921 69.4542C207.985 68.9154 208.955 68.21 209.795 67.3647C210.642 66.5266 211.351 65.5609 211.896 64.503C212.433 63.4401 212.804 62.3017 212.997 61.1272C213.195 59.9541 213.305 58.7679 213.326 57.5785C213.333 57.0279 213.333 56.4946 213.333 55.9442C213.347 55.3002 213.347 54.6597 213.347 54.0052V16.9049C213.347 16.2558 213.347 15.6118 213.333 14.9695C213.333 14.4259 213.333 13.8806 213.326 13.337C213.305 12.1475 213.195 10.9613 212.997 9.7881C212.803 8.61429 212.432 7.47661 211.896 6.41408C210.799 4.28165 209.059 2.54588 206.921 1.45087C205.852 0.914178 204.708 0.539558 203.528 0.339384C202.353 0.144002 201.164 0.0392437 199.973 0.026041C199.431 0.0173902 198.876 0.00700217 198.334 0.0035454C197.695 0 197.046 0 196.407 0V0.000230451Z" fill="#FDFBFF"/>
<path d="M15.636 69.3566C15.0944 69.3566 14.5659 69.3497 14.0285 69.3377C12.9153 69.3232 11.8047 69.2265 10.7058 69.0485C9.6811 68.8725 8.68847 68.5452 7.76062 68.0773C6.84128 67.6132 6.00277 67.0047 5.27721 66.2751C4.54114 65.5541 3.92833 64.7179 3.46307 63.7996C2.99268 62.8753 2.66714 61.8845 2.49779 60.8618C2.31491 59.763 2.21596 58.6518 2.20181 57.538C2.19054 57.1642 2.17578 55.9194 2.17578 55.9194V14.969C2.17578 14.969 2.1915 13.7433 2.2019 13.3832C2.21545 12.2712 2.31382 11.1618 2.49615 10.0646C2.66581 9.03912 2.99161 8.04551 3.46225 7.11818C3.92581 6.20048 4.53521 5.36362 5.26684 4.64003C5.99765 3.90958 6.83885 3.29796 7.75975 2.8275C8.68547 2.36107 9.67622 2.03603 10.6988 1.86326C11.8013 1.68344 12.9158 1.58623 14.0329 1.57243L15.6369 1.55078H198.326L199.95 1.57329C201.056 1.58641 202.161 1.68276 203.253 1.86152C204.286 2.03646 205.287 2.36377 206.223 2.83269C208.068 3.78082 209.57 5.28083 210.517 7.12251C210.98 8.04344 211.3 9.02894 211.468 10.0456C211.652 11.1517 211.756 12.2698 211.777 13.391C211.782 13.893 211.782 14.4323 211.782 14.969C211.796 15.6337 211.796 16.2665 211.796 16.9044V54.0047C211.796 54.6487 211.796 55.2771 211.782 55.9107C211.782 56.4872 211.782 57.0153 211.775 57.5588C211.754 58.6599 211.653 59.7581 211.471 60.8445C211.305 61.8745 210.982 62.873 210.511 63.8049C210.043 64.7132 209.434 65.5422 208.706 66.2613C207.98 66.9948 207.14 67.6069 206.218 68.0739C205.285 68.5454 204.285 68.874 203.253 69.0485C202.154 69.2275 201.044 69.3242 199.93 69.3377C199.41 69.3497 198.864 69.3566 198.335 69.3566L196.408 69.3602L15.636 69.3566Z" fill="#FDFBFF"/>
<path d="M44.6525 35.9886C44.6716 34.509 45.0658 33.0582 45.7982 31.7713C46.5307 30.4844 47.5776 29.4032 48.8417 28.6282C48.0387 27.4845 46.9793 26.5433 45.7477 25.8794C44.516 25.2154 43.1461 24.8469 41.7467 24.8033C38.7616 24.4908 35.8676 26.5845 34.3464 26.5845C32.7958 26.5845 30.4537 24.8343 27.9317 24.886C26.3003 24.9386 24.7105 25.4117 23.317 26.2591C21.9235 27.1066 20.7739 28.2995 19.9803 29.7217C16.5422 35.6575 19.1067 44.381 22.4 49.1791C24.0478 51.5285 25.9735 54.1529 28.4933 54.0598C30.959 53.9578 31.8799 52.4919 34.8563 52.4919C37.805 52.4919 38.669 54.0598 41.2399 54.0007C43.8858 53.9578 45.5528 51.6408 47.1427 49.2691C48.3266 47.595 49.2376 45.7448 49.842 43.787C48.3048 43.1386 46.993 42.0534 46.0702 40.6667C45.1474 39.2799 44.6543 37.6529 44.6525 35.9886Z" fill="#002C65"/>
<path d="M39.7967 21.6468C41.2394 19.9198 41.9501 17.7001 41.778 15.459C39.574 15.6898 37.5381 16.7403 36.0759 18.401C35.3611 19.2123 34.8135 20.1561 34.4647 21.1786C34.1158 22.201 33.9725 23.282 34.0428 24.3597C35.1452 24.371 36.2358 24.1328 37.2325 23.6628C38.2292 23.1929 39.1059 22.5036 39.7967 21.6468Z" fill="#002C65"/>
<path d="M75.8215 48.1103H67.407L65.3863 54.0603H61.8223L69.7923 32.0469H73.4952L81.4652 54.0603H77.8404L75.8215 48.1103ZM68.2785 45.3647H74.9483L71.6603 35.7083H71.5683L68.2785 45.3647Z" fill="#002C65"/>
<path d="M98.6763 46.0364C98.6763 51.0238 95.9994 54.2282 91.9597 54.2282C90.9363 54.2816 89.9186 54.0465 89.023 53.5499C88.1274 53.0533 87.3902 52.3152 86.8957 51.4202H86.8193V59.3697H83.5156V38.0107H86.7134V40.6802H86.7742C87.2914 39.7894 88.0411 39.0552 88.9435 38.5556C89.8459 38.056 90.8673 37.8096 91.8989 37.8428C95.9837 37.8428 98.6763 41.0628 98.6763 46.0364ZM95.2806 46.0364C95.2806 42.787 93.5967 40.6507 91.0274 40.6507C88.5032 40.6507 86.8054 42.832 86.8054 46.0364C86.8054 49.2702 88.5032 51.4358 91.0274 51.4358C93.5967 51.4358 95.2806 49.3152 95.2806 46.0364Z" fill="#002C65"/>
<path d="M116.391 46.0364C116.391 51.0238 113.714 54.2282 109.674 54.2282C108.651 54.2815 107.633 54.0465 106.738 53.5499C105.842 53.0533 105.105 52.3152 104.611 51.4202H104.534V59.3697H101.23V38.0107H104.428V40.6802H104.489C105.006 39.7894 105.756 39.0552 106.658 38.5556C107.561 38.056 108.582 37.8096 109.614 37.8428C113.699 37.8428 116.391 41.0627 116.391 46.0364ZM112.995 46.0364C112.995 42.787 111.312 40.6507 108.742 40.6507C106.218 40.6507 104.52 42.832 104.52 46.0364C104.52 49.2702 106.218 51.4358 108.742 51.4358C111.312 51.4358 112.995 49.3152 112.995 46.0364H112.995Z" fill="#002C65"/>
<path d="M128.101 47.9267C128.345 50.1097 130.472 51.543 133.378 51.543C136.163 51.543 138.166 50.1096 138.166 48.1412C138.166 46.4326 136.958 45.4095 134.097 44.7084L131.236 44.0211C127.182 43.0447 125.3 41.1543 125.3 38.0867C125.3 34.2885 128.62 31.6797 133.333 31.6797C137.998 31.6797 141.195 34.2885 141.303 38.0867H137.968C137.768 35.8899 135.947 34.5638 133.286 34.5638C130.625 34.5638 128.804 35.9055 128.804 37.8582C128.804 39.4145 129.967 40.3303 132.812 41.0313L135.244 41.6268C139.773 42.695 141.655 44.5093 141.655 47.7292C141.655 51.8476 138.366 54.427 133.133 54.427C128.238 54.427 124.932 51.9082 124.719 47.9265L128.101 47.9267Z" fill="#002C65"/>
<path d="M148.784 34.2129V38.011H151.845V40.6199H148.784V49.4678C148.784 50.8424 149.397 51.4829 150.743 51.4829C151.106 51.4766 151.469 51.4511 151.829 51.4067V53.9999C151.224 54.1126 150.61 54.1637 149.994 54.1523C146.736 54.1523 145.465 52.9318 145.465 49.8192V40.6199H143.125V38.011H145.465V34.2129H148.784Z" fill="#002C65"/>
<path d="M153.617 46.0355C153.617 40.9857 156.6 37.8125 161.25 37.8125C165.917 37.8125 168.885 40.9856 168.885 46.0355C168.885 51.0991 165.932 54.2585 161.25 54.2585C156.57 54.2585 153.617 51.0991 153.617 46.0355ZM165.519 46.0355C165.519 42.5714 163.927 40.5269 161.25 40.5269C158.573 40.5269 156.983 42.587 156.983 46.0355C156.983 49.5134 158.573 51.5423 161.25 51.5423C163.927 51.5423 165.519 49.5134 165.519 46.0355H165.519Z" fill="#002C65"/>
<path d="M171.609 38.0106H174.76V40.7423H174.837C175.05 39.8891 175.551 39.1352 176.256 38.6071C176.961 38.079 177.827 37.8091 178.708 37.8426C179.089 37.8413 179.468 37.8825 179.84 37.9656V41.047C179.359 40.9006 178.858 40.8333 178.356 40.8479C177.876 40.8285 177.397 40.9129 176.953 41.0953C176.509 41.2777 176.11 41.5537 175.782 41.9045C175.455 42.2553 175.208 42.6726 175.058 43.1276C174.908 43.5826 174.859 44.0646 174.913 44.5405V54.0601H171.609L171.609 38.0106Z" fill="#002C65"/>
<path d="M195.071 49.3455C194.627 52.259 191.781 54.2585 188.141 54.2585C183.459 54.2585 180.553 51.1303 180.553 46.1117C180.553 41.0775 183.474 37.8125 188.002 37.8125C192.455 37.8125 195.255 40.8628 195.255 45.7291V46.8578H183.888V47.0569C183.835 47.6475 183.909 48.2426 184.105 48.8025C184.301 49.3623 184.614 49.8743 185.024 50.3042C185.433 50.7342 185.93 51.0724 186.48 51.2963C187.031 51.5202 187.623 51.6247 188.217 51.6029C188.998 51.6758 189.781 51.4955 190.451 51.0888C191.121 50.682 191.641 50.0706 191.934 49.3454L195.071 49.3455ZM183.903 44.5553H191.95C191.979 44.0242 191.899 43.4928 191.713 42.9943C191.526 42.4958 191.239 42.041 190.868 41.6585C190.498 41.276 190.052 40.9741 189.558 40.7716C189.065 40.5691 188.535 40.4705 188.002 40.4819C187.464 40.4787 186.931 40.5818 186.433 40.7852C185.935 40.9886 185.483 41.2883 185.101 41.667C184.72 42.0457 184.418 42.496 184.213 42.9917C184.007 43.4874 183.902 44.0189 183.903 44.5554V44.5553Z" fill="#002C65"/>
<path d="M67.8646 15.4788C68.5572 15.4292 69.2522 15.5336 69.8995 15.7843C70.5467 16.035 71.1302 16.4259 71.6076 16.9286C72.0851 17.4314 72.4447 18.0336 72.6605 18.6918C72.8763 19.3499 72.943 20.0476 72.8556 20.7346C72.8556 24.1138 71.0241 26.0562 67.8646 26.0562H64.0332V15.4788H67.8646ZM65.6807 24.5604H67.6806C68.1755 24.5899 68.6708 24.5089 69.1304 24.3235C69.59 24.138 70.0023 23.8527 70.3374 23.4883C70.6725 23.1239 70.9218 22.6896 71.0674 22.2169C71.2129 21.7443 71.2509 21.2453 71.1786 20.7561C71.2456 20.2689 71.2038 19.773 71.056 19.3038C70.9083 18.8346 70.6583 18.4039 70.324 18.0424C69.9896 17.6809 69.5793 17.3976 69.1223 17.2128C68.6653 17.028 68.1729 16.9463 67.6806 16.9736H65.6807V24.5604Z" fill="#002C65"/>
<path d="M74.7171 22.0616C74.6668 21.537 74.7269 21.0078 74.8937 20.5078C75.0606 20.0077 75.3303 19.548 75.6858 19.158C76.0412 18.7681 76.4745 18.4565 76.9577 18.2433C77.441 18.0301 77.9636 17.9199 78.492 17.9199C79.0205 17.9199 79.5431 18.0301 80.0264 18.2433C80.5096 18.4565 80.9429 18.7681 81.2983 19.158C81.6537 19.548 81.9235 20.0077 82.0903 20.5078C82.2572 21.0078 82.3173 21.537 82.267 22.0616C82.3183 22.5867 82.2588 23.1167 82.0925 23.6176C81.9261 24.1184 81.6565 24.579 81.3009 24.9697C80.9454 25.3604 80.5118 25.6727 80.0281 25.8863C79.5444 26.1 79.0211 26.2104 78.492 26.2104C77.963 26.2104 77.4397 26.1 76.956 25.8863C76.4722 25.6727 76.0387 25.3604 75.6831 24.9697C75.3276 24.579 75.058 24.1184 74.8916 23.6176C74.7253 23.1167 74.6658 22.5867 74.7171 22.0616ZM80.6421 22.0616C80.6421 20.3313 79.8626 19.3195 78.4946 19.3195C77.1215 19.3195 76.349 20.3313 76.349 22.0616C76.349 23.8058 77.1215 24.8098 78.4946 24.8098C79.8626 24.8098 80.6421 23.7988 80.6421 22.0616H80.6421Z" fill="#002C65"/>
<path d="M92.3016 26.0546H90.6628L89.0084 20.1756H88.8834L87.2359 26.0546H85.6127L83.4062 18.0723H85.0086L86.4425 24.1633H86.5606L88.2063 18.0723H89.7219L91.3676 24.1633H91.4926L92.9196 18.0723H94.4994L92.3016 26.0546Z" fill="#002C65"/>
<path d="M96.3555 18.0741H97.8762V19.3421H97.9943C98.1945 18.8867 98.5323 18.5049 98.9605 18.25C99.3887 17.995 99.886 17.8797 100.383 17.92C100.773 17.8908 101.164 17.9493 101.527 18.0913C101.891 18.2333 102.218 18.4551 102.484 18.7402C102.75 19.0253 102.949 19.3665 103.064 19.7385C103.18 20.1104 103.211 20.5036 103.154 20.8889V26.0563H101.574V21.2845C101.574 20.0017 101.015 19.3638 99.8466 19.3638C99.5822 19.3515 99.3182 19.3964 99.0728 19.4953C98.8273 19.5943 98.6063 19.745 98.4247 19.9372C98.2432 20.1293 98.1054 20.3583 98.021 20.6085C97.9365 20.8587 97.9072 21.1241 97.9352 21.3866V26.0564H96.3555L96.3555 18.0741Z" fill="#002C65"/>
<path d="M105.672 14.957H107.252V26.0555H105.672V14.957Z" fill="#002C65"/>
<path d="M109.448 22.0618C109.397 21.5372 109.457 21.0079 109.624 20.5078C109.791 20.0078 110.061 19.548 110.416 19.1581C110.772 18.7681 111.205 18.4565 111.688 18.2433C112.172 18.0301 112.694 17.9199 113.223 17.9199C113.751 17.9199 114.274 18.0301 114.757 18.2433C115.241 18.4565 115.674 18.7681 116.029 19.1581C116.385 19.548 116.655 20.0078 116.822 20.5078C116.988 21.0079 117.049 21.5372 116.998 22.0618C117.05 22.5869 116.99 23.1169 116.824 23.6177C116.657 24.1186 116.387 24.5791 116.032 24.9699C115.676 25.3606 115.243 25.6728 114.759 25.8865C114.275 26.1001 113.752 26.2105 113.223 26.2105C112.694 26.2105 112.171 26.1001 111.687 25.8865C111.203 25.6728 110.769 25.3606 110.414 24.9699C110.058 24.5791 109.789 24.1186 109.622 23.6177C109.456 23.1169 109.396 22.5869 109.448 22.0618ZM115.373 22.0618C115.373 20.3315 114.593 19.3196 113.225 19.3196C111.852 19.3196 111.079 20.3315 111.079 22.0618C111.079 23.8059 111.852 24.81 113.225 24.81C114.593 24.81 115.373 23.799 115.373 22.0618H115.373Z" fill="#002C65"/>
<path d="M118.66 23.7989C118.66 22.362 119.733 21.5337 121.637 21.416L123.806 21.2913V20.6023C123.806 19.7593 123.247 19.2832 122.167 19.2832C121.285 19.2832 120.674 19.6061 120.499 20.1704H118.969C119.131 18.7993 120.424 17.9199 122.24 17.9199C124.247 17.9199 125.379 18.9162 125.379 20.6023V26.0563H123.858V24.9346H123.733C123.479 25.3369 123.123 25.665 122.7 25.8852C122.278 26.1054 121.805 26.2098 121.328 26.1879C120.992 26.2227 120.653 26.187 120.331 26.0829C120.01 25.9789 119.714 25.8088 119.463 25.5837C119.211 25.3586 119.01 25.0835 118.872 24.7761C118.734 24.4687 118.661 24.1358 118.66 23.7989ZM123.806 23.1168V22.4495L121.851 22.5741C120.749 22.6477 120.249 23.0216 120.249 23.7253C120.249 24.4437 120.874 24.8618 121.733 24.8618C121.985 24.8872 122.239 24.8619 122.481 24.7873C122.723 24.7127 122.947 24.5903 123.14 24.4275C123.334 24.2647 123.492 24.0648 123.607 23.8396C123.721 23.6144 123.789 23.3686 123.806 23.1168Z" fill="#002C65"/>
<path d="M127.455 22.0608C127.455 19.5386 128.755 17.9407 130.778 17.9407C131.278 17.9177 131.775 18.0372 132.209 18.2852C132.644 18.5332 132.999 18.8994 133.233 19.3411H133.351V14.957H134.93V26.0555H133.417V24.7943H133.292C133.04 25.233 132.673 25.5947 132.229 25.8402C131.786 26.0857 131.284 26.2056 130.778 26.187C128.741 26.1871 127.455 24.5892 127.455 22.0608ZM129.087 22.0608C129.087 23.7539 129.887 24.7727 131.226 24.7727C132.557 24.7727 133.38 23.7392 133.38 22.0678C133.38 20.4041 132.549 19.3559 131.226 19.3559C129.896 19.3559 129.087 20.3816 129.087 22.0608H129.087Z" fill="#002C65"/>
<path d="M141.467 22.0616C141.417 21.537 141.477 21.0078 141.644 20.5078C141.811 20.0077 142.08 19.548 142.436 19.158C142.791 18.7681 143.224 18.4565 143.708 18.2433C144.191 18.0301 144.714 17.9199 145.242 17.9199C145.77 17.9199 146.293 18.0301 146.776 18.2433C147.26 18.4565 147.693 18.7681 148.048 19.158C148.404 19.548 148.673 20.0077 148.84 20.5078C149.007 21.0078 149.067 21.537 149.017 22.0616C149.068 22.5867 149.009 23.1167 148.842 23.6176C148.676 24.1184 148.406 24.579 148.051 24.9697C147.695 25.3604 147.262 25.6727 146.778 25.8863C146.294 26.1 145.771 26.2104 145.242 26.2104C144.713 26.2104 144.19 26.1 143.706 25.8863C143.222 25.6727 142.789 25.3604 142.433 24.9697C142.078 24.579 141.808 24.1184 141.642 23.6176C141.475 23.1167 141.416 22.5867 141.467 22.0616ZM147.392 22.0616C147.392 20.3313 146.613 19.3195 145.245 19.3195C143.871 19.3195 143.099 20.3313 143.099 22.0616C143.099 23.8058 143.872 24.8098 145.245 24.8098C146.613 24.8098 147.392 23.7988 147.392 22.0616Z" fill="#002C65"/>
<path d="M151.137 18.0741H152.657V19.3421H152.776C152.976 18.8867 153.314 18.5049 153.742 18.25C154.17 17.995 154.667 17.8797 155.164 17.92C155.554 17.8908 155.945 17.9493 156.309 18.0913C156.672 18.2333 156.999 18.4551 157.265 18.7402C157.531 19.0253 157.73 19.3665 157.846 19.7385C157.962 20.1104 157.992 20.5036 157.935 20.8889V26.0563H156.355V21.2845C156.355 20.0017 155.796 19.3638 154.628 19.3638C154.363 19.3515 154.099 19.3964 153.854 19.4953C153.609 19.5943 153.388 19.745 153.206 19.9372C153.024 20.1293 152.887 20.3583 152.802 20.6085C152.718 20.8587 152.688 21.1241 152.716 21.3866V26.0564H151.137V18.0741Z" fill="#002C65"/>
<path d="M166.862 16.0859V18.1097H168.596V19.4366H166.862V23.5412C166.862 24.3773 167.208 24.7434 167.994 24.7434C168.195 24.7428 168.396 24.7307 168.596 24.7071V26.0193C168.313 26.0699 168.025 26.0968 167.737 26.0998C165.98 26.0998 165.281 25.4835 165.281 23.9445V19.4365H164.01V18.1096H165.281V16.0859H166.862Z" fill="#002C65"/>
<path d="M170.754 14.957H172.32V19.3559H172.445C172.655 18.8962 173.002 18.5123 173.439 18.2564C173.875 18.0005 174.381 17.8851 174.886 17.926C175.273 17.9049 175.66 17.9695 176.02 18.1149C176.38 18.2603 176.702 18.4831 176.966 18.7673C177.229 19.0516 177.426 19.3902 177.543 19.7592C177.66 20.1282 177.694 20.5183 177.642 20.9018V26.0555H176.061V21.2905C176.061 20.0155 175.465 19.3697 174.349 19.3697C174.078 19.3475 173.805 19.3847 173.549 19.4788C173.293 19.5728 173.062 19.7214 172.87 19.9142C172.678 20.107 172.53 20.3392 172.438 20.5947C172.345 20.8502 172.31 21.1228 172.334 21.3934V26.0554H170.754L170.754 14.957Z" fill="#002C65"/>
<path d="M186.853 23.9012C186.638 24.6307 186.173 25.2618 185.539 25.6839C184.905 26.1061 184.142 26.2925 183.384 26.2105C182.857 26.2244 182.333 26.1237 181.848 25.9153C181.364 25.707 180.931 25.396 180.579 25.004C180.227 24.612 179.965 24.1484 179.811 23.6452C179.657 23.1421 179.614 22.6115 179.686 22.0904C179.616 21.5677 179.659 21.036 179.813 20.5313C179.967 20.0267 180.228 19.5609 180.578 19.1654C180.928 18.77 181.359 18.4542 181.842 18.2393C182.325 18.0244 182.848 17.9156 183.377 17.9201C185.605 17.9201 186.948 19.4375 186.948 21.9441V22.4938H181.296V22.5821C181.271 22.875 181.308 23.1699 181.404 23.4477C181.5 23.7256 181.654 23.9803 181.854 24.1957C182.055 24.411 182.299 24.5821 182.57 24.698C182.841 24.8139 183.133 24.8721 183.428 24.8688C183.805 24.9141 184.188 24.8462 184.527 24.6739C184.867 24.5016 185.147 24.2326 185.332 23.9011L186.853 23.9012ZM181.296 21.3287H185.339C185.359 21.0608 185.322 20.7917 185.232 20.5387C185.141 20.2857 184.998 20.0544 184.813 19.8597C184.627 19.6649 184.403 19.511 184.154 19.4079C183.905 19.3048 183.638 19.2547 183.369 19.2608C183.095 19.2574 182.824 19.3086 182.571 19.4113C182.318 19.514 182.088 19.6662 181.895 19.8589C181.702 20.0516 181.549 20.281 181.446 20.5334C181.343 20.7858 181.292 21.0562 181.296 21.3287H181.296Z" fill="#002C65"/>
</g>
<defs>
<clipPath id="clip0_34_3865">
<rect width="212.724" height="70.9081" fill="white" transform="translate(0.623047)"/>
</clipPath>
</defs>
</svg>
