<svg width="246" height="243" viewBox="0 0 246 243" fill="none" xmlns="http://www.w3.org/2000/svg">
<g clip-path="url(#clip0_346_1610)">
<path d="M154.437 209.436C153.52 209.436 152.429 209.524 151.215 209.672C142.632 210.729 128.069 214.998 128.069 214.998C128.069 214.998 126.995 202.478 129.116 196.724C129.439 195.833 129.841 195.108 130.339 194.611C133.543 191.415 142.283 193.746 144.597 194.436C144.964 194.541 145.165 194.611 145.165 194.611C145.165 194.611 145.191 194.637 145.252 194.689C146.544 195.842 161.536 209.436 154.437 209.436Z" fill="#FF8E06"/>
<path d="M119.373 214.998C119.373 214.998 117.775 214.527 115.321 213.863C109.34 212.239 98.269 209.437 93.0041 209.437C85.5912 209.437 102.277 194.611 102.277 194.611C102.277 194.611 102.635 194.489 103.237 194.323C105.734 193.607 112.466 191.956 116.02 193.825C116.43 194.043 116.788 194.296 117.102 194.611C117.591 195.108 117.993 195.824 118.316 196.715C120.446 202.46 119.373 214.998 119.373 214.998Z" fill="#FF8E06"/>
<path d="M198.251 174.084C194.732 175.227 190.262 176.197 184.918 176.458C184.002 176.502 183.067 176.528 182.098 176.528C165.387 176.528 171.106 176.144 171.106 176.144L159.903 124.734L160.663 125.424L160.672 125.433C160.68 125.442 160.68 125.442 160.689 125.45L201.508 162.227C205 166.199 203.289 172.451 198.251 174.084Z" fill="#9241FE"/>
<path d="M88.8739 123.25L44.8333 162.218C41.3408 166.19 43.0522 172.442 48.0901 174.075C52.22 175.411 57.6334 176.52 64.2517 176.52C80.9546 176.52 77.043 176.52 77.043 176.52L88.8739 123.25Z" fill="#9241FE"/>
<path d="M171.734 170.661V171.028C171.734 172.643 171.489 174.206 171.009 175.716C170.966 175.865 170.922 176.013 170.87 176.162C170.843 176.24 170.817 176.31 170.791 176.38C169.796 179.139 168.041 181.689 165.648 183.994C165.631 184.002 165.613 184.02 165.596 184.037C160.794 188.639 153.451 192.236 144.597 194.436C144.161 194.55 143.724 194.655 143.279 194.759C138.869 195.772 134.111 196.444 129.117 196.724C127.754 196.802 126.375 196.855 124.987 196.872C124.524 196.881 124.061 196.881 123.59 196.881C123.048 196.881 122.507 196.872 121.974 196.864C120.743 196.846 119.521 196.794 118.316 196.715C117.539 196.672 116.771 196.61 116.002 196.541C111.506 196.139 107.219 195.379 103.237 194.323C94.0867 191.895 86.4992 187.879 81.5835 182.902C81.0159 182.335 80.4833 181.776 79.9769 181.217C78.5625 179.663 77.3925 178.144 76.5543 176.528C75.6113 174.739 75.0874 172.844 75.0874 170.652C75.0874 160.716 76.563 151.409 79.1998 143.053C80.169 140.014 81.2866 137.098 82.5439 134.33C83.8973 131.362 85.4078 128.559 87.058 125.939C87.643 125.023 88.2454 124.132 88.8654 123.259L88.8741 123.25C90.9347 120.325 93.1961 117.68 95.6234 115.34C96.968 114.021 98.365 112.808 99.8144 111.69C106.861 106.259 114.981 103.203 123.59 103.203H123.651C124.306 103.203 124.96 103.221 125.607 103.273C125.676 103.264 125.746 103.273 125.816 103.282C135.159 103.858 143.803 108.119 151.006 115.017C154.21 118.081 157.127 121.661 159.694 125.669C159.912 126.009 160.121 126.35 160.331 126.69C161.318 128.288 162.243 129.956 163.116 131.676C163.204 131.842 163.282 132.008 163.369 132.174C164.024 133.492 164.644 134.871 165.229 136.295C169.324 146.275 171.69 158.647 171.734 170.661Z" fill="#9241FE"/>
<g opacity="0.3">
<g opacity="0.3">
<g opacity="0.3">
<g opacity="0.3">
<path opacity="0.3" d="M179.557 167.946C179.549 167.823 179.54 167.692 179.531 167.57C179.531 167.561 179.531 167.561 179.531 167.553C179.54 167.684 179.549 167.806 179.557 167.946Z" fill="#4B4B4B"/>
</g>
</g>
</g>
</g>
<path d="M153.748 163.606V163.65C153.66 168.094 151.678 172.119 148.299 175.533L148.264 175.568C142.938 180.92 134.12 184.745 123.651 186.299C120.255 186.797 116.692 187.058 113.008 187.058C112.641 187.058 112.283 187.058 111.916 187.05C108.948 187.006 106.066 186.762 103.298 186.342C85.862 183.723 75.3757 163.912 82.0028 146.214C82.029 146.144 82.0639 146.074 82.0814 146.013C84.3078 140.11 88.0448 135.518 92.62 133.073L95.3791 131.606C96.9333 130.777 98.7668 130.2 100.688 129.903C104.163 129.345 107.926 129.668 110.816 130.881L116.107 133.108C116.116 133.108 116.116 133.117 116.133 133.117L117.644 133.754C119.6 134.583 121.634 135.003 123.651 135.029C124.175 135.029 124.699 135.003 125.223 134.959C127.266 134.767 129.274 134.129 131.177 133.117L131.204 133.108L136.495 130.881C139.393 129.668 143.148 129.345 146.623 129.903C151.093 139.281 153.704 151.636 153.748 163.606Z" fill="#A369FF"/>
<path d="M144.004 186.351C141.236 186.77 138.346 187.006 135.386 187.059C135.019 187.067 134.661 187.067 134.294 187.067C130.618 187.067 127.047 186.805 123.651 186.308C113.182 184.753 104.364 180.92 99.0374 175.577L99.0025 175.542C95.6148 172.137 93.6415 168.103 93.5542 163.659V163.615C93.5979 151.644 96.2085 139.29 100.688 129.912C104.163 129.353 107.926 129.677 110.816 130.89L116.107 133.117C116.116 133.117 116.116 133.125 116.133 133.125C118.028 134.138 120.036 134.776 122.088 134.968C122.612 135.011 123.136 135.038 123.66 135.038C125.685 135.011 127.711 134.592 129.667 133.763L131.177 133.125L131.203 133.117L136.495 130.89C139.393 129.677 143.148 129.353 146.623 129.912C148.544 130.209 150.369 130.785 151.932 131.615L154.691 133.082C159.266 135.526 163.003 140.11 165.229 146.021C165.256 146.091 165.29 146.161 165.308 146.222C171.917 163.921 161.44 183.723 144.004 186.351Z" fill="#A369FF"/>
<path d="M149.269 47.3402C149.583 47.1306 160.506 34.7846 162.697 32.1215C165.972 28.1488 170.782 30.6197 168.669 41.4989C168.669 41.4989 173.69 36.1205 175.672 39.5955C178.614 44.7644 170.852 45.2708 177.113 70.2685L149.269 47.3402Z" fill="#9241FE"/>
<path d="M177.121 68.7845L176.72 68.4527C176.362 66.5929 176.091 64.9078 175.899 63.3711C176.231 65.0388 176.632 66.8374 177.121 68.7845Z" fill="#7F7F7F"/>
<path d="M67.5958 70.2599C73.8562 45.2622 67.1593 44.7558 70.1017 39.5869C72.0837 36.1118 77.1042 41.4903 77.1042 41.4903C75 30.6111 79.6276 28.3061 83.0851 32.1216C89.1359 38.8098 98.3038 43.9263 98.6181 44.1359C98.6181 44.1359 117.609 40.8092 119.975 40.7569C121.835 40.7219 164.854 35.4395 176.728 67.0991L177.575 69.7884C181.862 83.6013 184.097 94.8122 183.914 101.841C183.931 102.173 183.94 102.496 183.94 102.828C183.94 106.032 183.233 109.481 181.539 113.13C176.056 124.071 150.246 128.829 134.661 128.829H114.797C107.009 128.829 63.3175 128.829 62.1737 103.447C61.8594 96.4363 64.0335 83.9767 67.2204 71.6831L67.5958 70.2599Z" fill="#9241FE"/>
<path d="M183.932 102.426C183.932 103.168 183.897 103.919 183.809 104.678C183.652 97.6847 181.469 87.2421 177.54 74.5992L176.702 71.9361C171.429 44.939 132.731 44.843 120.621 45.8994C118.29 46.1003 99.5177 49.2348 99.5177 49.2348C99.2033 49.034 90.1403 43.9698 84.1593 37.369C80.7454 33.5971 77.3402 34.7321 79.4182 45.4803C79.4182 45.4803 72.2586 40.9051 71.3331 44.7469C69.8924 50.7104 67.1683 44.3453 70.1107 39.1851C72.0927 35.71 77.1132 41.0885 77.1132 41.0885C75.0002 30.2093 79.6278 27.8955 83.0854 31.7111C89.1449 38.3993 98.304 43.5158 98.6271 43.7254C98.6271 43.7254 117.618 40.39 119.984 40.3463C121.844 40.3114 164.863 35.029 176.728 66.6886L177.575 69.3779C181.862 83.1907 184.098 94.4017 183.914 101.43C183.932 101.762 183.932 102.094 183.932 102.426Z" fill="#A670FC"/>
<g opacity="0.3">
<g opacity="0.3">
<g opacity="0.3">
<g opacity="0.3">
<path opacity="0.3" d="M130.68 90.9354C130.645 91.2585 130.601 91.5903 130.558 91.9308C128.899 103.622 119.469 111.436 109.62 112.606C102.312 113.471 87.6869 110.563 83.2602 94.847C81.6623 89.1892 81.5663 83.3479 83.1641 80.2134C85.9407 74.7564 94.1481 73.1236 97.7803 72.495C98.1557 72.4338 98.5661 72.3727 98.9939 72.3203C106.485 71.4559 120.988 73.0887 125.947 77.4631C125.947 77.4631 131.85 80.161 130.68 90.9354Z" fill="#4B4B4B"/>
</g>
</g>
</g>
</g>
<path d="M138.686 118.422C133.919 119.382 128.654 119.976 122.883 120.194C117.111 119.976 111.855 119.382 107.097 118.422C72.5556 111.41 76.2576 96.0433 80.5971 77.3583C80.6233 77.2885 80.6407 77.1924 80.6582 77.1226C81.0686 75.3327 79.4707 67.3872 87.9575 57.4597C91.0659 53.8188 96.9857 52.1773 102.565 52.8583C105.717 53.7926 108.808 55.207 111.663 56.9096C112.091 57.2764 112.519 57.678 112.946 58.0971C115.671 60.7776 119.277 62.0524 122.891 61.9127C126.506 62.0436 130.112 60.7689 132.854 58.0971C133.282 57.6867 133.709 57.2851 134.137 56.9096C136.992 55.207 140.083 53.7838 143.235 52.8583C148.815 52.1773 154.717 53.8188 157.843 57.4597C166.321 67.3872 164.706 75.3327 165.142 77.1226C165.16 77.1924 165.168 77.2885 165.186 77.3583C169.525 96.052 173.219 111.41 138.686 118.422Z" fill="#A369FF"/>
<path d="M169.481 186.299L169.438 186.325C169.438 186.325 169.438 186.316 169.438 186.29L169.481 186.299Z" fill="#EF8B01"/>
<path d="M170.503 182.658L170.468 182.684C170.468 182.684 170.468 182.675 170.468 182.649L170.503 182.658Z" fill="#EF8B01"/>
<path d="M99.5699 99.2476C104.165 99.2476 107.891 93.9156 107.891 87.3382C107.891 80.7608 104.165 75.4287 99.5699 75.4287C94.9744 75.4287 91.249 80.7608 91.249 87.3382C91.249 93.9156 94.9744 99.2476 99.5699 99.2476Z" fill="white"/>
<path d="M99.9416 96.6115C102.119 96.6115 103.883 93.241 103.883 89.0833C103.883 84.9256 102.119 81.5552 99.9416 81.5552C97.7647 81.5552 96 84.9256 96 89.0833C96 93.241 97.7647 96.6115 99.9416 96.6115Z" fill="#4B4B4B"/>
<path d="M148.631 99.2476C153.226 99.2476 156.952 93.9156 156.952 87.3382C156.952 80.7608 153.226 75.4287 148.631 75.4287C144.035 75.4287 140.31 80.7608 140.31 87.3382C140.31 93.9156 144.035 99.2476 148.631 99.2476Z" fill="white"/>
<path d="M134.896 94.5241C134.94 96.3838 133.945 99.1342 125.17 99.5096C123.31 99.5882 120.324 99.1691 119.398 98.75C116.91 97.615 115.626 96.4275 115.845 94.5241C115.967 93.4938 116.954 92.2801 117.818 91.8436C119.992 90.7522 119.73 90.7522 120.525 89.6433C122.114 87.443 123.275 87.0763 124.628 86.7707C129.273 85.7055 134.835 91.9658 134.896 94.5241Z" fill="#FF8E06"/>
<g opacity="0.3">
<g opacity="0.3">
<g opacity="0.3">
<g opacity="0.3">
<path opacity="0.3" d="M125.17 99.501C123.31 99.597 120.324 99.1168 119.399 98.6366C116.91 97.3444 115.627 95.991 115.854 93.8257C115.889 93.4939 115.994 93.1446 116.142 92.8041C116.648 93.9304 117.766 94.8036 119.399 95.6592C120.316 96.1394 123.31 96.6109 125.17 96.5236C131.754 96.2093 133.954 94.367 134.626 92.5684C134.792 93.0398 134.888 93.4589 134.897 93.8169C134.94 95.9474 133.945 99.0819 125.17 99.501Z" fill="#4B4B4B"/>
</g>
</g>
</g>
</g>
<g opacity="0.35">
<g opacity="0.35">
<g opacity="0.35">
<g opacity="0.35">
<path opacity="0.35" d="M133.753 97.2399V97.1352C133.691 94.5769 127.938 87.6879 123.502 89.3818C122.524 89.7572 121.991 90.9272 121.328 91.9401C120.586 93.0838 117.713 93.3283 116.962 94.7603C116.814 95.0397 116.107 94.8214 115.836 95.092C115.827 94.9087 115.836 94.7166 115.853 94.5158C115.976 93.4855 116.962 92.2718 117.827 91.844C120.001 90.7526 119.739 90.7526 120.533 89.6437C122.122 87.4434 123.284 87.0767 124.637 86.7624C129.265 85.6972 134.835 91.9575 134.888 94.5158C134.914 95.3452 134.73 96.3493 133.753 97.2399Z" fill="white"/>
</g>
</g>
</g>
</g>
<path d="M131.526 87.7663C130.863 87.2511 130.19 86.8058 129.518 86.4653C127.728 85.5398 125.956 85.2429 124.375 85.6009C122.812 85.9676 121.363 86.4653 119.573 88.945C119.433 89.1284 119.329 89.2855 119.241 89.4165C118.892 89.9316 118.848 89.9928 117.294 90.7698C116.142 91.3548 114.841 92.8654 114.666 94.3846C114.605 94.9609 114.64 95.4847 114.762 95.9562C115.269 97.912 117.181 99.0471 118.91 99.8416C120.027 100.357 122.865 100.715 124.725 100.715C124.899 100.715 125.065 100.706 125.231 100.697C125.615 100.68 125.982 100.662 126.331 100.636C132.033 100.243 135.193 98.7066 135.936 95.9737V95.965C136.049 95.5546 136.11 95.1006 136.11 94.6378V94.4981C136.049 92.3677 133.761 89.5038 131.526 87.7663ZM117.041 94.6553C117.041 94.6378 117.041 94.6291 117.05 94.6116C117.067 94.4894 117.111 94.3409 117.198 94.2012C117.382 93.7996 117.731 93.363 118.089 93.1011C118.098 93.0836 118.106 93.0836 118.115 93.0836C118.194 93.0138 118.29 92.9527 118.368 92.909C118.412 92.8915 118.438 92.8654 118.473 92.8479C118.482 92.8479 118.482 92.8392 118.49 92.8392C120.324 91.9224 120.621 91.643 121.223 90.7611C121.302 90.6389 121.398 90.4992 121.511 90.342C122.856 88.4822 123.755 88.2116 124.768 87.9671C124.786 87.9671 124.803 87.9671 124.812 87.9584C124.856 87.9496 124.882 87.9409 124.925 87.9322C125.196 87.8711 125.467 87.8449 125.746 87.8449C126.2 87.8449 126.663 87.9147 127.1 88.0544C127.117 88.0544 127.143 88.0631 127.161 88.0719C128.112 88.36 128.985 88.8752 129.632 89.3379C129.789 89.4514 129.928 89.5562 130.059 89.6522C131.168 90.5166 132.076 91.5295 132.714 92.4201C133.168 93.0574 133.473 93.6512 133.613 94.0877C133.674 94.2624 133.7 94.4195 133.7 94.5418C133.709 94.9871 133.604 95.4062 133.386 95.7641C132.67 96.9603 130.758 97.7374 127.667 98.1041H127.658C126.89 98.1914 126.052 98.2613 125.126 98.2962C123.345 98.3661 120.569 97.947 119.905 97.6501C117.093 96.3666 116.954 95.4673 117.041 94.6553Z" fill="#4B4B4B"/>
<path d="M148.028 96.6111C150.221 96.6111 152 93.2146 152 89.0248C152 84.835 150.221 81.4385 148.028 81.4385C145.834 81.4385 144.056 84.835 144.056 89.0248C144.056 93.2146 145.834 96.6111 148.028 96.6111Z" fill="#4B4B4B"/>
<path d="M154.437 209.437C153.521 209.437 152.429 209.524 151.216 209.672C150.936 209.279 150.831 208.887 150.954 208.511C151.827 205.892 143.279 194.759 143.279 194.759L145.252 194.689C146.544 195.842 161.536 209.437 154.437 209.437Z" fill="#FFAB57"/>
<path d="M118.316 196.715C120.447 202.46 119.373 214.999 119.373 214.999C119.373 214.999 117.775 214.527 115.321 213.864C115.793 210.86 115.95 202.041 116.002 196.541V196.488C117.487 196.593 119.678 196.733 121.896 196.811L121.975 196.864C120.743 196.846 119.521 196.794 118.316 196.715Z" fill="#FFAB57"/>
</g>
<defs>
<clipPath id="clip0_346_1610">
<rect width="160.35" height="184.998" fill="white" transform="translate(43 30)"/>
</clipPath>
</defs>
</svg>
