<svg width="64" height="64" viewBox="0 0 64 64" fill="none" xmlns="http://www.w3.org/2000/svg">
<path d="M42.3363 60.1966H21.1682C13.1772 60.1966 8.59961 55.619 8.59961 47.628V21.8293C8.59961 13.4944 12.8332 9.26074 21.1682 9.26074C22.2531 9.26074 23.1527 10.1604 23.1527 11.2453C23.1527 12.3037 23.5761 13.3091 24.317 14.05C25.0578 14.7909 26.0633 15.2143 27.1217 15.2143H36.3828C38.579 15.2143 40.3518 13.4414 40.3518 11.2453C40.3518 10.1604 41.2515 9.26074 42.3363 9.26074C50.6713 9.26074 54.9049 13.4944 54.9049 21.8293V47.628C54.9049 55.619 50.3273 60.1966 42.3363 60.1966ZM19.4482 13.2827C15.2675 13.6267 12.5686 15.5053 12.5686 21.8293V47.628C12.5686 53.5022 15.294 56.2276 21.1682 56.2276H42.3363C48.2105 56.2276 50.9359 53.5022 50.9359 47.628V21.8293C50.9359 15.5053 48.237 13.6531 44.0563 13.2827C43.1567 16.6696 40.0608 19.1833 36.3828 19.1833H27.1217C25.0049 19.1833 23.0204 18.363 21.5122 16.8548C20.5067 15.8493 19.8187 14.6322 19.4482 13.2827Z" fill="#9241FE"/>
<path d="M36.3827 19.1837H27.1216C25.0048 19.1837 23.0203 18.3634 21.5121 16.8552C20.0039 15.347 19.1836 13.3625 19.1836 11.2457C19.1836 6.87974 22.7557 3.30762 27.1216 3.30762H36.3827C38.4995 3.30762 40.484 4.1279 41.9923 5.63613C43.5005 7.14436 44.3208 9.12886 44.3208 11.2457C44.3208 15.6116 40.7486 19.1837 36.3827 19.1837ZM27.1216 7.27664C24.9255 7.27664 23.1526 9.04948 23.1526 11.2457C23.1526 12.3041 23.576 13.3096 24.3169 14.0504C25.0578 14.7913 26.0632 15.2147 27.1216 15.2147H36.3827C38.5789 15.2147 40.3517 13.4419 40.3517 11.2457C40.3517 10.1873 39.9284 9.18178 39.1875 8.4409C38.4466 7.70001 37.4411 7.27664 36.3827 7.27664H27.1216Z" fill="#9241FE"/>
<path d="M31.7522 36.3831H21.1681C20.0832 36.3831 19.1836 35.4834 19.1836 34.3986C19.1836 33.3137 20.0832 32.4141 21.1681 32.4141H31.7522C32.837 32.4141 33.7367 33.3137 33.7367 34.3986C33.7367 35.4834 32.837 36.3831 31.7522 36.3831Z" fill="#9241FE"/>
<path d="M42.3362 46.9671H21.1681C20.0832 46.9671 19.1836 46.0674 19.1836 44.9826C19.1836 43.8977 20.0832 42.998 21.1681 42.998H42.3362C43.4211 42.998 44.3208 43.8977 44.3208 44.9826C44.3208 46.0674 43.4211 46.9671 42.3362 46.9671Z" fill="#9241FE"/>
</svg>
