<svg width="64" height="65" viewBox="0 0 64 65" fill="none" xmlns="http://www.w3.org/2000/svg">
<path d="M42.3513 61.1231H21.197C13.2113 61.1231 8.63672 56.5485 8.63672 48.5627V22.781C8.63672 14.4515 12.8676 10.2207 21.197 10.2207C22.2812 10.2207 23.1802 11.1198 23.1802 12.2039C23.1802 13.2616 23.6033 14.2664 24.3437 15.0068C25.0841 15.7472 26.089 16.1703 27.1467 16.1703H36.4016C38.5964 16.1703 40.3681 14.3987 40.3681 12.2039C40.3681 11.1198 41.2671 10.2207 42.3513 10.2207C50.6807 10.2207 54.9116 14.4515 54.9116 22.781V48.5627C54.9116 56.5485 50.337 61.1231 42.3513 61.1231ZM19.4782 14.24C15.3002 14.5838 12.6031 16.4612 12.6031 22.781V48.5627C12.6031 54.433 15.3267 57.1566 21.197 57.1566H42.3513C48.2216 57.1566 50.9452 54.433 50.9452 48.5627V22.781C50.9452 16.4612 48.2481 14.6102 44.0701 14.24C43.1711 17.6247 40.0772 20.1367 36.4016 20.1367H27.1467C25.0312 20.1367 23.048 19.317 21.5408 17.8098C20.536 16.8049 19.8484 15.5886 19.4782 14.24Z" fill="#65537D"/>
<path d="M36.4026 20.1372H27.1477C25.0323 20.1372 23.0491 19.3174 21.5418 17.8102C20.0346 16.3029 19.2148 14.3197 19.2148 12.2043C19.2148 7.84126 22.7846 4.27148 27.1477 4.27148H36.4026C38.5181 4.27148 40.5013 5.09122 42.0085 6.59846C43.5157 8.1057 44.3355 10.0889 44.3355 12.2043C44.3355 16.5674 40.7657 20.1372 36.4026 20.1372ZM27.1477 8.2379C24.9529 8.2379 23.1813 10.0096 23.1813 12.2043C23.1813 13.262 23.6044 14.2668 24.3447 15.0072C25.0851 15.7476 26.09 16.1707 27.1477 16.1707H36.4026C38.5974 16.1707 40.3691 14.3991 40.3691 12.2043C40.3691 11.1466 39.946 10.1418 39.2056 9.40139C38.4652 8.66099 37.4604 8.2379 36.4026 8.2379H27.1477Z" fill="#65537D"/>
<path d="M31.7752 37.3248H21.1981C20.1139 37.3248 19.2148 36.4258 19.2148 35.3416C19.2148 34.2575 20.1139 33.3584 21.1981 33.3584H31.7752C32.8593 33.3584 33.7584 34.2575 33.7584 35.3416C33.7584 36.4258 32.8593 37.3248 31.7752 37.3248Z" fill="#65537D"/>
<path d="M42.3523 47.902H21.1981C20.1139 47.902 19.2148 47.0029 19.2148 45.9188C19.2148 44.8346 20.1139 43.9355 21.1981 43.9355H42.3523C43.4364 43.9355 44.3355 44.8346 44.3355 45.9188C44.3355 47.0029 43.4364 47.902 42.3523 47.902Z" fill="#65537D"/>
</svg>
