<svg width="206" height="206" viewBox="0 0 206 206" fill="none" xmlns="http://www.w3.org/2000/svg">
<circle cx="103" cy="103" r="103" fill="#FFE819"/>
<mask id="mask0_40_4477" style="mask-type:alpha" maskUnits="userSpaceOnUse" x="0" y="0" width="206" height="206">
<circle cx="103" cy="103" r="103" fill="#8C3434"/>
</mask>
<g mask="url(#mask0_40_4477)">
<path d="M236.026 -14.1328H129.779L128.377 0.47317H236.026V-14.1328Z" stroke="#B2B2B2" stroke-miterlimit="10"/>
<path d="M236.026 0.472656H129.779L128.377 15.0786H236.026V0.472656Z" stroke="#B2B2B2" stroke-miterlimit="10"/>
<path d="M236.026 15.0781H129.779L128.377 29.6841H236.026V15.0781Z" stroke="#B2B2B2" stroke-miterlimit="10"/>
<path d="M236.026 29.6855H129.779L128.377 44.2915H236.026V29.6855Z" stroke="#B2B2B2" stroke-miterlimit="10"/>
<path d="M236.026 44.291H129.779L128.377 58.897H236.026V44.291Z" stroke="#B2B2B2" stroke-miterlimit="10"/>
<path d="M236.026 58.8965H129.779L128.377 73.5025H236.026V58.8965Z" stroke="#B2B2B2" stroke-miterlimit="10"/>
<path d="M236.026 73.502H129.779L128.377 88.1079H236.026V73.502Z" stroke="#B2B2B2" stroke-miterlimit="10"/>
<path d="M236.026 88.1094H129.779L128.377 102.715H236.026V88.1094Z" stroke="#B2B2B2" stroke-miterlimit="10"/>
<path d="M236.026 102.715H129.779L128.377 117.321H236.026V102.715Z" stroke="#B2B2B2" stroke-miterlimit="10"/>
<path d="M236.026 117.32H129.779L128.377 131.926H236.026V117.32Z" stroke="#B2B2B2" stroke-miterlimit="10"/>
<path d="M236.026 131.926H129.779L128.377 146.532H236.026V131.926Z" stroke="#B2B2B2" stroke-miterlimit="10"/>
<path d="M236.026 146.533H129.779L128.377 161.153H236.026V146.533Z" stroke="#B2B2B2" stroke-miterlimit="10"/>
<path d="M236.026 161.152H129.779L128.377 175.758H236.026V161.152Z" stroke="#B2B2B2" stroke-miterlimit="10"/>
<path d="M236.026 175.758H129.779L128.377 190.364H236.026V175.758Z" stroke="#B2B2B2" stroke-miterlimit="10"/>
<path d="M70.5225 142.473C75.1049 139.404 81.3799 141.679 82.8772 146.994C87.2722 162.558 81.4643 179.822 67.2976 189.312C53.131 198.801 34.9468 197.601 22.2355 187.616C17.8987 184.211 18.1733 177.54 22.7556 174.471L70.5225 142.473Z" fill="#9241FE"/>
<path d="M155.665 206.771L155.588 207.159C155.251 208.864 154.666 210.463 153.844 211.958C153.767 212.106 153.69 212.253 153.604 212.399C153.56 212.476 153.517 212.545 153.475 212.613C151.848 215.319 149.463 217.644 146.456 219.579C146.435 219.584 146.413 219.599 146.391 219.614C140.36 223.47 131.856 225.735 122.048 226.21C121.564 226.239 121.081 226.259 120.589 226.276C115.722 226.425 110.557 226.142 105.225 225.394C103.771 225.193 102.303 224.96 100.834 224.689C100.343 224.601 99.8545 224.505 99.3566 224.406C98.7851 224.293 98.2153 224.171 97.6547 224.051C96.3585 223.775 95.0787 223.465 93.8229 223.13C93.0115 222.922 92.213 222.697 91.4163 222.463C86.7522 221.1 82.3842 219.403 78.4008 217.457C69.2458 212.984 62.0727 207.159 57.9212 200.878C57.4405 200.16 56.9947 199.459 56.5767 198.763C55.4076 196.827 54.4894 194.979 53.9415 193.098C53.3195 191.011 53.1618 188.901 53.6193 186.587C55.6935 176.096 59.1945 166.576 63.7229 158.304C65.3805 155.298 67.1693 152.452 69.0747 149.792C71.1234 146.94 73.3033 144.296 75.5926 141.875C76.4016 141.029 77.2237 140.214 78.0605 139.422L78.0715 139.414C80.8578 136.756 83.7979 134.435 86.8493 132.471C88.5442 131.359 90.2726 130.369 92.0363 129.492C100.61 125.228 109.822 123.697 118.912 125.494L118.976 125.507C119.668 125.643 120.356 125.799 121.027 125.989C121.102 125.994 121.174 126.018 121.246 126.042C130.99 128.6 139.228 134.904 145.394 143.691C148.138 147.595 150.47 151.984 152.343 156.751C152.503 157.157 152.653 157.56 152.803 157.963C153.511 159.856 154.14 161.81 154.703 163.809C154.761 164.002 154.809 164.194 154.867 164.387C155.283 165.916 155.65 167.502 155.97 169.127C158.211 180.519 158.126 194.077 155.665 206.771Z" fill="#9241FE"/>
<g opacity="0.3">
<g opacity="0.3">
<g opacity="0.3">
<g opacity="0.3">
<path opacity="0.3" d="M164.483 205.536C164.499 205.405 164.517 205.265 164.533 205.134C164.535 205.124 164.535 205.124 164.537 205.115C164.528 205.257 164.512 205.388 164.483 205.536Z" fill="#000072"/>
</g>
</g>
</g>
</g>
<path d="M138.136 195.566L138.127 195.612C137.107 200.287 134.174 204.123 129.894 207.022L129.85 207.052C123.109 211.591 112.999 213.789 101.621 213.244C97.9308 213.061 94.1147 212.594 90.2242 211.824C89.837 211.748 89.459 211.673 89.0736 211.587C85.9482 210.922 82.9569 210.062 80.1219 209.042C62.258 202.636 55.3213 179.529 66.0132 162.225C66.0554 162.157 66.1069 162.09 66.1381 162.029C69.7211 156.262 74.6256 152.193 79.9668 150.566L83.1862 149.594C85.0004 149.042 87.0567 148.816 89.1469 148.904C92.9328 149.039 96.8388 150.166 99.637 152.051L104.759 155.506C104.768 155.508 104.766 155.517 104.785 155.521L106.247 156.509C108.139 157.793 110.199 158.66 112.323 159.109C112.877 159.219 113.435 159.3 113.997 159.363C116.195 159.587 118.448 159.333 120.67 158.661L120.699 158.658L126.751 157.411C130.065 156.735 134.096 157.177 137.649 158.493C140.412 169.327 140.589 182.918 138.136 195.566Z" fill="#A369FF"/>
<path d="M123.099 217.549C120.089 217.413 116.989 217.059 113.852 216.496C113.463 216.429 113.085 216.354 112.698 216.278C108.817 215.51 105.101 214.488 101.619 213.254C90.8893 209.428 82.3781 203.54 77.8698 196.786L77.8402 196.741C74.974 192.439 73.7326 187.768 74.5681 183.057L74.5772 183.011C77.1221 170.38 82.4577 157.88 89.1447 148.914C92.9305 149.049 96.8366 150.176 99.6348 152.061L104.757 155.516C104.766 155.518 104.764 155.527 104.783 155.531C106.572 156.996 108.559 158.088 110.686 158.719C111.23 158.874 111.777 159.011 112.33 159.121C114.475 159.516 116.701 159.496 118.939 159.029L120.667 158.671L120.697 158.667L126.748 157.421C130.062 156.745 134.094 157.187 137.647 158.503C139.613 159.217 141.42 160.206 142.897 161.409L145.504 163.533C149.824 167.07 152.813 172.69 153.93 179.396C153.943 179.475 153.965 179.556 153.971 179.625C157.265 199.693 142.059 218.413 123.099 217.549Z" fill="#A369FF"/>
<g opacity="0.3">
<g opacity="0.3">
<g opacity="0.3">
<g opacity="0.3">
<path opacity="0.3" d="M128.655 114.143C128.544 114.474 128.421 114.813 128.296 115.161C123.843 127.064 112.12 133.092 101.497 132.039C93.6155 131.254 78.9177 124.808 77.9077 107.263C77.5397 100.946 78.8018 94.7861 81.1966 91.869C85.3797 86.7769 94.3847 86.9631 98.3481 87.1443C98.7569 87.167 99.2024 87.1979 99.6642 87.242C107.739 88.0699 122.603 93.1475 126.802 98.8947C126.804 98.8855 132.382 103.089 128.655 114.143Z" fill="#000072"/>
</g>
</g>
</g>
</g>
<path d="M144.73 65.1093C145.095 64.9296 158.477 53.2797 161.188 50.7439C165.237 46.9615 170.026 50.2706 166.251 61.5858C166.251 61.5858 172.36 56.5473 173.99 60.5328C176.408 66.4601 168.054 65.9162 171.243 93.4686L144.73 65.1093Z" fill="#9241FE"/>
<path d="M54.3737 78.1609C64.547 52.3577 57.4707 50.8817 61.333 45.7764C63.9337 42.3447 68.5403 48.786 68.5403 48.786C67.8051 36.8804 73.0751 35.0682 76.2227 39.622C81.7458 47.605 90.815 54.3462 91.1212 54.6137C91.1212 54.6137 111.853 53.7165 114.385 53.9912C116.375 54.2137 163.023 54.5861 171.273 90.0325L171.801 93.0208C174.447 108.361 175.266 120.638 174.088 128.113C174.061 128.47 174.025 128.816 173.979 129.17C173.531 132.59 172.294 136.171 169.977 139.83C162.597 150.739 134.387 152.212 117.755 150.035L96.5559 147.26C88.2441 146.172 41.6162 140.068 43.9414 112.82C44.5854 105.294 48.6463 92.3008 53.7648 79.6261L54.3737 78.1609Z" fill="#9241FE"/>
<path d="M174.035 128.742C173.932 129.534 173.79 130.33 173.59 131.129C174.4 123.643 173.529 112.193 171.102 98.1518L170.579 95.1927C168.714 65.6431 127.438 60.1358 114.357 59.5702C111.841 59.4589 91.3694 60.1816 91.3694 60.1816C91.062 59.9233 82.0972 53.2527 76.6365 45.3726C73.52 40.8703 69.7274 41.6059 70.4436 53.3668C70.4436 53.3668 63.4419 47.4839 61.9174 51.4546C59.5468 57.6176 57.5288 50.4441 61.3899 45.3482C63.9906 41.9165 68.5971 48.3578 68.5971 48.3578C67.862 36.4522 73.1331 34.6306 76.2808 39.1845C81.8132 47.1687 90.8731 53.9086 91.1886 54.1774C91.1886 54.1774 111.921 53.2709 114.453 53.5549C116.442 53.7774 163.091 54.1498 171.331 89.595L171.859 92.5833C174.505 107.923 175.324 120.2 174.147 127.676C174.119 128.032 174.082 128.387 174.035 128.742Z" fill="#A670FC"/>
<path d="M118.108 141.546C112.887 141.905 107.185 141.804 100.995 141.23C94.8662 140.191 89.3396 138.823 84.3954 137.133C48.5124 124.825 54.6101 108.943 61.8515 89.6081C61.8892 89.5372 61.9213 89.4372 61.9497 89.365C62.6377 87.5122 62.0425 78.8095 72.4866 69.4004C76.3125 65.949 82.8595 65.0242 88.7186 66.5304C91.9519 67.9678 95.0529 69.9091 97.8621 72.125C98.2675 72.5761 98.668 73.0645 99.066 73.5716C101.599 76.8128 105.269 78.677 109.146 79.0329C112.986 79.6777 117.012 78.821 120.311 76.3527C120.825 75.9745 121.338 75.6056 121.847 75.2647C125.132 73.8466 128.629 72.7595 132.122 72.2121C138.172 72.2647 144.242 74.8411 147.069 79.1635C154.73 90.9426 151.896 99.1964 152.112 101.168C152.121 101.245 152.117 101.348 152.126 101.425C154.145 121.982 155.95 138.889 118.108 141.546Z" fill="#A369FF"/>
<path d="M79.0409 115.619C83.9453 116.261 88.666 111.091 89.5849 104.072C90.5037 97.0524 87.2728 90.8416 82.3685 90.1996C77.4641 89.5576 72.7434 94.7275 71.8245 101.747C70.9056 108.767 74.1365 114.977 79.0409 115.619Z" fill="white"/>
<path d="M77.7855 113.791C80.1052 114.094 82.4558 110.749 83.0357 106.319C83.6157 101.888 82.2053 98.0507 79.8857 97.7471C77.566 97.4434 75.2154 100.789 74.6355 105.219C74.0555 109.649 75.4658 113.487 77.7855 113.791Z" fill="#4B4B4B"/>
<path d="M131.4 122.473C136.305 123.115 141.025 117.945 141.944 110.925C142.863 103.906 139.632 97.6951 134.728 97.0531C129.823 96.4111 125.103 101.581 124.184 108.601C123.265 115.62 126.496 121.831 131.4 122.473Z" fill="white"/>
<path d="M117.402 115.514C117.189 117.504 115.742 120.301 106.325 119.475C104.33 119.299 101.201 118.435 100.272 117.858C97.775 116.299 96.5711 114.853 97.07 112.852C97.3444 111.77 98.5669 110.612 99.5504 110.267C102.023 109.406 101.744 109.369 102.746 108.297C104.75 106.171 106.04 105.942 107.527 105.805C112.633 105.317 117.694 112.775 117.402 115.514Z" fill="#FF8E06"/>
<g opacity="0.3">
<g opacity="0.3">
<g opacity="0.3">
<g opacity="0.3">
<path opacity="0.3" d="M106.326 119.467C104.327 119.31 101.208 118.38 100.287 117.739C97.8119 116.012 96.6312 114.388 97.176 112.109C97.2596 111.76 97.4202 111.402 97.6262 111.059C98.0093 112.332 99.0801 113.42 100.703 114.561C101.614 115.202 104.745 116.123 106.742 116.29C113.811 116.874 116.417 115.215 117.386 113.39C117.497 113.916 117.541 114.377 117.5 114.76C117.249 117.04 115.749 120.246 106.326 119.467Z" fill="#000072"/>
</g>
</g>
</g>
</g>
<g opacity="0.35">
<g opacity="0.35">
<g opacity="0.35">
<g opacity="0.35">
<path opacity="0.35" d="M115.802 118.254L115.817 118.142C116.109 115.403 110.931 107.247 105.96 108.435C104.864 108.699 104.132 109.874 103.283 110.862C102.331 111.979 99.2311 111.838 98.2297 113.262C98.0323 113.539 97.308 113.207 96.9813 113.458C96.9976 113.261 97.0338 113.058 97.0805 112.846C97.3548 111.763 98.5773 110.606 99.5596 110.27C102.032 109.409 101.753 109.372 102.756 108.3C104.759 106.174 106.049 105.945 107.538 105.798C112.625 105.308 117.695 112.767 117.394 115.505C117.315 116.395 116.97 117.44 115.802 118.254Z" fill="white"/>
</g>
</g>
</g>
</g>
<path d="M114.749 107.832C114.112 107.189 113.457 106.62 112.787 106.163C111.006 104.925 109.156 104.36 107.419 104.522C105.7 104.695 104.084 105.023 101.827 107.42C101.653 107.596 101.519 107.749 101.407 107.876C100.963 108.377 100.908 108.437 99.1404 109.049C97.8287 109.512 96.2292 110.942 95.8306 112.539C95.6849 113.146 95.649 113.71 95.7136 114.23C95.9808 116.388 97.8629 117.866 99.5969 118.956C100.718 119.662 103.696 120.44 105.681 120.7C105.867 120.724 106.045 120.738 106.224 120.752C106.636 120.787 107.03 120.82 107.406 120.841C113.546 121.218 117.134 120.019 118.308 117.207L118.309 117.197C118.487 116.775 118.616 116.299 118.681 115.805L118.7 115.656C118.932 113.374 116.891 109.998 114.749 107.832ZM98.3274 113.16C98.3298 113.141 98.331 113.132 98.3428 113.115C98.3785 112.987 98.4458 112.834 98.5585 112.697C98.8103 112.294 99.244 111.877 99.6626 111.648C99.6744 111.63 99.6837 111.631 99.693 111.633C99.7867 111.569 99.8977 111.517 99.9877 111.482C100.037 111.469 100.068 111.445 100.108 111.431C100.117 111.432 100.119 111.423 100.128 111.424C102.213 110.702 102.569 110.445 103.335 109.588C103.436 109.469 103.558 109.333 103.701 109.181C105.396 107.384 106.393 107.221 107.508 107.102C107.527 107.104 107.546 107.107 107.556 107.099C107.604 107.095 107.633 107.09 107.681 107.086C107.978 107.059 108.271 107.069 108.569 107.108C109.053 107.171 109.538 107.311 109.984 107.521C110.003 107.523 110.029 107.536 110.047 107.548C111.022 107.988 111.882 108.66 112.507 109.244C112.659 109.387 112.793 109.519 112.92 109.639C113.982 110.717 114.81 111.924 115.366 112.964C115.761 113.708 116.004 114.384 116.092 114.869C116.133 115.064 116.139 115.236 116.122 115.366C116.069 115.843 115.899 116.275 115.616 116.627C114.685 117.803 112.536 118.365 109.186 118.325L109.176 118.324C108.344 118.31 107.44 118.267 106.447 118.175C104.537 118.001 101.632 117.166 100.965 116.756C98.1442 114.994 98.1207 114.014 98.3274 113.16Z" fill="#4B4B4B"/>
<path d="M129.012 119.56C131.36 119.868 133.739 116.482 134.326 111.998C134.913 107.514 133.486 103.629 131.138 103.322C128.79 103.015 126.411 106.401 125.824 110.885C125.237 115.369 126.664 119.253 129.012 119.56Z" fill="#4B4B4B"/>
<path d="M133.388 114.237C135.159 114.468 136.953 111.915 137.396 108.533C137.838 105.151 136.762 102.222 134.991 101.99C133.221 101.758 131.426 104.312 130.984 107.694C130.541 111.075 131.617 114.005 133.388 114.237Z" fill="white"/>
<path d="M81.8862 108.514C83.6568 108.746 85.4511 106.192 85.8938 102.81C86.3365 99.4285 85.26 96.4991 83.4893 96.2673C81.7186 96.0356 79.9243 98.5892 79.4816 101.971C79.0389 105.353 80.1155 108.282 81.8862 108.514Z" fill="white"/>
<path d="M96.7525 182.451C91.9969 185.244 91.3196 191.885 95.4568 195.543C107.565 206.264 125.638 208.534 140.34 199.897C155.043 191.261 161.862 174.361 158.392 158.574C157.209 153.188 151.082 150.537 146.326 153.331L96.7525 182.451Z" fill="#9241FE"/>
<path d="M47.8378 208.104L175 208.104V204.169L47.8378 204.169V208.104Z" fill="#808080" stroke="#263238" stroke-linecap="round" stroke-linejoin="round"/>
<path d="M-44.9922 121.455H82.7279L108.607 208.104H-19.1134L-44.9922 121.455Z" fill="#808080" stroke="#263238" stroke-linecap="round" stroke-linejoin="round"/>
<path d="M0.946455 161.532C-0.414613 160.681 -1.86258 160.252 -3.39746 160.246C-4.8986 160.239 -5.87518 160.65 -6.3272 161.478C-6.81366 162.423 -6.59376 163.705 -5.66749 165.326C-4.99156 166.509 -4.0194 167.518 -2.75101 168.354C-1.22234 169.381 0.334731 169.897 1.92021 169.904C2.15212 169.905 2.37144 169.899 2.58023 169.889C2.8544 169.876 3.21145 170.103 3.27537 170.34C3.50414 171.204 3.17445 171.68 2.27998 171.763C2.17025 171.777 2.03949 171.784 1.88769 171.783C1.20037 171.78 0.348645 171.769 -0.569352 171.561C-0.883074 171.491 -1.06541 171.657 -0.92355 171.905L0.0444876 173.592C0.11959 173.723 0.276941 173.852 0.44734 173.914C1.70951 174.386 2.8782 174.628 3.94502 174.633L4.14742 174.633C5.57293 174.596 6.53682 174.193 7.03908 173.423C7.6777 172.421 7.45043 170.963 6.35726 169.05L3.70362 164.406C3.03183 163.238 2.11418 162.28 0.946455 161.532ZM1.37857 166.748C1.45367 166.88 1.4487 167.004 1.35345 167.065C1.20103 167.166 0.954065 167.213 0.608296 167.211C-0.454309 167.206 -1.36113 166.547 -2.11216 165.233C-2.87987 163.889 -2.74086 163.22 -1.69513 163.225C-0.986721 163.228 -0.428073 163.587 -0.0191798 164.303L1.37857 166.748Z" fill="#8E8E8E"/>
<path d="M17.0437 167.503C16.8117 167.502 16.5281 167.337 16.4134 167.136L14.8821 164.456C14.2062 163.274 13.2801 162.315 12.1038 161.582C10.7259 160.731 9.22734 160.302 7.60813 160.295C6.07326 160.288 5.08398 160.706 4.64031 161.549C4.12863 162.479 4.3401 163.762 5.27472 165.397C5.95064 166.58 6.93532 167.611 8.22874 168.491C9.78263 169.532 11.4571 170.151 13.2523 170.348C13.5431 170.379 13.8065 170.405 14.0488 170.425C14.3965 170.452 14.7614 170.788 14.6841 171.014C14.5831 171.323 14.2631 171.587 13.7305 171.811C13.6903 171.829 13.6354 171.836 13.5806 171.835C12.79 171.821 11.9274 171.872 10.8746 171.634C10.5609 171.563 10.3786 171.73 10.5204 171.978L11.5302 173.745C11.6094 173.884 11.7773 174.016 11.9604 174.079C13.1344 174.477 14.1874 174.678 15.1193 174.682C16.4855 174.689 17.4868 174.365 18.1233 173.713C18.8403 172.995 18.9578 172.052 18.4863 170.888C18.4115 170.706 18.503 170.564 18.7181 170.565L20.9318 170.575C21.1637 170.576 21.2596 170.413 21.1449 170.212L19.8097 167.876C19.695 167.675 19.4113 167.51 19.1794 167.509L17.0416 167.499L17.0437 167.503ZM12.7115 167.061C12.8346 167.277 12.7155 167.444 12.4605 167.424C10.7829 167.308 9.57274 166.603 8.83005 165.303C8.05399 163.945 8.21413 163.269 9.31046 163.274C10.1369 163.277 10.7755 163.673 11.2261 164.462L12.7115 167.061Z" fill="#8E8E8E"/>
<path d="M18.4489 167.873L19.784 170.209C19.8988 170.41 20.1824 170.575 20.4143 170.576L23.8467 170.591C24.0786 170.592 24.1745 170.429 24.0597 170.228L22.7246 167.892C22.6098 167.691 22.3262 167.526 22.0943 167.525L18.6619 167.51C18.43 167.509 18.3341 167.672 18.4489 167.873Z" fill="#8E8E8E"/>
<path d="M21.3844 167.885L22.7196 170.221C22.8343 170.422 23.1179 170.587 23.3499 170.588L26.7822 170.603C27.0142 170.604 27.11 170.441 26.9953 170.24L25.6601 167.904C25.5454 167.703 25.2618 167.538 25.0298 167.537L21.5975 167.521C21.3655 167.52 21.2697 167.684 21.3844 167.885Z" fill="#8E8E8E"/>
<path d="M24.3199 167.898L25.6551 170.235C25.7699 170.435 26.0535 170.601 26.2854 170.602L29.7178 170.617C29.9497 170.618 30.0456 170.454 29.9308 170.254L28.5957 167.917C28.4809 167.716 28.1973 167.551 27.9654 167.55L24.533 167.535C24.3011 167.534 24.2052 167.697 24.3199 167.898Z" fill="#8E8E8E"/>
<path d="M27.555 160.827C27.3252 160.829 27.2357 160.989 27.3504 161.19L30.2669 166.294C30.534 166.761 30.6121 167.089 30.5013 167.278C30.3905 167.467 30.0653 167.56 29.5255 167.558L27.4678 167.548C27.2359 167.547 27.14 167.711 27.2547 167.912L28.5899 170.248C28.7046 170.449 28.9883 170.614 29.2202 170.615L31.6321 170.626C32.9815 170.632 33.8943 170.301 34.3706 169.633C34.9066 168.863 34.7866 167.799 34.0106 166.441L30.9939 161.163C30.8771 160.958 30.5892 160.793 30.3552 160.796L27.555 160.827Z" fill="#8E8E8E"/>
<path d="M46.9732 167.636C46.4335 167.634 45.9997 167.537 45.672 167.346C45.3442 167.155 45.0468 166.826 44.7798 166.359L41.937 161.267C41.8244 161.062 41.5366 160.897 41.3046 160.896C38.5976 160.877 36.8608 160.796 36.5782 160.795C35.3638 160.79 34.5182 161.165 34.0413 161.92C33.437 162.835 33.552 164.023 34.3865 165.483C35.0457 166.636 36.0137 167.638 37.2905 168.489C38.8191 169.515 40.3762 170.032 41.9617 170.039C42.8092 170.043 43.4658 169.904 43.9229 169.622C44.0478 169.546 44.2564 169.565 44.4602 169.679C45.6958 170.354 47.0031 170.699 48.3777 170.705L50.7896 170.715C51.0216 170.716 51.1174 170.553 51.0027 170.352L49.6675 168.016C49.5528 167.815 49.2692 167.65 49.0372 167.649L46.9753 167.64L46.9732 167.636ZM40.6498 167.346C39.5872 167.341 38.7179 166.747 38.042 165.565C37.7332 165.024 37.6262 164.594 37.7209 164.274C37.8156 163.954 38.0991 163.795 38.5714 163.797C38.8708 163.798 39.172 163.847 39.4792 163.943C39.6686 164.002 39.8512 164.138 39.9347 164.284L41.1864 166.474C41.2657 166.613 41.3387 166.733 41.3993 166.832C41.4786 166.956 41.48 167.076 41.4037 167.149C41.2574 167.283 41.0082 167.347 40.6498 167.346Z" fill="#8E8E8E"/>
<path d="M48.2946 168.004L49.6297 170.34C49.7445 170.541 50.0281 170.706 50.26 170.707L53.6924 170.722C53.9243 170.723 54.0202 170.56 53.9054 170.359L52.5703 168.023C52.4555 167.822 52.1719 167.657 51.94 167.656L48.5076 167.641C48.2757 167.64 48.1798 167.803 48.2946 168.004Z" fill="#8E8E8E"/>
<path d="M51.2301 168.017L52.5653 170.354C52.68 170.555 52.9636 170.72 53.1956 170.721L56.6279 170.736C56.8599 170.737 56.9557 170.574 56.841 170.373L55.5058 168.036C55.3911 167.836 55.1075 167.67 54.8755 167.669L51.4432 167.654C51.2112 167.653 51.1154 167.817 51.2301 168.017Z" fill="#8E8E8E"/>
<path d="M54.1657 168.031L55.5008 170.367C55.6156 170.568 55.8992 170.733 56.1311 170.734L59.5635 170.75C59.7954 170.751 59.8913 170.587 59.7765 170.386L58.4414 168.05C58.3266 167.849 58.043 167.684 57.8111 167.683L54.3787 167.668C54.1468 167.667 54.0509 167.83 54.1657 168.031Z" fill="#8E8E8E"/>
<path d="M35.8477 176.238C35.3435 175.945 34.8131 175.797 34.2564 175.794C33.683 175.792 33.3068 175.936 33.1279 176.226C32.9491 176.517 33.0015 176.91 33.2852 177.407C33.5689 177.903 33.9692 178.302 34.486 178.603C35.0029 178.904 35.548 179.056 36.1215 179.058C36.6781 179.061 37.0395 178.913 37.2058 178.615C37.3721 178.317 37.3134 177.92 37.0296 177.423C36.7459 176.927 36.3519 176.532 35.8477 176.238ZM31.8618 172.943C31.3576 172.65 30.8271 172.502 30.2705 172.499C29.6971 172.497 29.3209 172.641 29.142 172.931C28.9631 173.222 29.0156 173.615 29.2993 174.112C29.583 174.608 29.9833 175.007 30.5001 175.308C31.017 175.609 31.5621 175.761 32.1356 175.763C32.6922 175.766 33.0536 175.618 33.2199 175.32C33.3862 175.022 33.3274 174.625 33.0437 174.129C32.76 173.632 32.366 173.237 31.8618 172.943ZM36.0785 172.962C35.5742 172.669 35.0438 172.521 34.4872 172.518C33.9137 172.516 33.5376 172.66 33.3587 172.95C33.1798 173.241 33.2323 173.634 33.516 174.131C33.7997 174.627 34.2 175.026 34.7168 175.327C35.2337 175.628 35.7788 175.779 36.3523 175.782C36.9089 175.784 37.2703 175.637 37.4366 175.339C37.6028 175.041 37.5441 174.644 37.2604 174.147C36.9767 173.651 36.5827 173.256 36.0785 172.962ZM65.7862 176.371C65.2819 176.077 64.7515 175.929 64.1949 175.927C63.6215 175.924 63.2453 176.068 63.0664 176.359C62.8875 176.649 62.94 177.043 63.2237 177.539C63.5074 178.036 63.9077 178.435 64.4245 178.736C64.9414 179.036 65.4865 179.188 66.06 179.191C66.6166 179.193 66.978 179.045 67.1443 178.748C67.3106 178.45 67.2518 178.053 66.9681 177.556C66.6844 177.06 66.2904 176.665 65.7862 176.371ZM61.8003 173.076C61.296 172.783 60.7656 172.635 60.209 172.632C59.6355 172.63 59.2594 172.774 59.0805 173.064C58.9016 173.355 58.954 173.748 59.2378 174.245C59.5215 174.741 59.9218 175.14 60.4386 175.441C60.9554 175.742 61.5006 175.893 62.0741 175.896C62.6307 175.898 62.9921 175.751 63.1584 175.453C63.3246 175.155 63.2659 174.758 62.9822 174.261C62.6985 173.765 62.3045 173.37 61.8003 173.076ZM66.0169 173.095C65.5127 172.801 64.9823 172.653 64.4257 172.651C63.8522 172.648 63.476 172.792 63.2972 173.083C63.1183 173.373 63.1707 173.767 63.4545 174.263C63.7382 174.76 64.1385 175.158 64.6553 175.459C65.1721 175.76 65.7173 175.912 66.2907 175.914C66.8474 175.917 67.2088 175.769 67.3751 175.471C67.5413 175.173 67.4826 174.776 67.1989 174.28C66.9151 173.783 66.5212 173.388 66.0169 173.095ZM57.324 160.96C57.0942 160.962 57.0026 161.126 57.1215 161.326L60.1118 166.427C60.3789 166.894 60.457 167.222 60.3462 167.411C60.2354 167.6 59.9101 167.693 59.3704 167.691L57.3127 167.682C57.0807 167.68 56.9849 167.844 57.0996 168.045L58.4348 170.381C58.5495 170.582 58.8331 170.747 59.0651 170.748L61.477 170.759C62.8263 170.765 63.7392 170.434 64.2155 169.766C64.7515 168.996 64.6315 167.932 63.8554 166.574L60.8388 161.296C60.722 161.091 60.4341 160.926 60.2001 160.929L57.324 160.96Z" fill="#8E8E8E"/>
</g>
</svg>
