<svg width="56" height="56" viewBox="0 0 56 56" fill="none" xmlns="http://www.w3.org/2000/svg">
<path d="M39.667 49.0921H16.3337C8.93699 49.0921 2.91699 43.0721 2.91699 35.6754V13.3221C2.91699 10.2888 4.31699 9.23876 5.15699 8.88876C5.99699 8.53876 7.72366 8.2821 9.87033 10.4288L15.9137 16.4721C16.147 16.7054 16.5203 16.7054 16.7303 16.4721L25.107 8.09543C26.647 6.55543 29.3537 6.55543 30.8703 8.09543L39.247 16.4721C39.4803 16.7054 39.8537 16.7054 40.0637 16.4721L46.107 10.4288C48.2537 8.2821 49.9803 8.5621 50.8203 8.88876C51.6603 9.23876 53.0603 10.2654 53.0603 13.3221V35.6988C53.0837 43.7021 47.6937 49.0921 39.667 49.0921ZM6.55699 12.2254C6.48699 12.4121 6.41699 12.7621 6.41699 13.3221V35.6988C6.41699 41.1588 10.8737 45.6154 16.3337 45.6154H39.667C45.687 45.6154 49.5837 41.7188 49.5837 35.6988V13.3221C49.5837 12.7621 49.5137 12.4354 49.4437 12.2488C49.257 12.3421 48.977 12.5288 48.5803 12.9254L42.537 18.9688C40.997 20.5088 38.2903 20.5088 36.7737 18.9688L28.397 10.5921C28.1637 10.3588 27.7903 10.3588 27.5803 10.5921L19.227 18.9454C17.687 20.4854 14.9803 20.4854 13.4637 18.9454L7.42033 12.9021C7.02366 12.5054 6.72033 12.3188 6.55699 12.2254Z" fill="#9241FE"/>
</svg>
