<svg width="205" height="205" viewBox="0 0 205 205" fill="none" xmlns="http://www.w3.org/2000/svg">
<circle cx="102.5" cy="102.5" r="102.5" fill="#00D1B2"/>
<mask id="mask0_40_6500" style="mask-type:alpha" maskUnits="userSpaceOnUse" x="0" y="0" width="205" height="205">
<circle cx="102.5" cy="102.5" r="102.5" fill="#00D1B2"/>
</mask>
<g mask="url(#mask0_40_6500)">
<path d="M147.401 35.5898H56.8716C50.6214 35.5898 45.5547 40.6566 45.5547 46.9067V238.03C45.5547 244.28 50.6214 249.347 56.8716 249.347H147.401C153.651 249.347 158.718 244.28 158.718 238.03V46.9067C158.718 40.6566 153.651 35.5898 147.401 35.5898Z" fill="#7C33DE"/>
<path d="M153.686 59.0625H50.582V225.874H153.686V59.0625Z" fill="white" stroke="#7C33DE" stroke-width="1.33739" stroke-miterlimit="10"/>
<path d="M117.939 126.609C126.667 117.882 126.667 103.732 117.939 95.004C109.212 86.2764 95.0615 86.2764 86.3339 95.004C77.6063 103.732 77.6063 117.882 86.3339 126.609C95.0615 135.337 109.212 135.337 117.939 126.609Z" fill="#00D1B2"/>
<path d="M133.388 145.719H70.8864C69.5965 145.719 68.5508 146.764 68.5508 148.054V155.422C68.5508 156.712 69.5965 157.758 70.8864 157.758H133.388C134.678 157.758 135.724 156.712 135.724 155.422V148.054C135.724 146.764 134.678 145.719 133.388 145.719Z" fill="#00D1B2"/>
<path d="M133.388 168.236H70.8864C69.5965 168.236 68.5508 169.282 68.5508 170.572V177.94C68.5508 179.23 69.5965 180.275 70.8864 180.275H133.388C134.678 180.275 135.724 179.23 135.724 177.94V170.572C135.724 169.282 134.678 168.236 133.388 168.236Z" fill="#00D1B2"/>
<path d="M113.263 121.955L106.688 118.169V115.041C107.64 113.889 108.329 112.543 108.709 111.098C108.935 111.178 109.173 111.22 109.413 111.22C110.229 111.22 110.747 108.692 110.835 106.887C111.784 104.877 110.491 103.701 110.491 103.701C110.491 103.701 111.027 103.165 111.382 101.016C111.737 98.8665 110.13 99.7634 108.878 97.7948C107.625 95.8261 106.728 93.6827 102.616 93.6827C101.483 93.6455 100.365 93.9499 99.4075 94.5566C98.4498 95.1632 97.6968 96.0439 97.2462 97.0842C96.2227 97.0879 95.2027 97.2071 94.2059 97.4395C92.9478 97.7948 92.5925 101.913 93.6642 103.526C94.144 104.408 94.4 105.394 94.4097 106.397C94.1243 106.048 93.8273 105.955 93.6642 106.747C93.3089 108.535 94.7417 111.04 94.7417 111.04L95.4814 110.83C95.8541 112.375 96.5731 113.815 97.5841 115.041V118.169L91.0083 121.955C90.2403 122.398 89.6025 123.035 89.1588 123.803C88.7151 124.571 88.4812 125.442 88.4805 126.329V128.495C92.3914 131.517 97.1939 133.156 102.136 133.156C107.078 133.156 111.88 131.517 115.791 128.495V126.329C115.792 125.442 115.558 124.57 115.114 123.802C114.671 123.034 114.032 122.397 113.263 121.955Z" fill="#7C33DE"/>
<path d="M77.0598 177.28C76.909 177.278 76.765 177.217 76.6579 177.111C76.6006 177.06 76.5549 176.997 76.5238 176.927C76.4926 176.856 76.4768 176.78 76.4774 176.703C76.4792 176.598 76.5094 176.496 76.5647 176.406L77.6131 174.729L75.5688 174.793C75.4917 174.798 75.4145 174.786 75.3423 174.759C75.27 174.732 75.2043 174.69 75.1494 174.636C75.0544 174.529 75.002 174.391 75.002 174.248C75.002 174.106 75.0544 173.968 75.1494 173.861C75.2031 173.805 75.2684 173.761 75.3409 173.733C75.4134 173.705 75.4912 173.693 75.5688 173.698L77.584 173.774L76.5473 172.102C76.4909 172.011 76.4606 171.906 76.4599 171.799C76.4593 171.722 76.4752 171.646 76.5063 171.576C76.5374 171.506 76.5832 171.443 76.6405 171.391C76.7475 171.285 76.8916 171.225 77.0423 171.223C77.1416 171.223 77.2386 171.252 77.3221 171.306C77.4056 171.359 77.4722 171.435 77.5141 171.525L78.5101 173.325L79.4944 171.537C79.5411 171.442 79.613 171.361 79.7023 171.303C79.7917 171.246 79.895 171.214 80.0012 171.211C80.0748 171.211 80.1475 171.227 80.2147 171.257C80.2819 171.287 80.342 171.331 80.3914 171.386C80.4983 171.497 80.5569 171.645 80.5545 171.799C80.5542 171.899 80.5281 171.998 80.4788 172.085L79.4245 173.774L81.4689 173.698C81.5465 173.693 81.6243 173.705 81.6968 173.733C81.7692 173.761 81.8346 173.805 81.8883 173.861C81.9876 173.964 82.042 174.102 82.0397 174.245C82.0393 174.39 81.9854 174.529 81.8883 174.636C81.8334 174.69 81.7677 174.732 81.6954 174.759C81.6231 174.786 81.546 174.798 81.4689 174.793L79.4129 174.729L80.438 176.389C80.4954 176.482 80.5257 176.589 80.5254 176.698C80.5254 176.852 80.464 177 80.3548 177.109C80.2455 177.219 80.0974 177.28 79.9429 177.28C79.843 177.279 79.7457 177.248 79.663 177.192C79.5802 177.136 79.5155 177.058 79.477 176.965L78.5043 175.218L77.5374 176.965C77.4945 177.057 77.4272 177.135 77.343 177.19C77.2587 177.246 77.1607 177.277 77.0598 177.28Z" fill="#7C33DE"/>
<path d="M86.5059 177.28C86.3551 177.278 86.211 177.217 86.104 177.111C86.0467 177.06 86.001 176.997 85.9698 176.927C85.9387 176.856 85.9229 176.78 85.9234 176.703C85.9252 176.598 85.9554 176.496 86.0108 176.406L87.0592 174.729L85.0207 174.793C84.9429 174.797 84.8652 174.784 84.7921 174.757C84.7191 174.73 84.6522 174.689 84.5955 174.636C84.5182 174.556 84.4666 174.455 84.4476 174.345C84.4286 174.236 84.443 174.123 84.4888 174.022C84.5347 173.921 84.61 173.836 84.7048 173.778C84.7997 173.72 84.9097 173.692 85.0207 173.698L87.0301 173.774L85.9933 172.102C85.9369 172.011 85.9067 171.906 85.906 171.799C85.9054 171.722 85.9212 171.646 85.9524 171.576C85.9835 171.506 86.0292 171.443 86.0865 171.391C86.1936 171.285 86.3376 171.225 86.4884 171.223C86.5877 171.223 86.6847 171.252 86.7682 171.306C86.8517 171.359 86.9183 171.436 86.9602 171.525L87.9562 173.325L88.9405 171.537C88.9872 171.442 89.0591 171.361 89.1484 171.303C89.2377 171.246 89.3411 171.214 89.4472 171.211C89.521 171.211 89.5939 171.226 89.6612 171.256C89.7285 171.286 89.7886 171.33 89.8375 171.386C89.8914 171.44 89.9342 171.505 89.9631 171.576C89.9921 171.647 90.0068 171.723 90.0064 171.799C90.0043 171.9 89.9762 171.998 89.9248 172.085L88.8706 173.774L90.9208 173.71C90.9975 173.704 91.0744 173.716 91.1459 173.745C91.2175 173.773 91.2818 173.817 91.3343 173.873C91.4336 173.976 91.4881 174.114 91.4858 174.257C91.4854 174.401 91.4314 174.541 91.3343 174.647C91.2806 174.701 91.2159 174.744 91.1446 174.771C91.0732 174.798 90.997 174.809 90.9208 174.805L88.859 174.741L89.8841 176.401C89.9415 176.493 89.9718 176.6 89.9714 176.709C89.9714 176.864 89.9101 177.012 89.8008 177.121C89.6916 177.23 89.5435 177.292 89.389 177.292C89.2891 177.29 89.1918 177.26 89.109 177.204C89.0263 177.148 88.9616 177.069 88.923 176.977L87.9503 175.23L86.9835 176.977C86.939 177.066 86.871 177.142 86.7868 177.195C86.7027 177.248 86.6055 177.278 86.5059 177.28Z" fill="#7C33DE"/>
<path d="M95.959 177.28C95.8062 177.279 95.6598 177.219 95.5513 177.111C95.494 177.06 95.4483 176.997 95.4171 176.927C95.386 176.856 95.3702 176.78 95.3708 176.703C95.3725 176.598 95.4027 176.496 95.4581 176.406L96.5065 174.729L94.468 174.793C94.3582 174.797 94.2496 174.769 94.156 174.711C94.0624 174.654 93.9881 174.57 93.9425 174.47C93.8969 174.37 93.8821 174.259 93.8999 174.15C93.9178 174.042 93.9675 173.941 94.0428 173.861C94.0978 173.805 94.1642 173.761 94.2376 173.733C94.311 173.705 94.3895 173.693 94.468 173.698L96.4774 173.774L95.4406 172.102C95.3842 172.011 95.354 171.906 95.3533 171.799C95.3551 171.723 95.372 171.647 95.403 171.577C95.434 171.507 95.4784 171.444 95.5338 171.391C95.6423 171.284 95.7887 171.223 95.9415 171.223C96.0398 171.224 96.1356 171.254 96.218 171.307C96.3004 171.361 96.366 171.436 96.4075 171.525L97.4035 173.325L98.3878 171.537C98.4345 171.442 98.5064 171.361 98.5957 171.303C98.685 171.246 98.7884 171.214 98.8945 171.211C98.9683 171.211 99.0412 171.226 99.1085 171.256C99.1758 171.286 99.2359 171.33 99.2848 171.386C99.3388 171.44 99.3815 171.505 99.4105 171.576C99.4394 171.647 99.4541 171.723 99.4537 171.799C99.4516 171.9 99.4235 171.998 99.3721 172.085L98.3179 173.774L100.368 173.698C100.443 173.69 100.52 173.699 100.591 173.723C100.663 173.748 100.729 173.787 100.784 173.839C100.839 173.891 100.883 173.954 100.911 174.024C100.94 174.094 100.953 174.17 100.951 174.245C100.952 174.389 100.9 174.528 100.805 174.636C100.75 174.69 100.684 174.732 100.612 174.759C100.54 174.786 100.463 174.798 100.386 174.793L98.3296 174.729L99.3488 176.389C99.4063 176.482 99.4366 176.589 99.4362 176.698C99.4344 176.774 99.4175 176.849 99.3865 176.919C99.3555 176.989 99.311 177.052 99.2557 177.105C99.205 177.16 99.1437 177.203 99.0756 177.233C99.0075 177.263 98.934 177.279 98.8596 177.28C98.7606 177.278 98.6642 177.248 98.5824 177.192C98.5006 177.136 98.437 177.057 98.3995 176.965L97.421 175.218L96.4541 176.965C96.4105 177.06 96.3406 177.14 96.2528 177.196C96.165 177.251 96.063 177.281 95.959 177.28Z" fill="#7C33DE"/>
<path d="M105.407 177.28C105.255 177.279 105.108 177.219 105 177.111C104.89 177.004 104.827 176.857 104.825 176.703C104.823 176.599 104.851 176.496 104.907 176.406L105.955 174.729L103.916 174.793C103.839 174.797 103.761 174.784 103.688 174.757C103.615 174.73 103.548 174.689 103.491 174.636C103.396 174.529 103.344 174.391 103.344 174.248C103.344 174.106 103.396 173.968 103.491 173.861C103.547 173.807 103.614 173.764 103.687 173.736C103.76 173.708 103.838 173.695 103.916 173.698L105.932 173.774L104.901 172.102C104.844 172.011 104.814 171.906 104.813 171.799C104.815 171.723 104.832 171.647 104.863 171.577C104.894 171.507 104.939 171.444 104.994 171.391C105.102 171.284 105.249 171.223 105.402 171.223C105.501 171.223 105.598 171.252 105.681 171.306C105.765 171.359 105.831 171.436 105.873 171.525L106.864 173.325L107.848 171.537C107.895 171.442 107.966 171.361 108.056 171.303C108.145 171.246 108.248 171.214 108.355 171.211C108.428 171.211 108.501 171.226 108.569 171.256C108.636 171.286 108.696 171.33 108.745 171.386C108.799 171.44 108.842 171.505 108.871 171.576C108.899 171.647 108.914 171.723 108.914 171.799C108.912 171.9 108.884 171.998 108.832 172.085L107.778 173.774L109.828 173.698C109.904 173.69 109.98 173.699 110.051 173.723C110.123 173.748 110.189 173.787 110.244 173.839C110.299 173.891 110.343 173.954 110.371 174.024C110.4 174.094 110.413 174.17 110.411 174.245C110.412 174.389 110.36 174.528 110.265 174.636C110.21 174.69 110.144 174.732 110.072 174.759C110 174.786 109.923 174.798 109.846 174.793L107.79 174.729L108.809 176.389C108.866 176.482 108.897 176.589 108.896 176.698C108.897 176.774 108.881 176.851 108.85 176.921C108.819 176.991 108.773 177.054 108.716 177.105C108.665 177.16 108.604 177.203 108.536 177.233C108.468 177.263 108.394 177.279 108.32 177.28C108.221 177.278 108.124 177.248 108.042 177.192C107.961 177.136 107.897 177.057 107.86 176.965L106.881 175.218L105.914 176.965C105.87 177.062 105.798 177.143 105.708 177.199C105.618 177.255 105.513 177.283 105.407 177.28Z" fill="#7C33DE"/>
<path d="M114.855 177.28C114.702 177.279 114.555 177.219 114.447 177.111C114.357 177.02 114.299 176.901 114.283 176.774C114.268 176.646 114.294 176.517 114.36 176.406L115.402 174.729L113.364 174.793C113.286 174.797 113.208 174.784 113.135 174.757C113.062 174.73 112.995 174.689 112.938 174.636C112.843 174.529 112.791 174.391 112.791 174.248C112.791 174.106 112.843 173.968 112.938 173.861C112.995 173.807 113.061 173.764 113.134 173.736C113.208 173.708 113.285 173.695 113.364 173.698L115.379 173.774L114.342 172.102C114.286 172.011 114.256 171.906 114.255 171.799C114.257 171.646 114.32 171.499 114.43 171.392C114.538 171.284 114.684 171.223 114.837 171.223C114.936 171.223 115.033 171.252 115.117 171.306C115.201 171.359 115.267 171.436 115.309 171.525L116.299 173.325L117.283 171.537C117.33 171.442 117.402 171.361 117.491 171.303C117.581 171.246 117.684 171.214 117.79 171.211C117.865 171.211 117.939 171.226 118.007 171.256C118.075 171.286 118.136 171.33 118.186 171.386C118.293 171.497 118.352 171.645 118.349 171.799C118.347 171.9 118.319 171.998 118.268 172.085L117.214 173.774L119.264 173.698C119.339 173.69 119.415 173.699 119.487 173.723C119.559 173.748 119.624 173.787 119.68 173.839C119.735 173.891 119.778 173.954 119.807 174.024C119.836 174.094 119.849 174.17 119.846 174.245C119.847 174.389 119.796 174.528 119.701 174.636C119.646 174.69 119.58 174.732 119.508 174.759C119.435 174.786 119.358 174.798 119.281 174.793L117.225 174.729L118.245 176.389C118.302 176.482 118.332 176.589 118.332 176.698C118.332 176.774 118.317 176.851 118.286 176.921C118.254 176.991 118.209 177.054 118.151 177.105C118.101 177.16 118.039 177.203 117.971 177.233C117.903 177.263 117.83 177.279 117.755 177.28C117.656 177.278 117.56 177.248 117.478 177.192C117.396 177.136 117.333 177.057 117.295 176.965L116.317 175.218L115.35 176.965C115.306 177.06 115.236 177.14 115.148 177.196C115.061 177.251 114.959 177.281 114.855 177.28Z" fill="#7C33DE"/>
<path d="M124.3 177.28C124.149 177.278 124.005 177.217 123.898 177.111C123.841 177.06 123.795 176.997 123.764 176.927C123.733 176.856 123.717 176.78 123.718 176.703C123.719 176.598 123.75 176.496 123.805 176.406L124.848 174.729L122.809 174.793C122.734 174.799 122.659 174.789 122.588 174.764C122.517 174.739 122.452 174.699 122.397 174.648C122.342 174.596 122.299 174.534 122.27 174.464C122.24 174.395 122.226 174.321 122.227 174.245C122.226 174.174 122.24 174.104 122.267 174.038C122.294 173.972 122.334 173.912 122.384 173.861C122.438 173.805 122.503 173.761 122.575 173.733C122.648 173.705 122.726 173.693 122.803 173.698L124.818 173.774L123.782 172.102C123.725 172.011 123.695 171.906 123.694 171.799C123.697 171.646 123.759 171.499 123.869 171.392C123.978 171.284 124.124 171.223 124.277 171.223C124.376 171.223 124.473 171.252 124.557 171.306C124.64 171.359 124.707 171.436 124.749 171.525L125.739 173.325L126.729 171.537C126.775 171.443 126.846 171.362 126.934 171.305C127.023 171.247 127.125 171.215 127.23 171.211C127.304 171.211 127.378 171.226 127.446 171.256C127.515 171.286 127.576 171.33 127.626 171.386C127.733 171.497 127.791 171.645 127.789 171.799C127.789 171.899 127.763 171.998 127.713 172.085L126.659 173.774L128.703 173.698C128.781 173.693 128.859 173.705 128.931 173.733C129.004 173.761 129.069 173.805 129.123 173.861C129.222 173.964 129.276 174.102 129.274 174.245C129.274 174.39 129.22 174.529 129.123 174.636C129.068 174.69 129.002 174.732 128.93 174.759C128.858 174.786 128.78 174.798 128.703 174.793L126.647 174.729L127.667 176.389C127.724 176.482 127.754 176.589 127.754 176.698C127.752 176.851 127.689 176.998 127.579 177.105C127.473 177.214 127.329 177.276 127.177 177.28C127.078 177.278 126.982 177.248 126.9 177.192C126.818 177.136 126.755 177.057 126.717 176.965L125.739 175.218L124.772 176.965C124.73 177.056 124.664 177.134 124.58 177.189C124.497 177.245 124.4 177.276 124.3 177.28Z" fill="#7C33DE"/>
<g style="mix-blend-mode:multiply">
<path d="M153.686 59.2832H50.582V65.7425H153.686V59.2832Z" fill="#00D1B2"/>
</g>
<path d="M113.345 47.384H90.9205C90.5158 47.384 90.1277 47.2233 89.8415 46.9371C89.5553 46.6509 89.3945 46.2628 89.3945 45.858C89.3945 45.4533 89.5553 45.0652 89.8415 44.779C90.1277 44.4928 90.5158 44.332 90.9205 44.332H113.345C113.749 44.332 114.137 44.4928 114.424 44.779C114.71 45.0652 114.871 45.4533 114.871 45.858C114.871 46.2628 114.71 46.6509 114.424 46.9371C114.137 47.2233 113.749 47.384 113.345 47.384Z" fill="#00D1B2" stroke="#7C33DE" stroke-width="1.33739" stroke-linecap="round" stroke-linejoin="round"/>
</g>
</svg>
