<svg width="245" height="76" viewBox="0 0 245 76" fill="none" xmlns="http://www.w3.org/2000/svg">
<rect y="0.515625" width="244.206" height="75.4833" rx="8.27818" fill="white"/>
<rect x="1" y="1.51562" width="242.206" height="73.4833" rx="7.27818" stroke="#36156F" stroke-opacity="0.3" stroke-width="2"/>
<path d="M55.5984 39.4606C55.6187 37.8855 56.0383 36.3411 56.818 34.9711C57.5977 33.6012 58.7123 32.4502 60.0579 31.6252C59.2031 30.4077 58.0753 29.4057 56.7642 28.6989C55.4531 27.9921 53.9947 27.5999 52.505 27.5534C49.3272 27.2208 46.2464 29.4496 44.6271 29.4496C42.9764 29.4496 40.4831 27.5864 37.7983 27.6415C36.0617 27.6974 34.3692 28.201 32.8858 29.1032C31.4024 30.0053 30.1786 31.2753 29.3337 32.7893C25.6738 39.1081 28.4037 48.3947 31.9096 53.5024C33.6637 56.0035 35.7137 58.7973 38.3961 58.6982C41.021 58.5897 42.0014 57.0291 45.1698 57.0291C48.3089 57.0291 49.2287 58.6982 51.9655 58.6352C54.7821 58.5896 56.5567 56.123 58.2493 53.5983C59.5096 51.8161 60.4794 49.8465 61.1228 47.7623C59.4864 47.0722 58.0899 45.9169 57.1075 44.4406C56.1251 42.9643 55.6003 41.2323 55.5984 39.4606Z" fill="#36156F"/>
<path d="M50.4309 24.1946C51.9667 22.3562 52.7233 19.9932 52.5401 17.6074C50.1938 17.8532 48.0265 18.9714 46.47 20.7393C45.709 21.603 45.1261 22.6077 44.7547 23.6962C44.3834 24.7846 44.2308 25.9353 44.3056 27.0826C45.4792 27.0947 46.6402 26.841 47.7012 26.3408C48.7622 25.8405 49.6955 25.1067 50.4309 24.1946Z" fill="#36156F"/>
<path d="M88.7739 52.3697H79.8163L77.6652 58.7037H73.8711L82.3555 35.2695H86.2974L94.7819 58.7037H90.9231L88.7739 52.3697ZM80.744 49.4469H87.8444L84.3441 39.1673H84.2462L80.744 49.4469Z" fill="#36156F"/>
<path d="M113.106 50.1611C113.106 55.4705 110.256 58.8816 105.956 58.8816C104.866 58.9385 103.783 58.6882 102.83 58.1596C101.876 57.6309 101.091 56.8452 100.565 55.8924H100.484V64.355H96.9668V41.6175H100.371V44.4592H100.436C100.986 43.511 101.784 42.7294 102.745 42.1975C103.706 41.6656 104.793 41.4034 105.891 41.4387C110.24 41.4387 113.106 44.8665 113.106 50.1611ZM109.491 50.1611C109.491 46.702 107.699 44.4279 104.963 44.4279C102.276 44.4279 100.469 46.7499 100.469 50.1611C100.469 53.6036 102.276 55.9091 104.963 55.9091C107.699 55.9091 109.491 53.6515 109.491 50.1611Z" fill="#36156F"/>
<path d="M131.963 50.1611C131.963 55.4704 129.114 58.8816 124.813 58.8816C123.724 58.9384 122.64 58.6882 121.687 58.1595C120.734 57.6309 119.949 56.8452 119.422 55.8924H119.341V64.355H115.824V41.6174H119.228V44.4592H119.293C119.844 43.511 120.642 42.7293 121.602 42.1975C122.563 41.6656 123.65 41.4034 124.749 41.4387C129.097 41.4387 131.963 44.8665 131.963 50.1611ZM128.349 50.1611C128.349 46.702 126.556 44.4279 123.821 44.4279C121.134 44.4279 119.326 46.7499 119.326 50.1611C119.326 53.6036 121.134 55.909 123.821 55.909C126.556 55.909 128.349 53.6515 128.349 50.1611H128.349Z" fill="#36156F"/>
<path d="M144.426 52.1745C144.687 54.4984 146.951 56.0242 150.044 56.0242C153.009 56.0242 155.141 54.4983 155.141 52.4029C155.141 50.584 153.855 49.4949 150.809 48.7485L147.764 48.0169C143.449 46.9775 141.445 44.965 141.445 41.6994C141.445 37.6561 144.979 34.8789 149.996 34.8789C154.962 34.8789 158.366 37.6561 158.481 41.6994H154.931C154.718 39.3608 152.779 37.9492 149.946 37.9492C147.113 37.9492 145.175 39.3774 145.175 41.4562C145.175 43.1129 146.413 44.0878 149.442 44.8341L152.031 45.4681C156.853 46.6051 158.856 48.5365 158.856 51.9643C158.856 56.3485 155.354 59.0944 149.784 59.0944C144.572 59.0944 141.053 56.413 140.826 52.1743L144.426 52.1745Z" fill="#36156F"/>
<path d="M166.445 37.5703V41.6136H169.703V44.3908H166.445V53.8098C166.445 55.2731 167.097 55.955 168.529 55.955C168.916 55.9482 169.302 55.9212 169.686 55.8738V58.6345C169.042 58.7544 168.388 58.8088 167.733 58.7966C164.264 58.7966 162.911 57.4974 162.911 54.1839V44.3908H160.42V41.6136H162.911V37.5703H166.445Z" fill="#36156F"/>
<path d="M171.592 50.1639C171.592 44.7882 174.767 41.4102 179.718 41.4102C184.685 41.4102 187.845 44.7881 187.845 50.1639C187.845 55.5543 184.702 58.9176 179.718 58.9176C174.735 58.9176 171.592 55.5543 171.592 50.1639ZM184.262 50.1639C184.262 46.4763 182.567 44.2998 179.718 44.2998C176.868 44.2998 175.175 46.4928 175.175 50.1639C175.175 53.8662 176.868 56.0261 179.718 56.0261C182.567 56.0261 184.262 53.8662 184.262 50.1639H184.262Z" fill="#36156F"/>
<path d="M190.746 41.6173H194.1V44.5253H194.182C194.409 43.6171 194.942 42.8145 195.693 42.2523C196.443 41.6902 197.365 41.4028 198.303 41.4385C198.708 41.4371 199.112 41.481 199.508 41.5694V44.8497C198.996 44.6938 198.462 44.6222 197.928 44.6378C197.417 44.6171 196.907 44.7069 196.435 44.9011C195.962 45.0953 195.537 45.3891 195.189 45.7626C194.84 46.136 194.577 46.5802 194.418 47.0646C194.258 47.5489 194.205 48.062 194.263 48.5686V58.7027H190.746L190.746 41.6173Z" fill="#36156F"/>
<path d="M215.721 53.6875C215.248 56.789 212.219 58.9176 208.344 58.9176C203.359 58.9176 200.266 55.5875 200.266 50.245C200.266 44.8858 203.376 41.4102 208.196 41.4102C212.936 41.4102 215.917 44.6573 215.917 49.8377V51.0392H203.816V51.2512C203.76 51.88 203.839 52.5134 204.047 53.1094C204.256 53.7055 204.589 54.2504 205.025 54.7081C205.461 55.1659 205.99 55.5258 206.576 55.7642C207.162 56.0025 207.792 56.1138 208.425 56.0906C209.256 56.1682 210.09 55.9763 210.803 55.5433C211.516 55.1103 212.069 54.4594 212.382 53.6875L215.721 53.6875ZM203.832 48.5882H212.398C212.43 48.0228 212.344 47.4571 212.146 46.9264C211.948 46.3957 211.642 45.9116 211.247 45.5044C210.852 45.0972 210.378 44.7758 209.853 44.5602C209.327 44.3447 208.763 44.2397 208.196 44.2519C207.623 44.2485 207.055 44.3582 206.525 44.5747C205.995 44.7913 205.514 45.1103 205.108 45.5135C204.702 45.9166 204.381 46.3959 204.162 46.9236C203.943 47.4514 203.831 48.0171 203.832 48.5882V48.5882Z" fill="#36156F"/>
<path d="M80.3052 17.63C81.0425 17.5772 81.7824 17.6883 82.4714 17.9552C83.1605 18.2221 83.7816 18.6382 84.2898 19.1734C84.7981 19.7086 85.1809 20.3497 85.4107 21.0503C85.6404 21.7509 85.7114 22.4937 85.6184 23.225C85.6184 26.8223 83.6687 28.8901 80.3052 28.8901H76.2266V17.63H80.3052ZM77.9804 27.2977H80.1093C80.6362 27.3291 81.1634 27.2429 81.6527 27.0455C82.142 26.8481 82.5809 26.5444 82.9376 26.1564C83.2943 25.7685 83.5598 25.3061 83.7147 24.803C83.8696 24.2999 83.9101 23.7686 83.8332 23.2479C83.9045 22.7293 83.86 22.2013 83.7027 21.7019C83.5454 21.2024 83.2792 20.7438 82.9233 20.359C82.5675 19.9741 82.1306 19.6726 81.6441 19.4759C81.1576 19.2792 80.6335 19.1922 80.1093 19.2212H77.9804V27.2977Z" fill="#36156F"/>
<path d="M87.601 24.6375C87.5475 24.0791 87.6115 23.5157 87.7891 22.9834C87.9667 22.4511 88.2539 21.9617 88.6323 21.5465C89.0106 21.1314 89.4718 20.7997 89.9863 20.5727C90.5008 20.3458 91.0571 20.2285 91.6197 20.2285C92.1822 20.2285 92.7386 20.3458 93.253 20.5727C93.7675 20.7997 94.2287 21.1314 94.6071 21.5465C94.9854 21.9617 95.2726 22.4511 95.4502 22.9834C95.6278 23.5157 95.6918 24.0791 95.6383 24.6375C95.6929 25.1965 95.6296 25.7608 95.4524 26.2939C95.2753 26.8271 94.9883 27.3174 94.6098 27.7333C94.2314 28.1493 93.7698 28.4817 93.2549 28.7091C92.7399 28.9366 92.1829 29.0541 91.6197 29.0541C91.0564 29.0541 90.4994 28.9366 89.9845 28.7091C89.4695 28.4817 89.0079 28.1493 88.6295 27.7333C88.251 27.3174 87.964 26.8271 87.7869 26.2939C87.6097 25.7608 87.5465 25.1965 87.601 24.6375ZM93.9085 24.6375C93.9085 22.7956 93.0787 21.7184 91.6224 21.7184C90.1606 21.7184 89.3383 22.7956 89.3383 24.6376C89.3383 26.4943 90.1607 27.5631 91.6224 27.5631C93.0787 27.5631 93.9085 26.4869 93.9085 24.6375H93.9085Z" fill="#36156F"/>
<path d="M106.319 28.8901H104.575L102.813 22.6317H102.68L100.926 28.8901H99.1985L96.8496 20.3926H98.5554L100.082 26.8767H100.208L101.96 20.3926H103.573L105.325 26.8767H105.458L106.977 20.3926H108.659L106.319 28.8901Z" fill="#36156F"/>
<path d="M110.635 20.3911H112.254V21.7411H112.379C112.593 21.2562 112.952 20.8498 113.408 20.5784C113.864 20.307 114.393 20.1842 114.922 20.2271C115.337 20.196 115.753 20.2584 116.14 20.4095C116.528 20.5607 116.876 20.7968 117.159 21.1003C117.442 21.4038 117.653 21.767 117.777 22.163C117.9 22.5589 117.933 22.9775 117.872 23.3877V28.8886H116.19V23.8088C116.19 22.4432 115.595 21.7641 114.351 21.7641C114.07 21.751 113.789 21.7988 113.527 21.9042C113.266 22.0095 113.031 22.17 112.838 22.3745C112.644 22.579 112.498 22.8228 112.408 23.0891C112.318 23.3555 112.287 23.6381 112.316 23.9175V28.8887H110.635L110.635 20.3911Z" fill="#36156F"/>
<path d="M120.551 17.0762H122.233V28.8909H120.551V17.0762Z" fill="#36156F"/>
<path d="M124.57 24.6377C124.516 24.0792 124.58 23.5158 124.758 22.9834C124.936 22.4511 125.223 21.9617 125.601 21.5466C125.98 21.1314 126.441 20.7997 126.955 20.5727C127.47 20.3458 128.026 20.2285 128.589 20.2285C129.151 20.2285 129.708 20.3458 130.222 20.5727C130.737 20.7997 131.198 21.1314 131.576 21.5466C131.955 21.9617 132.242 22.4511 132.42 22.9834C132.597 23.5158 132.661 24.0792 132.608 24.6377C132.662 25.1967 132.599 25.7609 132.422 26.2941C132.245 26.8273 131.958 27.3175 131.579 27.7335C131.201 28.1494 130.739 28.4818 130.224 28.7092C129.709 28.9367 129.152 29.0542 128.589 29.0542C128.026 29.0542 127.469 28.9367 126.954 28.7092C126.439 28.4818 125.977 28.1494 125.598 27.7335C125.22 27.3175 124.933 26.8273 124.756 26.2941C124.579 25.7609 124.515 25.1967 124.57 24.6377ZM130.877 24.6377C130.877 22.7957 130.047 21.7186 128.591 21.7186C127.129 21.7186 126.307 22.7957 126.307 24.6377C126.307 26.4944 127.129 27.5633 128.591 27.5633C130.047 27.5633 130.877 26.487 130.877 24.6377H130.877Z" fill="#36156F"/>
<path d="M134.381 26.4869C134.381 24.9573 135.523 24.0755 137.55 23.9502L139.859 23.8175V23.0841C139.859 22.1866 139.263 21.6798 138.114 21.6798C137.175 21.6798 136.525 22.0235 136.338 22.6243H134.71C134.882 21.1647 136.258 20.2285 138.192 20.2285C140.328 20.2285 141.533 21.2891 141.533 23.0841V28.8901H139.914V27.6959H139.781C139.511 28.1243 139.132 28.4735 138.682 28.7079C138.232 28.9423 137.728 29.0535 137.221 29.0301C136.864 29.0672 136.502 29.0291 136.16 28.9184C135.818 28.8076 135.503 28.6266 135.235 28.387C134.968 28.1474 134.753 27.8545 134.606 27.5272C134.459 27.2 134.382 26.8456 134.381 26.4869ZM139.859 25.7608V25.0504L137.778 25.1831C136.604 25.2614 136.072 25.6595 136.072 26.4086C136.072 27.1734 136.737 27.6185 137.652 27.6185C137.92 27.6455 138.191 27.6185 138.448 27.5391C138.706 27.4597 138.944 27.3294 139.15 27.1561C139.356 26.9828 139.525 26.77 139.647 26.5303C139.768 26.2906 139.84 26.0289 139.859 25.7608Z" fill="#36156F"/>
<path d="M143.742 24.6385C143.742 21.9534 145.126 20.2524 147.279 20.2524C147.812 20.2279 148.34 20.3551 148.803 20.6191C149.266 20.8831 149.644 21.273 149.893 21.7432H150.018V17.0762H151.7V28.8909H150.088V27.5484H149.955C149.687 28.0154 149.296 28.4004 148.825 28.6618C148.353 28.9231 147.819 29.0508 147.279 29.031C145.112 29.0311 143.742 27.33 143.742 24.6385ZM145.479 24.6385C145.479 26.4408 146.331 27.5254 147.756 27.5254C149.174 27.5254 150.05 26.4252 150.05 24.6459C150.05 22.8748 149.164 21.759 147.756 21.759C146.341 21.759 145.479 22.8509 145.479 24.6385H145.479Z" fill="#36156F"/>
<path d="M158.658 24.6375C158.604 24.0791 158.668 23.5157 158.846 22.9834C159.023 22.4511 159.311 21.9617 159.689 21.5465C160.067 21.1314 160.528 20.7997 161.043 20.5727C161.557 20.3458 162.114 20.2285 162.676 20.2285C163.239 20.2285 163.795 20.3458 164.31 20.5727C164.824 20.7997 165.285 21.1314 165.664 21.5465C166.042 21.9617 166.329 22.4511 166.507 22.9834C166.684 23.5157 166.748 24.0791 166.695 24.6375C166.749 25.1965 166.686 25.7608 166.509 26.2939C166.332 26.8271 166.045 27.3174 165.666 27.7333C165.288 28.1493 164.826 28.4817 164.311 28.7091C163.796 28.9366 163.24 29.0541 162.676 29.0541C162.113 29.0541 161.556 28.9366 161.041 28.7091C160.526 28.4817 160.065 28.1493 159.686 27.7333C159.308 27.3174 159.021 26.8271 158.843 26.2939C158.666 25.7608 158.603 25.1965 158.658 24.6375ZM164.965 24.6375C164.965 22.7956 164.135 21.7184 162.679 21.7184C161.217 21.7184 160.395 22.7956 160.395 24.6376C160.395 26.4943 161.217 27.5631 162.679 27.5631C164.135 27.5631 164.965 26.4869 164.965 24.6375Z" fill="#36156F"/>
<path d="M168.949 20.3911H170.568V21.7411H170.694C170.907 21.2562 171.267 20.8498 171.722 20.5784C172.178 20.307 172.708 20.1842 173.237 20.2271C173.651 20.196 174.068 20.2584 174.455 20.4095C174.842 20.5607 175.19 20.7968 175.473 21.1003C175.757 21.4038 175.968 21.767 176.091 22.163C176.215 22.5589 176.247 22.9775 176.186 23.3877V28.8886H174.504V23.8088C174.504 22.4432 173.909 21.7641 172.666 21.7641C172.384 21.751 172.103 21.7988 171.842 21.9042C171.581 22.0095 171.345 22.17 171.152 22.3745C170.959 22.579 170.812 22.8228 170.722 23.0891C170.632 23.3555 170.601 23.6381 170.631 23.9175V28.8887H168.949V20.3911Z" fill="#36156F"/>
<path d="M185.693 18.2793V20.4336H187.539V21.8462H185.693V26.2157C185.693 27.1058 186.06 27.4956 186.898 27.4956C187.112 27.4949 187.326 27.482 187.539 27.4569V28.8538C187.237 28.9076 186.931 28.9363 186.624 28.9395C184.754 28.9395 184.009 28.2834 184.009 26.6451V21.8461H182.656V20.4336H184.009V18.2793H185.693Z" fill="#36156F"/>
<path d="M189.836 17.0762H191.503V21.759H191.636C191.859 21.2696 192.229 20.8609 192.694 20.5885C193.159 20.3161 193.697 20.1932 194.234 20.2367C194.647 20.2144 195.059 20.283 195.442 20.4378C195.825 20.5927 196.168 20.8298 196.449 21.1324C196.729 21.435 196.939 21.7955 197.063 22.1883C197.188 22.5811 197.224 22.9964 197.169 23.4047V28.8909H195.486V23.8184C195.486 22.4611 194.852 21.7737 193.663 21.7737C193.374 21.75 193.084 21.7897 192.811 21.8898C192.539 21.9899 192.293 22.1481 192.088 22.3533C191.884 22.5585 191.727 22.8057 191.628 23.0777C191.53 23.3498 191.492 23.6399 191.518 23.928V28.8909H189.836L189.836 17.0762Z" fill="#36156F"/>
<path d="M206.974 26.5958C206.745 27.3724 206.25 28.0442 205.575 28.4936C204.9 28.9431 204.088 29.1415 203.281 29.0542C202.72 29.069 202.162 28.9618 201.646 28.74C201.131 28.5182 200.669 28.1872 200.295 27.7698C199.92 27.3525 199.641 26.8589 199.477 26.3233C199.313 25.7877 199.268 25.2229 199.345 24.6682C199.27 24.1117 199.316 23.5457 199.48 23.0085C199.644 22.4713 199.921 21.9754 200.294 21.5544C200.666 21.1335 201.125 20.7972 201.639 20.5685C202.153 20.3398 202.711 20.2239 203.274 20.2287C205.645 20.2287 207.075 21.844 207.075 24.5124V25.0976H201.058V25.1916C201.032 25.5034 201.071 25.8173 201.173 26.1131C201.276 26.4089 201.439 26.6801 201.653 26.9093C201.867 27.1385 202.126 27.3206 202.414 27.4441C202.703 27.5675 203.014 27.6294 203.327 27.6259C203.73 27.6741 204.137 27.6019 204.498 27.4184C204.859 27.235 205.157 26.9486 205.355 26.5958L206.974 26.5958ZM201.058 23.8573H205.362C205.383 23.5721 205.344 23.2856 205.248 23.0163C205.152 22.747 205 22.5008 204.802 22.2934C204.605 22.0861 204.366 21.9223 204.101 21.8125C203.836 21.7028 203.551 21.6494 203.265 21.656C202.974 21.6523 202.685 21.7068 202.416 21.8161C202.146 21.9255 201.902 22.0875 201.696 22.2927C201.49 22.4978 201.328 22.742 201.218 23.0107C201.109 23.2794 201.054 23.5673 201.058 23.8573H201.058Z" fill="#36156F"/>
</svg>
