<svg width="195" height="224" viewBox="0 0 195 224" fill="none" xmlns="http://www.w3.org/2000/svg">
<path d="M126.174 119.742C120.878 119.742 117.088 124.911 118.734 129.951C123.545 144.716 137.403 155.384 153.776 155.384C170.148 155.384 184.013 144.709 188.817 129.951C190.457 124.917 186.674 119.742 181.378 119.742L126.174 119.742Z" fill="#9241FE"/>
<path d="M64.8512 103.311C69.4375 105.959 70.1357 112.33 66.1897 115.872C54.6411 126.253 37.3052 128.562 23.1262 120.376C8.94729 112.19 2.27726 96.0131 5.49549 80.8299C6.59251 75.6502 12.4565 73.0607 17.0429 75.7086L64.8512 103.311Z" fill="#9241FE"/>
<path d="M131.808 169.325L131.71 169.691C131.278 171.304 130.616 172.798 129.733 174.178C129.649 174.314 129.566 174.451 129.474 174.585C129.427 174.656 129.382 174.719 129.337 174.782C127.606 177.27 125.172 179.346 122.167 181.007C122.147 181.011 122.125 181.023 122.103 181.036C116.079 184.345 107.786 185.972 98.3598 185.8C97.8936 185.797 97.4298 185.785 96.9573 185.77C92.2848 185.602 87.3548 185 82.2945 183.943C80.9138 183.657 79.5227 183.34 78.1322 182.987C77.6679 182.872 77.2059 182.748 76.7353 182.622C76.1949 182.477 75.6568 182.323 75.1275 182.172C73.9032 181.825 72.697 181.446 71.5152 181.045C70.7512 180.794 70.0005 180.527 69.2522 180.252C64.8709 178.649 60.7946 176.744 57.1027 174.624C48.6176 169.753 42.1177 163.715 38.5418 157.432C38.1271 156.713 37.7449 156.013 37.3888 155.32C36.3926 153.39 35.631 151.56 35.2263 149.724C34.7637 147.685 34.7476 145.653 35.3338 143.466C37.9915 133.547 41.9541 124.65 46.8213 117.014C48.6015 114.24 50.4972 111.628 52.4926 109.202C54.6376 106.6 56.8952 104.206 59.2431 102.033C60.0723 101.274 60.9119 100.546 61.7643 99.8406L61.7753 99.8343C64.6147 97.4656 67.5797 95.4295 70.6287 93.7429C72.3236 92.7864 74.0428 91.9486 75.7886 91.2206C84.275 87.684 93.1982 86.8054 101.792 89.1081L101.853 89.1244C102.507 89.2996 103.156 89.4922 103.787 89.7173C103.859 89.7273 103.926 89.7547 103.994 89.7821C113.166 92.8563 120.655 99.4217 126 108.234C128.379 112.15 130.333 116.504 131.824 121.191C131.95 121.59 132.068 121.986 132.187 122.382C132.744 124.24 133.222 126.153 133.633 128.103C133.676 128.292 133.71 128.479 133.753 128.668C134.054 130.159 134.304 131.702 134.507 133.279C135.926 144.337 134.978 157.32 131.808 169.325Z" fill="#9241FE"/>
<g opacity="0.3">
<g opacity="0.3">
<g opacity="0.3">
<g opacity="0.3">
<path opacity="0.3" d="M140.335 168.704C140.359 168.58 140.385 168.447 140.409 168.323C140.412 168.314 140.412 168.314 140.414 168.305C140.396 168.441 140.372 168.565 140.335 168.704Z" fill="#720000"/>
</g>
</g>
</g>
</g>
<path d="M115.733 157.469L115.721 157.513C114.445 161.926 111.39 165.414 107.104 167.918L107.06 167.943C100.311 171.862 90.4852 173.32 79.619 172.072C76.0954 171.66 72.4692 170.969 68.7911 169.983C68.425 169.885 68.0677 169.789 67.7039 169.682C64.7522 168.845 61.9413 167.83 59.2905 166.671C42.5853 159.393 37.4166 136.811 48.7659 120.917C48.8107 120.854 48.8643 120.794 48.8981 120.737C52.6994 115.441 57.6582 111.856 62.8793 110.639L66.0259 109.913C67.7992 109.5 69.7837 109.416 71.7806 109.633C75.3991 110.005 79.0692 111.334 81.6296 113.318L86.3159 116.956C86.3246 116.959 86.3223 116.967 86.3397 116.972L87.6771 118.012C89.4076 119.363 91.3263 120.326 93.3327 120.892C93.8557 121.032 94.3856 121.146 94.9203 121.242C97.0112 121.597 99.1863 121.498 101.357 120.996L101.386 120.994L107.263 120.187C110.482 119.751 114.316 120.433 117.635 121.92C119.59 132.477 118.891 145.508 115.733 157.469Z" fill="#A369FF"/>
<path d="M99.9221 177.568C97.0471 177.246 94.099 176.708 91.1303 175.969C90.7619 175.879 90.4045 175.783 90.0385 175.685C86.369 174.702 82.8743 173.485 79.6169 172.08C69.5822 167.729 61.8043 161.543 57.9169 154.785L57.8913 154.74C55.4204 150.435 54.5295 145.881 55.6311 141.421L55.6428 141.377C58.8882 129.439 64.7989 117.804 71.7785 109.642C75.3969 110.013 79.0671 111.342 81.6274 113.327L86.3138 116.965C86.3225 116.967 86.3202 116.976 86.3376 116.98C87.958 118.498 89.7922 119.672 91.7891 120.412C92.3004 120.596 92.8163 120.762 93.3393 120.902C95.3684 121.418 97.5026 121.542 99.6768 121.237L101.355 121.004L101.384 121.003L107.261 120.195C110.479 119.759 114.314 120.441 117.633 121.928C119.471 122.738 121.139 123.802 122.477 125.048L124.839 127.25C128.752 130.914 131.257 136.49 131.898 142.986C131.905 143.063 131.922 143.142 131.923 143.208C133.795 162.645 118.031 179.608 99.9221 177.568Z" fill="#A369FF"/>
<path d="M142.359 40.2092C142.728 40.0841 156.934 30.6814 159.834 28.6092C164.166 25.5192 168.307 29.2727 163.288 39.5676C163.288 39.5676 169.738 35.5414 170.787 39.5405C172.342 45.4874 164.458 43.9168 164.021 70.545L142.359 40.2092Z" fill="#9241FE"/>
<path d="M164.429 69.0658L164.116 68.6272C164.256 66.6749 164.437 64.9203 164.656 63.335C164.541 65.0885 164.461 66.9914 164.429 69.0658Z" fill="#7F7F7F"/>
<path d="M54.7093 41.2449C67.645 17.9656 61.0953 15.6688 65.4151 11.296C68.3232 8.35716 71.8962 15.0691 71.8962 15.0691C72.6969 3.64381 77.9416 2.58291 80.3638 7.31428C84.6151 15.6092 92.3982 23.1689 92.656 23.4622C92.656 23.4622 112.503 25.221 114.879 25.8016C116.745 26.2642 161.101 32.4977 164.487 67.2779L164.613 70.189C165.198 85.1243 164.43 96.9135 162.367 103.881C162.296 104.217 162.218 104.542 162.13 104.873C161.272 108.071 159.644 111.325 156.977 114.515C148.577 123.97 121.54 121.816 105.982 117.648L86.1529 112.335C78.3783 110.251 34.7636 98.5648 40.411 72.9216C41.9725 65.8386 47.4755 53.9824 53.9451 42.5628L54.7093 41.2449Z" fill="#9241FE"/>
<path d="M162.236 104.473C162.038 105.213 161.802 105.954 161.512 106.689C163.226 99.6651 163.84 88.6569 163.299 74.9853L163.175 72.1027C165.123 43.74 126.528 33.2958 114.148 31.1089C111.767 30.6858 92.1892 28.7936 92.1892 28.7936C91.9291 28.5091 84.2365 21.0297 80.0316 12.8406C77.6326 8.16218 73.9298 8.38443 73.1293 19.6696C73.1293 19.6696 67.2059 13.1874 65.2545 16.7749C62.2212 22.3425 61.2044 15.2599 65.5219 10.8958C68.4299 7.95703 72.003 14.6689 72.003 14.6689C72.8037 3.24367 78.0507 2.17406 80.4729 6.90543C84.7329 15.2026 92.5073 22.7601 92.7738 23.0557C92.7738 23.0557 112.623 24.8057 114.997 25.3951C116.863 25.8576 161.219 32.0912 164.596 66.8691L164.722 69.7801C165.307 84.7155 164.539 96.5046 162.476 103.472C162.405 103.808 162.325 104.141 162.236 104.473Z" fill="#A670FC"/>
<g opacity="0.3">
<g opacity="0.3">
<g opacity="0.3">
<g opacity="0.3">
<path opacity="0.3" d="M112.151 78.7583C112.03 79.0715 111.898 79.391 111.763 79.7192C106.98 90.9462 95.4763 96.2247 85.3317 94.7583C77.8053 93.6664 63.9837 86.8521 63.7685 69.9793C63.6869 63.904 65.1621 58.0497 67.5845 55.3544C71.8158 50.6496 80.4455 51.215 84.2395 51.559C84.6307 51.5984 85.0567 51.6472 85.4978 51.7093C93.2073 52.8502 107.248 58.3593 111.028 64.0525C111.031 64.0438 116.201 68.3158 112.151 78.7583Z" fill="#720000"/>
</g>
</g>
</g>
</g>
<path d="M112.784 108.336C107.768 108.019 102.354 107.204 96.5342 105.878C90.8313 104.116 85.7431 102.117 81.2498 99.8859C48.6449 83.648 56.4508 69.2982 65.7804 51.8067C65.8253 51.744 65.8684 51.6528 65.9045 51.5877C66.7929 49.9107 67.3231 41.5518 78.4504 33.9118C82.5272 31.1087 88.8757 31.0535 94.263 33.2257C97.1596 35.0014 99.8667 37.2401 102.261 39.7034C102.59 40.1839 102.91 40.6993 103.225 41.2321C105.227 44.6366 108.486 46.8736 112.132 47.701C115.705 48.7987 119.646 48.4907 123.097 46.5569C123.634 46.2617 124.169 45.9752 124.696 45.7148C128.002 44.7789 131.468 44.185 134.862 44.1042C140.614 44.9167 146.067 48.134 148.213 52.6046C154.021 64.7824 150.283 72.2819 150.24 74.1854C150.239 74.2598 150.222 74.358 150.221 74.4324C149.552 94.254 149.14 110.576 112.784 108.336Z" fill="#A369FF"/>
<path d="M125.38 184.334L125.328 184.349C125.328 184.349 125.331 184.34 125.338 184.313L125.38 184.334Z" fill="#EF8B01"/>
<path d="M127.364 180.97L127.32 180.988C127.32 180.988 127.323 180.978 127.33 180.951L127.364 180.97Z" fill="#EF8B01"/>
<path d="M115.393 83.4656C114.939 85.3338 113.21 87.8131 104.35 85.8407C102.472 85.4217 99.6036 84.2047 98.7918 83.5387C96.6113 81.7401 95.6477 80.2114 96.3747 78.3697C96.7723 77.3739 98.0819 76.4263 99.0615 76.2217C101.524 75.7137 101.262 75.6437 102.352 74.7493C104.527 72.9779 105.784 72.9224 107.217 72.9794C112.139 73.1585 116.016 80.8955 115.393 83.4656Z" fill="#FF8E06"/>
<g opacity="0.3">
<g opacity="0.3">
<g opacity="0.3">
<g opacity="0.3">
<path opacity="0.3" d="M104.354 85.8328C102.472 85.4313 99.6195 84.1532 98.824 83.4262C96.6856 81.4707 95.7664 79.7764 96.5722 77.6755C96.6958 77.3537 96.8938 77.0331 97.1331 76.7328C97.3373 77.9927 98.2194 79.1632 99.6204 80.4541C100.407 81.1787 103.271 82.4504 105.15 82.8607C111.806 84.3078 114.496 83.0573 115.648 81.4416C115.687 81.9567 115.671 82.4007 115.584 82.7604C115.058 84.8988 113.226 87.7616 104.354 85.8328Z" fill="#720000"/>
</g>
</g>
</g>
</g>
<g opacity="0.35">
<g opacity="0.35">
<g opacity="0.35">
<g opacity="0.35">
<path opacity="0.35" d="M113.526 85.871L113.554 85.7664C114.178 83.1963 110.277 74.7804 105.396 75.2848C104.319 75.3981 103.475 76.4235 102.541 77.2571C101.494 78.2004 98.5614 77.6761 97.4289 78.9046C97.206 79.1438 96.5584 78.7368 96.2158 78.9346C96.2561 78.7492 96.3162 78.5598 96.3873 78.364C96.7849 77.3682 98.0945 76.4206 99.0718 76.2247C101.534 75.7167 101.273 75.6467 102.362 74.7523C104.537 72.9809 105.794 72.9255 107.229 72.9737C112.134 73.1481 116.02 80.8874 115.388 83.4552C115.201 84.2926 114.741 85.2436 113.526 85.871Z" fill="white"/>
</g>
</g>
</g>
</g>
<path d="M113.837 75.8184C113.312 75.1267 112.76 74.5023 112.18 73.9826C110.641 72.5799 108.951 71.8095 107.278 71.7441C105.62 71.6922 104.04 71.8013 101.59 73.7978C101.401 73.9435 101.254 74.0724 101.132 74.1798C100.646 74.6006 100.586 74.6499 98.8266 75.0099C97.5196 75.2856 95.8169 76.4455 95.2363 77.9154C95.0211 78.4743 94.9158 79.0066 94.9118 79.5099C94.8941 81.5978 96.4993 83.2423 98.0126 84.4979C98.9904 85.3111 101.727 86.4274 103.584 86.9249C103.758 86.9716 103.926 87.0072 104.094 87.0429C104.482 87.1282 104.853 87.2089 105.209 87.2762C111.005 88.409 114.571 87.7204 116.043 85.1908L116.046 85.1821C116.269 84.8028 116.451 84.3659 116.575 83.904L116.612 83.7645C117.121 81.6215 115.604 78.1508 113.837 75.8184ZM97.5346 78.8208C97.5393 78.8034 97.5416 78.7947 97.555 78.7796C97.6051 78.6622 97.6884 78.5257 97.8129 78.4096C98.1034 78.0577 98.5688 77.7153 98.9962 77.5496C99.0096 77.5345 99.0183 77.5369 99.027 77.5392C99.1242 77.4905 99.2364 77.4552 99.3265 77.4326C99.3748 77.4269 99.4079 77.4077 99.4475 77.3996C99.4562 77.402 99.4585 77.3932 99.4672 77.3956C101.543 76.9708 101.914 76.7713 102.751 76.0522C102.862 75.9512 102.996 75.8374 103.151 75.7109C104.991 74.214 105.961 74.1844 107.037 74.2112C107.055 74.2159 107.072 74.2206 107.083 74.2142C107.129 74.2172 107.157 74.2155 107.203 74.2184C107.49 74.2298 107.767 74.2761 108.046 74.3508C108.499 74.4722 108.943 74.6657 109.341 74.922C109.358 74.9266 109.382 74.9424 109.397 74.9557C110.27 75.4979 111.004 76.2457 111.525 76.8805C111.652 77.0358 111.763 77.1778 111.868 77.3087C112.744 78.4682 113.38 79.7221 113.778 80.7816C114.06 81.5393 114.207 82.2138 114.229 82.6869C114.244 82.8776 114.228 83.0415 114.195 83.1635C114.085 83.6104 113.868 84.0007 113.554 84.2997C112.52 85.3023 110.403 85.5665 107.219 85.1058L107.211 85.1035C106.42 84.9851 105.565 84.8307 104.632 84.618C102.835 84.2113 100.175 83.0503 99.5924 82.5764C97.1292 80.5432 97.2302 79.608 97.5346 78.8208Z" fill="#4B4B4B"/>
<path d="M127.311 210.479C126.384 210.672 125.298 210.99 124.101 211.395C115.639 214.27 101.802 221.656 101.802 221.656C101.802 221.656 98.0803 209.213 99.0161 202.945C99.1555 201.976 99.4094 201.158 99.8082 200.55C102.378 196.642 111.712 197.161 114.198 197.372C114.591 197.401 114.809 197.429 114.809 197.429C114.809 197.429 114.841 197.45 114.914 197.491C116.464 198.385 134.493 208.985 127.311 210.479Z" fill="#FF8E06"/>
<path d="M127.31 210.479C126.382 210.671 125.296 210.99 124.1 211.395C123.734 211.056 123.546 210.681 123.59 210.275C123.922 207.441 112.931 197.976 112.931 197.976L114.913 197.49C116.463 198.385 134.492 208.985 127.31 210.479Z" fill="#FFAB57"/>
<path d="M17.5451 180.033C18.252 180.664 19.0334 181.482 19.867 182.432C25.7575 189.153 34.0482 202.467 34.0482 202.467C34.0482 202.467 43.4925 193.552 45.8163 187.656C46.1801 186.747 46.3691 185.912 46.3279 185.185C46.0564 180.516 37.7134 176.299 35.4548 175.239C35.0999 175.067 34.897 174.983 34.897 174.983C34.897 174.983 34.8588 174.985 34.7756 174.983C32.9862 174.983 12.072 175.148 17.5451 180.033Z" fill="#FF8E06"/>
<path d="M17.5449 180.033C18.2518 180.664 19.0332 181.482 19.8668 182.432C20.3526 182.321 20.7038 182.09 20.8679 181.716C21.9973 179.096 36.2488 176.395 36.2488 176.395L34.7754 174.983C32.986 174.983 12.0719 175.148 17.5449 180.033Z" fill="#FFAB57"/>
<path d="M80.5505 75.0931C85.1379 76.3223 90.283 71.9961 92.0423 65.4302C93.8016 58.8644 91.509 52.5452 86.9215 51.316C82.3341 50.0868 77.189 54.413 75.4297 60.9789C73.6704 67.5448 75.963 73.8639 80.5505 75.0931Z" fill="white"/>
<path d="M129.525 88.2162C134.113 89.4454 139.258 85.1192 141.017 78.5533C142.776 71.9874 140.484 65.6683 135.896 64.439C131.309 63.2098 126.164 67.5361 124.404 74.1019C122.645 80.6678 124.938 86.987 129.525 88.2162Z" fill="white"/>
<path d="M129.869 88.4316C132.904 89.2449 136.624 85.2045 138.178 79.407C139.731 73.6096 138.53 68.2504 135.494 67.4371C132.459 66.6237 128.739 70.6641 127.185 76.4616C125.632 82.2591 126.833 87.6182 129.869 88.4316Z" fill="#36156F"/>
<path d="M80.6071 75.2319C83.6426 76.0452 87.3626 72.0048 88.9161 66.2073C90.4695 60.4098 89.268 55.0507 86.2326 54.2374C83.1971 53.424 79.477 57.4644 77.9236 63.2619C76.3702 69.0594 77.5716 74.4185 80.6071 75.2319Z" fill="#36156F"/>
<path d="M71.5089 67.8866C72.5438 64.0243 76.9956 62.2358 80.4149 64.3087L88.264 69.067C90.6234 70.4973 91.7032 73.3523 90.8809 75.9861L89.8546 79.2728C88.8954 82.345 85.6831 84.1131 82.5744 83.2801L74.1973 81.0355C70.9965 80.1778 69.097 76.8878 69.9547 73.687L71.5089 67.8866Z" fill="#A369FF"/>
<path d="M142.021 86.7801C143.055 82.9179 140.094 79.1431 136.097 79.2286L126.92 79.4249C124.162 79.4838 121.799 81.4165 121.194 84.1085L120.44 87.468C119.734 90.6082 121.632 93.7456 124.741 94.5786L133.118 96.8232C136.319 97.6809 139.609 95.7814 140.466 92.5806L142.021 86.7801Z" fill="#A369FF"/>
<circle cx="130.895" cy="70.3456" r="3" transform="rotate(15 130.895 70.3456)" fill="white"/>
<circle cx="82.5998" cy="57.4047" r="3" transform="rotate(15 82.5998 57.4047)" fill="white"/>
</svg>
